<?xml version="1.0" encoding="UTF-8" standalone="no"?>
<!-- Generator: Adobe Illustrator 25.3.0, SVG Export Plug-In . SVG Version: 6.00 Build 0)  -->

<svg
   version="1.1"
   id="Layer_1"
   x="0px"
   y="0px"
   viewBox="0 0 595.3 841.9"
   style="enable-background:new 0 0 595.3 841.9;"
   xml:space="preserve"
   sodipodi:docname="moth.svg"
   inkscape:version="1.2.2 (b0a8486541, 2022-12-01)"
   xmlns:inkscape="http://www.inkscape.org/namespaces/inkscape"
   xmlns:sodipodi="http://sodipodi.sourceforge.net/DTD/sodipodi-0.dtd"
   xmlns:xlink="http://www.w3.org/1999/xlink"
   xmlns="http://www.w3.org/2000/svg"
   xmlns:svg="http://www.w3.org/2000/svg"><defs
   id="defs761" /><sodipodi:namedview
   id="namedview759"
   pagecolor="#505050"
   bordercolor="#eeeeee"
   borderopacity="1"
   inkscape:showpageshadow="0"
   inkscape:pageopacity="0"
   inkscape:pagecheckerboard="0"
   inkscape:deskcolor="#505050"
   showgrid="false"
   inkscape:zoom="2.0209025"
   inkscape:cx="380.27565"
   inkscape:cy="327.57642"
   inkscape:window-width="2560"
   inkscape:window-height="1371"
   inkscape:window-x="0"
   inkscape:window-y="1472"
   inkscape:window-maximized="1"
   inkscape:current-layer="Layer_1" />
<style
   type="text/css"
   id="style414">
	.st0{display:none;}
	.st1{display:inline;fill:none;stroke:#000000;stroke-width:0.8504;stroke-linecap:round;stroke-linejoin:round;}
	.st2{fill:none;stroke:#231F20;stroke-miterlimit:10;}
</style>
<g
   class="st0"
   id="g752">
	<path
   class="st1"
   d="M42.7,344.9L78,357.7"
   id="path416" />
	<path
   class="st1"
   d="M78,357.7l-12.8,35.2"
   id="path418" />
	<path
   class="st1"
   d="M65.1,392.9l-35.2-12.8"
   id="path420" />
	<path
   class="st1"
   d="M29.9,380.1l12.8-35.2"
   id="path422" />
	<path
   class="st1"
   d="M54.8,311.6l35.2,12.8"
   id="path424" />
	<path
   class="st1"
   d="M90.1,324.4l-12.8,35.2"
   id="path426" />
	<path
   class="st1"
   d="M77.2,359.6L42,346.8"
   id="path428" />
	<path
   class="st1"
   d="M42,346.8l12.8-35.2"
   id="path430" />
	<path
   class="st1"
   d="M74.4,367.5l35.2,12.8"
   id="path432" />
	<path
   class="st1"
   d="M109.6,380.3l-12.8,35.2"
   id="path434" />
	<path
   class="st1"
   d="M96.8,415.5l-35.2-12.8"
   id="path436" />
	<path
   class="st1"
   d="M61.6,402.7l12.8-35.2"
   id="path438" />
	<path
   class="st1"
   d="M86.5,334.2l35.2,12.8"
   id="path440" />
	<path
   class="st1"
   d="M121.7,347l-12.8,35.2"
   id="path442" />
	<path
   class="st1"
   d="M108.9,382.2l-35.2-12.8"
   id="path444" />
	<path
   class="st1"
   d="M73.7,369.4l12.8-35.2"
   id="path446" />
	<path
   class="st1"
   d="M98.6,300.9l35.2,12.8"
   id="path448" />
	<path
   class="st1"
   d="M133.8,313.7L121,349"
   id="path450" />
	<path
   class="st1"
   d="M121,349l-35.2-12.8"
   id="path452" />
	<path
   class="st1"
   d="M85.8,336.1l12.8-35.2"
   id="path454" />
	<path
   class="st1"
   d="M121.7,358.8l34,15.8"
   id="path456" />
	<path
   class="st1"
   d="M155.6,374.7l-15.8,34"
   id="path458" />
	<path
   class="st1"
   d="M139.8,408.6l-34-15.8"
   id="path460" />
	<path
   class="st1"
   d="M105.8,392.8l15.8-34"
   id="path462" />
	<path
   class="st1"
   d="M136.6,326.7l34,15.8"
   id="path464" />
	<path
   class="st1"
   d="M170.6,342.6l-15.8,34"
   id="path466" />
	<path
   class="st1"
   d="M154.7,376.6l-34-15.8"
   id="path468" />
	<path
   class="st1"
   d="M120.8,360.7l15.8-34"
   id="path470" />
	<path
   class="st1"
   d="M151.6,294.7l34,15.8"
   id="path472" />
	<path
   class="st1"
   d="M185.6,310.5l-15.8,34"
   id="path474" />
	<path
   class="st1"
   d="M169.7,344.5l-34-15.8"
   id="path476" />
	<path
   class="st1"
   d="M135.7,328.6l15.8-34"
   id="path478" />
	<path
   class="st1"
   d="M162.7,359.6l34,15.8"
   id="path480" />
	<path
   class="st1"
   d="M196.6,375.4l-15.8,34"
   id="path482" />
	<path
   class="st1"
   d="M180.8,409.4l-34-15.8"
   id="path484" />
	<path
   class="st1"
   d="M146.8,393.5l15.8-34"
   id="path486" />
	<path
   class="st1"
   d="M177.6,327.5l34,15.8"
   id="path488" />
	<path
   class="st1"
   d="M211.6,343.3l-15.8,34"
   id="path490" />
	<path
   class="st1"
   d="M195.8,377.3l-34-15.8"
   id="path492" />
	<path
   class="st1"
   d="M161.8,361.5l15.8-34"
   id="path494" />
	<path
   class="st1"
   d="M192.6,295.4l34,15.8"
   id="path496" />
	<path
   class="st1"
   d="M226.6,311.2l-15.8,34"
   id="path498" />
	<path
   class="st1"
   d="M210.7,345.2l-34-15.8"
   id="path500" />
	<path
   class="st1"
   d="M176.8,329.4l15.8-34"
   id="path502" />
	<path
   class="st1"
   d="M187.8,394.3l34,15.8"
   id="path504" />
	<path
   class="st1"
   d="M221.8,410.1l-15.8,34"
   id="path506" />
	<path
   class="st1"
   d="M206,444.1l-34-15.8"
   id="path508" />
	<path
   class="st1"
   d="M172,428.3l15.8-34"
   id="path510" />
	<path
   class="st1"
   d="M202.8,362.2l34,15.8"
   id="path512" />
	<path
   class="st1"
   d="M236.8,378l-15.8,34"
   id="path514" />
	<path
   class="st1"
   d="M220.9,412l-34-15.8"
   id="path516" />
	<path
   class="st1"
   d="M187,396.2l15.8-34"
   id="path518" />
	<path
   class="st1"
   d="M217.8,330.1l34,15.8"
   id="path520" />
	<path
   class="st1"
   d="M251.7,346l-15.8,34"
   id="path522" />
	<path
   class="st1"
   d="M235.9,379.9l-34-15.8"
   id="path524" />
	<path
   class="st1"
   d="M201.9,364.1l15.8-34"
   id="path526" />
	<path
   class="st1"
   d="M219.2,415.8l34,15.8"
   id="path528" />
	<path
   class="st1"
   d="M253.2,431.6l-15.8,34"
   id="path530" />
	<path
   class="st1"
   d="M237.3,465.6l-34-15.8"
   id="path532" />
	<path
   class="st1"
   d="M203.3,449.8l15.8-34"
   id="path534" />
	<path
   class="st1"
   d="M234.1,383.7l34,15.8"
   id="path536" />
	<path
   class="st1"
   d="M268.1,399.6l-15.8,34"
   id="path538" />
	<path
   class="st1"
   d="M252.3,433.5l-34-15.8"
   id="path540" />
	<path
   class="st1"
   d="M218.3,417.7l15.8-34"
   id="path542" />
	<path
   class="st1"
   d="M249.1,351.6l34,15.8"
   id="path544" />
	<path
   class="st1"
   d="M283.1,367.5l-15.8,34"
   id="path546" />
	<path
   class="st1"
   d="M267.2,401.4l-34-15.8"
   id="path548" />
	<path
   class="st1"
   d="M233.3,385.6l15.8-34"
   id="path550" />
	<path
   class="st1"
   d="M139.8,432.4l35.8,11"
   id="path552" />
	<path
   class="st1"
   d="M175.7,443.4l-11,35.8"
   id="path554" />
	<path
   class="st1"
   d="M164.7,479.2l-35.8-11"
   id="path556" />
	<path
   class="st1"
   d="M128.9,468.3l11-35.9"
   id="path558" />
	<path
   class="st1"
   d="M182.3,445l34,15.8"
   id="path560" />
	<path
   class="st1"
   d="M216.3,460.8l-15.8,34"
   id="path562" />
	<path
   class="st1"
   d="M200.4,494.8l-34-15.8"
   id="path564" />
	<path
   class="st1"
   d="M166.4,479l15.8-34"
   id="path566" />
	<path
   class="st1"
   d="M224.4,465.4l29.9,22.6"
   id="path568" />
	<path
   class="st1"
   d="M254.4,487.9l-22.6,29.9"
   id="path570" />
	<path
   class="st1"
   d="M231.8,517.9l-29.9-22.6"
   id="path572" />
	<path
   class="st1"
   d="M201.9,495.3l22.6-29.9"
   id="path574" />
	<path
   class="st1"
   d="M260.6,494.3l24.6,28.3"
   id="path576" />
	<path
   class="st1"
   d="M285.2,522.6l-28.3,24.6"
   id="path578" />
	<path
   class="st1"
   d="M256.9,547.2l-24.6-28.3"
   id="path580" />
	<path
   class="st1"
   d="M232.3,518.9l28.3-24.6"
   id="path582" />
	<path
   class="st1"
   d="M517.3,357.7l35.2-12.8"
   id="path584" />
	<path
   class="st1"
   d="M552.5,344.9l12.8,35.2"
   id="path586" />
	<path
   class="st1"
   d="M565.4,380.1l-35.2,12.8"
   id="path588" />
	<path
   class="st1"
   d="M530.1,392.9l-12.8-35.2"
   id="path590" />
	<path
   class="st1"
   d="M505.2,324.4l35.2-12.8"
   id="path592" />
	<path
   class="st1"
   d="M540.4,311.6l12.8,35.2"
   id="path594" />
	<path
   class="st1"
   d="M553.3,346.8L518,359.6"
   id="path596" />
	<path
   class="st1"
   d="M518,359.6l-12.8-35.2"
   id="path598" />
	<path
   class="st1"
   d="M485.7,380.3l35.2-12.8"
   id="path600" />
	<path
   class="st1"
   d="M520.9,367.5l12.8,35.2"
   id="path602" />
	<path
   class="st1"
   d="M533.7,402.7l-35.2,12.8"
   id="path604" />
	<path
   class="st1"
   d="M498.5,415.5l-12.8-35.2"
   id="path606" />
	<path
   class="st1"
   d="M473.5,347l35.2-12.8"
   id="path608" />
	<path
   class="st1"
   d="M508.8,334.2l12.8,35.2"
   id="path610" />
	<path
   class="st1"
   d="M521.6,369.4l-35.2,12.8"
   id="path612" />
	<path
   class="st1"
   d="M486.4,382.2L473.5,347"
   id="path614" />
	<path
   class="st1"
   d="M461.4,313.7l35.2-12.8"
   id="path616" />
	<path
   class="st1"
   d="M496.7,300.9l12.8,35.2"
   id="path618" />
	<path
   class="st1"
   d="M509.5,336.1L474.3,349"
   id="path620" />
	<path
   class="st1"
   d="M474.3,349l-12.8-35.2"
   id="path622" />
	<path
   class="st1"
   d="M439.6,374.7l34-15.8"
   id="path624" />
	<path
   class="st1"
   d="M473.6,358.8l15.8,34"
   id="path626" />
	<path
   class="st1"
   d="M489.5,392.8l-34,15.8"
   id="path628" />
	<path
   class="st1"
   d="M455.5,408.6l-15.8-34"
   id="path630" />
	<path
   class="st1"
   d="M424.7,342.6l34-15.8"
   id="path632" />
	<path
   class="st1"
   d="M458.7,326.7l15.8,34"
   id="path634" />
	<path
   class="st1"
   d="M474.5,360.7l-34,15.8"
   id="path636" />
	<path
   class="st1"
   d="M440.5,376.6l-15.8-34"
   id="path638" />
	<path
   class="st1"
   d="M409.7,310.5l34-15.8"
   id="path640" />
	<path
   class="st1"
   d="M443.7,294.7l15.8,34"
   id="path642" />
	<path
   class="st1"
   d="M459.5,328.6l-34,15.8"
   id="path644" />
	<path
   class="st1"
   d="M425.6,344.5l-15.8-34"
   id="path646" />
	<path
   class="st1"
   d="M398.6,375.4l34-15.8"
   id="path648" />
	<path
   class="st1"
   d="M432.6,359.6l15.8,34"
   id="path650" />
	<path
   class="st1"
   d="M448.4,393.5l-34,15.8"
   id="path652" />
	<path
   class="st1"
   d="M414.5,409.4l-15.8-34"
   id="path654" />
	<path
   class="st1"
   d="M383.7,343.3l34-15.8"
   id="path656" />
	<path
   class="st1"
   d="M417.6,327.5l15.8,34"
   id="path658" />
	<path
   class="st1"
   d="M433.5,361.5l-34,15.8"
   id="path660" />
	<path
   class="st1"
   d="M399.5,377.3l-15.8-34"
   id="path662" />
	<path
   class="st1"
   d="M368.7,311.2l34-15.8"
   id="path664" />
	<path
   class="st1"
   d="M402.7,295.4l15.8,34"
   id="path666" />
	<path
   class="st1"
   d="M418.5,329.4l-34,15.8"
   id="path668" />
	<path
   class="st1"
   d="M384.5,345.2l-15.8-34"
   id="path670" />
	<path
   class="st1"
   d="M373.5,410.1l34-15.8"
   id="path672" />
	<path
   class="st1"
   d="M407.4,394.3l15.8,34"
   id="path674" />
	<path
   class="st1"
   d="M423.3,428.3l-34,15.8"
   id="path676" />
	<path
   class="st1"
   d="M389.3,444.1l-15.8-34"
   id="path678" />
	<path
   class="st1"
   d="M358.5,378l34-15.8"
   id="path680" />
	<path
   class="st1"
   d="M392.5,362.2l15.8,34"
   id="path682" />
	<path
   class="st1"
   d="M408.3,396.2l-34,15.8"
   id="path684" />
	<path
   class="st1"
   d="M374.3,412l-15.8-34"
   id="path686" />
	<path
   class="st1"
   d="M343.5,346l34-15.8"
   id="path688" />
	<path
   class="st1"
   d="M377.5,330.1l15.8,34"
   id="path690" />
	<path
   class="st1"
   d="M393.4,364.1l-34,15.8"
   id="path692" />
	<path
   class="st1"
   d="M359.4,379.9l-15.8-34"
   id="path694" />
	<path
   class="st1"
   d="M342.1,431.6l34-15.8"
   id="path696" />
	<path
   class="st1"
   d="M376.1,415.8l15.8,34"
   id="path698" />
	<path
   class="st1"
   d="M391.9,449.8l-34,15.8"
   id="path700" />
	<path
   class="st1"
   d="M358,465.6l-15.8-34"
   id="path702" />
	<path
   class="st1"
   d="M327.2,399.6l34-15.8"
   id="path704" />
	<path
   class="st1"
   d="M361.1,383.7l15.8,34"
   id="path706" />
	<path
   class="st1"
   d="M377,417.7l-34,15.8"
   id="path708" />
	<path
   class="st1"
   d="M343,433.5l-15.8-34"
   id="path710" />
	<path
   class="st1"
   d="M312.2,367.5l34-15.8"
   id="path712" />
	<path
   class="st1"
   d="M346.2,351.6l15.8,34"
   id="path714" />
	<path
   class="st1"
   d="M362,385.6l-34,15.8"
   id="path716" />
	<path
   class="st1"
   d="M328,401.4l-15.8-34"
   id="path718" />
	<path
   class="st1"
   d="M419.6,443.4l35.8-11"
   id="path720" />
	<path
   class="st1"
   d="M455.5,432.4l11,35.9"
   id="path722" />
	<path
   class="st1"
   d="M466.4,468.3l-35.9,11"
   id="path724" />
	<path
   class="st1"
   d="M430.6,479.2l-11-35.8"
   id="path726" />
	<path
   class="st1"
   d="M379,460.8l34-15.8"
   id="path728" />
	<path
   class="st1"
   d="M413,445l15.8,34"
   id="path730" />
	<path
   class="st1"
   d="M428.8,479l-34,15.8"
   id="path732" />
	<path
   class="st1"
   d="M394.9,494.8l-15.8-34"
   id="path734" />
	<path
   class="st1"
   d="M340.9,487.9l29.9-22.6"
   id="path736" />
	<path
   class="st1"
   d="M370.9,465.4l22.6,29.9"
   id="path738" />
	<path
   class="st1"
   d="M393.4,495.3l-29.9,22.6"
   id="path740" />
	<path
   class="st1"
   d="M363.5,517.9l-22.6-29.9"
   id="path742" />
	<path
   class="st1"
   d="M310.1,522.6l24.6-28.3"
   id="path744" />
	<path
   class="st1"
   d="M334.7,494.3l28.3,24.6"
   id="path746" />
	<path
   class="st1"
   d="M363,518.9l-24.6,28.3"
   id="path748" />
	<path
   class="st1"
   d="M338.4,547.2l-28.3-24.6"
   id="path750" />
</g>
<image
   style="display:none;overflow:visible;opacity:0.2;"
   width="648"
   height="747"
   xlink:href="EB70BBA7.jpg"
   transform="matrix(0.4819 0 0 0.4819 7.7753 212.1474)"
   id="image754">
</image>
<path
   class="st2"
   d="m 572.8,351.3 c -6.1,-36.7 -31.6,-59.4 -92.9,-65.6 -61.3,-6.2 -120.9,11.9 -142.5,30.5 -21.6,18.6 -28.8349,32.75038 -27.5349,48.45038 0.2,2.1 2.09213,9.6857 3.29213,11.9857 3,5.7 -8.35723,7.06392 -14.75723,7.16392 h -0.8 -0.8 c -6.4,-0.1 -17.77092,-1.5627 -14.77092,-7.1627 1.2,-2.2 3.11557,-9.89471 3.31557,-11.99471 C 286.64465,348.94259 279.4,334.8 257.8,316.2 236.2,297.6 176.6,279.4 115.3,285.7 54,292 28.5,314.6 22.4,351.3 c -6.1,36.7 9.4,45.8 19.6,50.2 10.2,4.3 39.7,14.4 54,34.7 14.2,20.4 22.4,37.1 56.3,45.8 33.9,8.7 61,23.3 77.9,41.7 16.9,18.4 21,27.5 26.8,27.5 5.8,0 17.9,-12.9 17.9,-12.9 0,0 10.4,-12.7 22.8,-12.9 12.5,0.3 22.8,12.9 22.8,12.9 0,0 12.1,12.9 17.9,12.9 5.8,0 9.9,-9.1 26.8,-27.5 16.9,-18.4 44,-33 77.9,-41.7 33.9,-8.7 42.1,-25.4 56.3,-45.8 14.2,-20.4 43.8,-30.4 54,-34.7 10,-4.4 25.5,-13.5 19.4,-50.2 z"
   id="path756"
   sodipodi:nodetypes="ssscccccccsssccssscccsssscs" />
</svg>
