M48
; DRILL file {KiCad 6.0.11-3.fc36} date Fri 10 Mar 2023 01:36:51 AM EST
; FORMAT={-:-/ absolute / metric / decimal}
; #@! TF.CreationDate,2023-03-10T01:36:51-05:00
; #@! TF.GenerationSoftware,Kicad,Pcbnew,6.0.11-3.fc36
; #@! TF.FileFunction,Plated,1,2,PTH
FMAT,2
METRIC
; #@! TA.AperFunction,Plated,PTH,ViaDrill
T1C0.400
; #@! TA.AperFunction,Plated,PTH,ComponentDrill
T2C0.750
; #@! TA.AperFunction,Plated,PTH,ComponentDrill
T3C1.016
; #@! TA.AperFunction,Plated,PTH,ComponentDrill
T4C1.200
%
G90
G05
T1
X89.154Y-126.365
X94.615Y-110.236
X104.521Y-137.287
X110.363Y-121.031
X115.951Y-105.029
X126.111Y-133.477
X133.223Y-117.856
X135.763Y-167.894
X140.335Y-102.362
X145.923Y-133.35
X153.162Y-118.491
X156.21Y-175.768
X156.985Y-166.611
X157.988Y-151.511
X158.184Y-167.19
X160.147Y-102.489
X162.313Y-171.242
X162.814Y-172.847
X163.221Y-174.879
X164.846Y-135.255
X165.227Y-176.337
X167.513Y-175.883
X172.085Y-120.015
X172.593Y-160.782
X173.355Y-185.547
X179.578Y-145.161
X186.817Y-129.921
X188.849Y-199.771
X191.897Y-192.44
X193.167Y-141.859
X193.167Y-144.653
X193.167Y-149.606
X193.167Y-151.892
X193.169Y-146.429
X193.294Y-136.525
X193.294Y-139.319
X196.215Y-191.986
X201.803Y-196.723
X205.232Y-196.85
X213.141Y-139.319
X222.504Y-196.088
X223.012Y-127.889
X230.251Y-143.764
X234.569Y-178.054
X235.048Y-175.077
X235.1Y-176.565
X236.001Y-175.803
X236.001Y-177.292
X236.855Y-182.245
X237.744Y-117.602
X238.125Y-158.877
X238.125Y-175.077
X238.633Y-177.292
X239.359Y-175.26
X244.348Y-180.467
X245.618Y-132.588
X249.936Y-100.838
X252.476Y-148.209
X255.016Y-173.355
X257.429Y-115.951
X259.08Y-158.115
X259.08Y-159.385
X261.149Y-156.654
X261.289Y-158.257
X264.668Y-131.572
X270.002Y-100.457
X271.78Y-142.113
X273.685Y-162.941
X277.114Y-115.951
X284.48Y-131.572
X294.767Y-102.997
X300.482Y-118.872
X302.133Y-147.066
X306.197Y-135.001
X314.96Y-108.712
X321.31Y-124.968
T2
X216.431Y-143.415
X216.431Y-145.415
X216.431Y-147.415
T3
X198.755Y-143.066
X198.755Y-144.971
X201.93Y-136.716
X201.93Y-139.256
X204.47Y-136.716
X204.47Y-139.256
X207.01Y-154.496
X208.915Y-154.496
T4
X88.199Y-121.681
X92.179Y-125.365
X94.014Y-105.707
X97.994Y-109.39
X103.404Y-132.536
X107.384Y-136.22
X109.218Y-116.561
X113.198Y-120.245
X115.032Y-100.587
X119.012Y-104.27
X125.545Y-129.014
X129.189Y-133.031
X132.729Y-113.607
X135.117Y-163.333
X136.374Y-117.623
X139.285Y-166.803
X139.914Y-98.2
X143.558Y-102.216
X145.239Y-129.371
X148.883Y-133.387
X152.424Y-113.964
X154.662Y-170.387
X156.068Y-117.98
X157.327Y-146.041
X158.306Y-174.403
X159.608Y-98.557
X160.971Y-150.058
X163.253Y-102.573
X164.511Y-130.634
X168.155Y-134.65
X171.696Y-115.227
X172.373Y-156.367
X173.364Y-181.453
X175.34Y-119.243
X176.017Y-160.384
X176.093Y-186.14
X179.557Y-140.96
X183.201Y-144.976
X186.742Y-125.553
X188.976Y-196.298
X190.386Y-129.569
X190.672Y-201.449
X217.424Y-196.298
X219.658Y-125.553
X222.289Y-193.902
X225.078Y-125.343
X226.843Y-140.96
X232.262Y-140.75
X233.036Y-181.453
X234.027Y-156.367
X234.704Y-115.227
X238.293Y-180.121
X239.447Y-156.157
X240.123Y-115.017
X241.889Y-130.634
X246.792Y-98.557
X247.308Y-130.424
X249.073Y-146.041
X251.738Y-170.387
X252.211Y-98.347
X253.976Y-113.964
X254.492Y-145.831
X257.157Y-170.177
X259.395Y-113.754
X261.161Y-129.371
X266.486Y-98.2
X266.58Y-129.161
X271.283Y-163.333
X271.905Y-97.99
X273.671Y-113.607
X276.678Y-163.879
X279.09Y-113.397
X280.855Y-129.014
X286.274Y-128.805
X291.368Y-100.587
X296.784Y-100.85
X297.182Y-116.561
X302.599Y-116.825
X302.996Y-132.536
X308.413Y-132.799
X312.386Y-105.707
X317.803Y-105.97
X318.201Y-121.681
X323.617Y-121.945
T0
M30
