%TF.GenerationSoftware,KiCad,Pcbnew,6.0.11-3.fc36*%
%TF.CreationDate,2023-03-08T22:01:10-05:00*%
%TF.ProjectId,moth,6d6f7468-2e6b-4696-9361-645f70636258,v1.0.0*%
%TF.SameCoordinates,Original*%
%TF.FileFunction,Copper,L1,Top*%
%TF.FilePolarity,Positive*%
%FSLAX46Y46*%
G04 Gerber Fmt 4.6, Leading zero omitted, Abs format (unit mm)*
G04 Created by KiCad (PCBNEW 6.0.11-3.fc36) date 2023-03-08 22:01:10*
%MOMM*%
%LPD*%
G01*
G04 APERTURE LIST*
G04 Aperture macros list*
%AMRoundRect*
0 Rectangle with rounded corners*
0 $1 Rounding radius*
0 $2 $3 $4 $5 $6 $7 $8 $9 X,Y pos of 4 corners*
0 Add a 4 corners polygon primitive as box body*
4,1,4,$2,$3,$4,$5,$6,$7,$8,$9,$2,$3,0*
0 Add four circle primitives for the rounded corners*
1,1,$1+$1,$2,$3*
1,1,$1+$1,$4,$5*
1,1,$1+$1,$6,$7*
1,1,$1+$1,$8,$9*
0 Add four rect primitives between the rounded corners*
20,1,$1+$1,$2,$3,$4,$5,0*
20,1,$1+$1,$4,$5,$6,$7,0*
20,1,$1+$1,$6,$7,$8,$9,0*
20,1,$1+$1,$8,$9,$2,$3,0*%
G04 Aperture macros list end*
%TA.AperFunction,ComponentPad*%
%ADD10RoundRect,0.250000X0.625000X-0.350000X0.625000X0.350000X-0.625000X0.350000X-0.625000X-0.350000X0*%
%TD*%
%TA.AperFunction,ComponentPad*%
%ADD11O,1.750000X1.200000*%
%TD*%
%TA.AperFunction,ComponentPad*%
%ADD12RoundRect,0.300000X0.575000X-0.300000X0.575000X0.300000X-0.575000X0.300000X-0.575000X-0.300000X0*%
%TD*%
%TA.AperFunction,ComponentPad*%
%ADD13C,2.000000*%
%TD*%
%TA.AperFunction,SMDPad,CuDef*%
%ADD14O,2.750000X1.800000*%
%TD*%
%TA.AperFunction,ComponentPad*%
%ADD15C,1.397000*%
%TD*%
%TA.AperFunction,ViaPad*%
%ADD16C,0.800000*%
%TD*%
%TA.AperFunction,Conductor*%
%ADD17C,0.254000*%
%TD*%
G04 APERTURE END LIST*
D10*
X216431000Y-147415000D03*
D11*
X216431000Y-145415000D03*
D12*
X216431000Y-143415000D03*
D13*
X246791521Y-98556577D03*
X252210559Y-98346732D03*
X171695837Y-115226784D03*
X175339877Y-119243122D03*
X302996424Y-132536174D03*
X308413130Y-132799427D03*
X154661783Y-170386684D03*
X158305823Y-174403022D03*
X94013553Y-105706574D03*
X97993774Y-109390029D03*
X318200790Y-121681348D03*
X323617496Y-121944601D03*
X152423969Y-113963810D03*
X156068009Y-117980148D03*
D14*
X195105040Y-137668000D03*
X195105040Y-140208000D03*
X195105040Y-142748000D03*
X195105040Y-145288000D03*
X195105040Y-147828000D03*
X195105040Y-150368000D03*
X195105040Y-152908000D03*
X211294960Y-152908000D03*
X211294960Y-150368000D03*
X211294960Y-147828000D03*
X211294960Y-145288000D03*
X211294960Y-142748000D03*
X211294960Y-140208000D03*
X211294960Y-137668000D03*
D15*
X201930000Y-136716000D03*
X204470000Y-136716000D03*
X201930000Y-139256000D03*
X204470000Y-139256000D03*
X198755000Y-144971000D03*
X198755000Y-143066000D03*
X207010000Y-154496000D03*
X208915000Y-154496000D03*
D13*
X297182081Y-116561399D03*
X302598787Y-116824652D03*
X188976269Y-196297900D03*
X190671674Y-201449172D03*
X253976032Y-113963810D03*
X259395070Y-113753965D03*
X219658478Y-125552836D03*
X225077516Y-125342991D03*
X172372502Y-156367301D03*
X176016542Y-160383639D03*
X233035968Y-181453404D03*
X238292957Y-180121464D03*
X179557012Y-140960068D03*
X183201052Y-144976406D03*
X109217919Y-116561399D03*
X113198140Y-120244854D03*
X135117211Y-163332542D03*
X139284754Y-166802640D03*
X234027499Y-156367301D03*
X239446537Y-156157456D03*
X291367739Y-100586625D03*
X296784445Y-100849878D03*
X251738218Y-170386684D03*
X257157256Y-170176839D03*
X159608479Y-98556577D03*
X163252519Y-102572915D03*
X132729483Y-113607143D03*
X136373523Y-117623481D03*
X280855028Y-129014375D03*
X286274066Y-128804530D03*
X164511327Y-130634016D03*
X168155367Y-134650354D03*
X234704164Y-115226784D03*
X240123202Y-115016939D03*
X139913993Y-98199911D03*
X143558033Y-102216249D03*
X186741522Y-125552836D03*
X190385562Y-129569174D03*
X145239459Y-129371042D03*
X148883499Y-133387380D03*
X312386448Y-105706574D03*
X317803154Y-105969827D03*
X173364033Y-181453404D03*
X176093399Y-186139614D03*
X125544972Y-129014375D03*
X129189012Y-133030713D03*
X273670518Y-113607143D03*
X279089556Y-113397298D03*
X266486008Y-98199911D03*
X271905046Y-97990066D03*
X157326816Y-146041249D03*
X160970856Y-150057587D03*
X271282790Y-163332542D03*
X276678294Y-163878923D03*
X241888674Y-130634016D03*
X247307712Y-130424171D03*
X115032262Y-100586625D03*
X119012483Y-104270080D03*
X249073184Y-146041249D03*
X254492222Y-145831404D03*
X226842989Y-140960068D03*
X232262027Y-140750223D03*
X103403577Y-132536174D03*
X107383798Y-136219629D03*
X217423732Y-196297900D03*
X222288918Y-193902076D03*
X88199210Y-121681348D03*
X92179431Y-125364803D03*
X261160542Y-129371042D03*
X266579580Y-129161197D03*
D16*
X213141500Y-139319000D03*
X110363000Y-121031000D03*
X164846000Y-135255000D03*
X153162000Y-118491000D03*
X133223000Y-117856000D03*
X89154000Y-126365000D03*
X179578000Y-145161000D03*
X193169188Y-146428812D03*
X115951000Y-105029000D03*
X186817000Y-129921000D03*
X172085000Y-120015000D03*
X140335000Y-102362000D03*
X160147000Y-102489000D03*
X193167000Y-144653000D03*
X94615000Y-110236000D03*
X172593000Y-160782000D03*
X157988000Y-151511000D03*
X126111000Y-133477000D03*
X135763000Y-167894000D03*
X104521000Y-137287000D03*
X145923000Y-133350000D03*
X193167000Y-149606000D03*
X222504000Y-196088000D03*
X188849000Y-199771000D03*
X255016000Y-173355000D03*
X173355000Y-185547000D03*
X156210000Y-175768000D03*
X236855000Y-182245000D03*
X245618000Y-132588000D03*
X300482000Y-118872000D03*
X230251000Y-143764000D03*
X257429000Y-115951000D03*
X321310000Y-124968000D03*
X277114000Y-115951000D03*
X237744000Y-117602000D03*
X314960000Y-108712000D03*
X270002000Y-100457000D03*
X294767000Y-102997000D03*
X249936000Y-100838000D03*
X223012000Y-127889000D03*
X273685000Y-162941000D03*
X252476000Y-148209000D03*
X284480000Y-131572000D03*
X306197000Y-135001000D03*
X264668000Y-131572000D03*
X238125000Y-158877000D03*
X302133000Y-147066000D03*
X193167000Y-151892000D03*
X235099633Y-176565500D03*
X244348000Y-180467000D03*
X271780000Y-142113000D03*
X163220627Y-174879000D03*
X236001500Y-175803500D03*
X239359500Y-175260000D03*
X165227000Y-176337385D03*
X261288608Y-158257478D03*
X259080000Y-159385000D03*
X238125000Y-175077000D03*
X167513000Y-175883385D03*
X259080000Y-158115000D03*
X235047669Y-175077000D03*
X261149500Y-156654500D03*
X236001500Y-177292000D03*
X238633000Y-177292000D03*
X156984766Y-166611234D03*
X193294000Y-136525000D03*
X162814000Y-172847000D03*
X234569000Y-178054000D03*
X162312627Y-171241913D03*
X193294000Y-139319000D03*
X158184214Y-167189786D03*
X193167000Y-141859000D03*
X205232000Y-196850000D03*
X196215000Y-191986500D03*
X201803000Y-196723000D03*
X191897000Y-192440500D03*
D17*
X213141500Y-139319000D02*
X212658960Y-139319000D01*
X212658960Y-139319000D02*
X211769960Y-140208000D01*
X223012000Y-127889000D02*
X220761786Y-127889000D01*
X213868000Y-140313843D02*
X213106000Y-141075843D01*
X220761786Y-127889000D02*
X213868000Y-134782786D01*
X213868000Y-134782786D02*
X213868000Y-140313843D01*
X213106000Y-141075843D02*
X213106000Y-143951960D01*
X213106000Y-143951960D02*
X211769960Y-145288000D01*
X230251000Y-143764000D02*
X229235000Y-142748000D01*
X229235000Y-142748000D02*
X226321052Y-142748000D01*
X226321052Y-142748000D02*
X222111052Y-138538000D01*
X213560000Y-146037960D02*
X211769960Y-147828000D01*
X222111052Y-138538000D02*
X216285895Y-138538000D01*
X213560000Y-141263896D02*
X213560000Y-146037960D01*
X216285895Y-138538000D02*
X213560000Y-141263896D01*
X211769960Y-150368000D02*
X214014000Y-148123960D01*
X214014000Y-148123960D02*
X214014000Y-141451948D01*
X214014000Y-141451948D02*
X216473948Y-138992000D01*
X221923001Y-138992000D02*
X226695000Y-143764000D01*
X216473948Y-138992000D02*
X221923001Y-138992000D01*
X226695000Y-143764000D02*
X226695000Y-147828000D01*
X226695000Y-147828000D02*
X227711000Y-148844000D01*
X227711000Y-148844000D02*
X248636655Y-148844000D01*
X211769960Y-152908000D02*
X211963000Y-152908000D01*
X239903000Y-173355000D02*
X253667586Y-173355000D01*
X211963000Y-152908000D02*
X214468000Y-150403000D01*
X214468000Y-141640000D02*
X216662000Y-139446000D01*
X221734948Y-139446000D02*
X226241000Y-143952052D01*
X236220000Y-164592000D02*
X236220000Y-169672000D01*
X214468000Y-150403000D02*
X214468000Y-141640000D01*
X229235000Y-151010052D02*
X229235000Y-157607000D01*
X229235000Y-157607000D02*
X236220000Y-164592000D01*
X216662000Y-139446000D02*
X221734948Y-139446000D01*
X226241000Y-148016052D02*
X229235000Y-151010052D01*
X226241000Y-143952052D02*
X226241000Y-148016052D01*
X236220000Y-169672000D02*
X239903000Y-173355000D01*
X110370762Y-122166238D02*
X130055762Y-122166238D01*
X133350000Y-122555000D02*
X149733000Y-122555000D01*
X102235000Y-127127000D02*
X104267000Y-125095000D01*
X193169188Y-146428812D02*
X193230852Y-146428812D01*
X89154000Y-126365000D02*
X89916000Y-127127000D01*
X130055762Y-122166238D02*
X132961238Y-122166238D01*
X149733000Y-122555000D02*
X153162000Y-119126000D01*
X178643283Y-144226283D02*
X179578000Y-145161000D01*
X130055762Y-122166238D02*
X132461000Y-119761000D01*
X153162000Y-119126000D02*
X153162000Y-118491000D01*
X174664122Y-144226283D02*
X178643283Y-144226283D01*
X110363000Y-121031000D02*
X109855000Y-121539000D01*
X132461000Y-119761000D02*
X133223000Y-118999000D01*
X132961238Y-122166238D02*
X133350000Y-122555000D01*
X109855000Y-122682000D02*
X110370762Y-122166238D01*
X89916000Y-127127000D02*
X102235000Y-127127000D01*
X152146000Y-122555000D02*
X164846000Y-135255000D01*
X193230852Y-146428812D02*
X194630040Y-147828000D01*
X149733000Y-122555000D02*
X152146000Y-122555000D01*
X109855000Y-121539000D02*
X109855000Y-122682000D01*
X104267000Y-125095000D02*
X107442000Y-125095000D01*
X164846000Y-135255000D02*
X165692839Y-135255000D01*
X107442000Y-125095000D02*
X109855000Y-122682000D01*
X165692839Y-135255000D02*
X174664122Y-144226283D01*
X133223000Y-118999000D02*
X133223000Y-117856000D01*
X160147000Y-108077000D02*
X172085000Y-120015000D01*
X160147000Y-108077000D02*
X159185672Y-107115672D01*
X115469079Y-106780921D02*
X118692550Y-106780921D01*
X107315000Y-110871000D02*
X108839000Y-109347000D01*
X159185672Y-107115672D02*
X141908484Y-107115672D01*
X141547654Y-106807000D02*
X141573733Y-106780921D01*
X115252500Y-106997500D02*
X115469079Y-106780921D01*
X182372000Y-128143000D02*
X185039000Y-128143000D01*
X141573733Y-106780921D02*
X140335000Y-105542188D01*
X175387000Y-121158000D02*
X182372000Y-128143000D01*
X185039000Y-128143000D02*
X186817000Y-129921000D01*
X160147000Y-103886000D02*
X160147000Y-108077000D01*
X94615000Y-110236000D02*
X95250000Y-110871000D01*
X140335000Y-105542188D02*
X140335000Y-102362000D01*
X108839000Y-109347000D02*
X112903000Y-109347000D01*
X193167000Y-144653000D02*
X193995040Y-144653000D01*
X118692550Y-106780921D02*
X118718629Y-106807000D01*
X115951000Y-106299000D02*
X115951000Y-105029000D01*
X160147000Y-103886000D02*
X160147000Y-102489000D01*
X118718629Y-106807000D02*
X141547654Y-106807000D01*
X173228000Y-121158000D02*
X175387000Y-121158000D01*
X193995040Y-144653000D02*
X194630040Y-145288000D01*
X141908484Y-107115672D02*
X141573733Y-106780921D01*
X172085000Y-120015000D02*
X173228000Y-121158000D01*
X112903000Y-109347000D02*
X115252500Y-106997500D01*
X115252500Y-106997500D02*
X115951000Y-106299000D01*
X95250000Y-110871000D02*
X107315000Y-110871000D01*
X157988000Y-151511000D02*
X157988000Y-150622000D01*
X104521000Y-137287000D02*
X104807470Y-137573470D01*
X157788000Y-151711000D02*
X157788000Y-162633000D01*
X172085000Y-160782000D02*
X172593000Y-160782000D01*
X139450773Y-134366000D02*
X142117773Y-137033000D01*
X157988000Y-150622000D02*
X158369000Y-150241000D01*
X193167000Y-149606000D02*
X193868040Y-149606000D01*
X158369000Y-150241000D02*
X146431000Y-138303000D01*
X158750000Y-150241000D02*
X160528000Y-148463000D01*
X126111000Y-134874000D02*
X127508000Y-134874000D01*
X145923000Y-137795000D02*
X146431000Y-138303000D01*
X138735092Y-168129640D02*
X138499452Y-167894000D01*
X134690865Y-134168135D02*
X139248135Y-134168135D01*
X152291360Y-168129640D02*
X138735092Y-168129640D01*
X142117773Y-137033000D02*
X145161000Y-137033000D01*
X123411530Y-137573470D02*
X126111000Y-134874000D01*
X145923000Y-133350000D02*
X145923000Y-137795000D01*
X126991713Y-134357713D02*
X127508000Y-134874000D01*
X133985000Y-134874000D02*
X134690865Y-134168135D01*
X193868040Y-149606000D02*
X194630040Y-150368000D01*
X139248135Y-134168135D02*
X139446000Y-134366000D01*
X160528000Y-148463000D02*
X161544000Y-148463000D01*
X126991713Y-134357713D02*
X126111000Y-133477000D01*
X170688000Y-159385000D02*
X172085000Y-160782000D01*
X139446000Y-134366000D02*
X139450773Y-134366000D01*
X157988000Y-151511000D02*
X157788000Y-151711000D01*
X145161000Y-137033000D02*
X146431000Y-138303000D01*
X157788000Y-162633000D02*
X152291360Y-168129640D01*
X164973000Y-156845000D02*
X167513000Y-159385000D01*
X127508000Y-134874000D02*
X133985000Y-134874000D01*
X138499452Y-167894000D02*
X135763000Y-167894000D01*
X161544000Y-148463000D02*
X164973000Y-151892000D01*
X164973000Y-151892000D02*
X164973000Y-156845000D01*
X167513000Y-159385000D02*
X170688000Y-159385000D01*
X104807470Y-137573470D02*
X123411530Y-137573470D01*
X158369000Y-150241000D02*
X158750000Y-150241000D01*
X252150665Y-174871921D02*
X253667586Y-173355000D01*
X236855000Y-182245000D02*
X237490000Y-181610000D01*
X248158000Y-181610000D02*
X252150665Y-177617335D01*
X156210000Y-175768000D02*
X156845000Y-175768000D01*
X173355000Y-185801000D02*
X173355000Y-185547000D01*
X222504000Y-195961000D02*
X222504000Y-196088000D01*
X236855000Y-182245000D02*
X236220000Y-182245000D01*
X169164000Y-181356000D02*
X173355000Y-185547000D01*
X237490000Y-181610000D02*
X248158000Y-181610000D01*
X252150665Y-177617335D02*
X252150665Y-174871921D01*
X188468000Y-200152000D02*
X188849000Y-199771000D01*
X187706000Y-200152000D02*
X188468000Y-200152000D01*
X162433000Y-181356000D02*
X169164000Y-181356000D01*
X236220000Y-182245000D02*
X222504000Y-195961000D01*
X173990000Y-186436000D02*
X187706000Y-200152000D01*
X156845000Y-175768000D02*
X162433000Y-181356000D01*
X253667586Y-173355000D02*
X255016000Y-173355000D01*
X173990000Y-186436000D02*
X173355000Y-185801000D01*
X252857000Y-122555000D02*
X252857000Y-119380000D01*
X249555000Y-125857000D02*
X252857000Y-122555000D01*
X277114000Y-115951000D02*
X277749000Y-116586000D01*
X320802000Y-125095000D02*
X321183000Y-125095000D01*
X260604000Y-119126000D02*
X263906000Y-119126000D01*
X255397000Y-116840000D02*
X258318000Y-116840000D01*
X258699000Y-117221000D02*
X260604000Y-119126000D01*
X249555000Y-131517115D02*
X249555000Y-125857000D01*
X258699000Y-117221000D02*
X257429000Y-115951000D01*
X301117000Y-119634000D02*
X300482000Y-118999000D01*
X231775000Y-143764000D02*
X242189000Y-133350000D01*
X258318000Y-116840000D02*
X258699000Y-117221000D01*
X300482000Y-118999000D02*
X300482000Y-118872000D01*
X277749000Y-116586000D02*
X279363801Y-116586000D01*
X279363801Y-116586000D02*
X282411801Y-119634000D01*
X263906000Y-119126000D02*
X266446000Y-116586000D01*
X321183000Y-125095000D02*
X321310000Y-124968000D01*
X242189000Y-133350000D02*
X246380000Y-133350000D01*
X252857000Y-119380000D02*
X255397000Y-116840000D01*
X246380000Y-133350000D02*
X247722115Y-133350000D01*
X246380000Y-133350000D02*
X245618000Y-132588000D01*
X230251000Y-143764000D02*
X231775000Y-143764000D01*
X282411801Y-119634000D02*
X301117000Y-119634000D01*
X266446000Y-116586000D02*
X279363801Y-116586000D01*
X306578000Y-125095000D02*
X320802000Y-125095000D01*
X301117000Y-119634000D02*
X306578000Y-125095000D01*
X247722115Y-133350000D02*
X249555000Y-131517115D01*
X235133420Y-118237000D02*
X238379000Y-118237000D01*
X225481420Y-127889000D02*
X235133420Y-118237000D01*
X247015000Y-106145095D02*
X247015000Y-103230782D01*
X223012000Y-127889000D02*
X225481420Y-127889000D01*
X238379000Y-118237000D02*
X237744000Y-117602000D01*
X253365000Y-102997000D02*
X263652000Y-102997000D01*
X295783000Y-103759000D02*
X300736000Y-108712000D01*
X243713000Y-109447095D02*
X247015000Y-106145095D01*
X271145000Y-101346000D02*
X272346523Y-101346000D01*
X247015000Y-103230782D02*
X248772782Y-101473000D01*
X270891000Y-101346000D02*
X270002000Y-100457000D01*
X248772782Y-101473000D02*
X250571000Y-101473000D01*
X251841000Y-101473000D02*
X253365000Y-102997000D01*
X271145000Y-101346000D02*
X270891000Y-101346000D01*
X250571000Y-101473000D02*
X249936000Y-100838000D01*
X250571000Y-101473000D02*
X251841000Y-101473000D01*
X274759523Y-103759000D02*
X295148000Y-103759000D01*
X238379000Y-118237000D02*
X240157000Y-118237000D01*
X243713000Y-114681000D02*
X243713000Y-109447095D01*
X263652000Y-102997000D02*
X265303000Y-101346000D01*
X240157000Y-118237000D02*
X243713000Y-114681000D01*
X294767000Y-103378000D02*
X294767000Y-102997000D01*
X272346523Y-101346000D02*
X274759523Y-103759000D01*
X295148000Y-103759000D02*
X294767000Y-103378000D01*
X295148000Y-103759000D02*
X295783000Y-103759000D01*
X265303000Y-101346000D02*
X271145000Y-101346000D01*
X300736000Y-108712000D02*
X314960000Y-108712000D01*
X260477000Y-132334000D02*
X265557000Y-132334000D01*
X253111000Y-148844000D02*
X252476000Y-148209000D01*
X257438296Y-135372704D02*
X257556000Y-135255000D01*
X285188590Y-132280590D02*
X284480000Y-131572000D01*
X263144000Y-150095408D02*
X257438296Y-144389704D01*
X247762327Y-149718327D02*
X248636655Y-148844000D01*
X270510000Y-134493000D02*
X271907000Y-134493000D01*
X257438296Y-144389704D02*
X257438296Y-135372704D01*
X257438296Y-145659704D02*
X257438296Y-144389704D01*
X253492000Y-148844000D02*
X253238000Y-148844000D01*
X265557000Y-132334000D02*
X264795000Y-131572000D01*
X254254000Y-148844000D02*
X257438296Y-145659704D01*
X274066000Y-132334000D02*
X274119410Y-132280590D01*
X274119410Y-132280590D02*
X285188590Y-132280590D01*
X253492000Y-148844000D02*
X254254000Y-148844000D01*
X267716000Y-134493000D02*
X270510000Y-134493000D01*
X271780000Y-161036000D02*
X264922000Y-161036000D01*
X257556000Y-135255000D02*
X260477000Y-132334000D01*
X271907000Y-134493000D02*
X274066000Y-132334000D01*
X306197000Y-135255000D02*
X306197000Y-135001000D01*
X253238000Y-148844000D02*
X253111000Y-148844000D01*
X238125000Y-158877000D02*
X238603655Y-158877000D01*
X288417000Y-135509000D02*
X305943000Y-135509000D01*
X273685000Y-162941000D02*
X271780000Y-161036000D01*
X238603655Y-158877000D02*
X247762327Y-149718327D01*
X252984000Y-148844000D02*
X253492000Y-148844000D01*
X264795000Y-131572000D02*
X264668000Y-131572000D01*
X286893000Y-133985000D02*
X288417000Y-135509000D01*
X263144000Y-159258000D02*
X263144000Y-150095408D01*
X265557000Y-132334000D02*
X267716000Y-134493000D01*
X305943000Y-135509000D02*
X306197000Y-135255000D01*
X285188590Y-132280590D02*
X286893000Y-133985000D01*
X248636655Y-148844000D02*
X252984000Y-148844000D01*
X264922000Y-161036000D02*
X263144000Y-159258000D01*
X235099633Y-176565500D02*
X235135133Y-176530000D01*
X239360000Y-176990866D02*
X239360000Y-177003000D01*
X242824000Y-180467000D02*
X244348000Y-180467000D01*
X193167000Y-151892000D02*
X193614040Y-151892000D01*
X235135133Y-176530000D02*
X238899134Y-176530000D01*
X295275000Y-140208000D02*
X288002869Y-140208000D01*
X193614040Y-151892000D02*
X194630040Y-152908000D01*
X238899134Y-176530000D02*
X239360000Y-176990866D01*
X163220627Y-174879000D02*
X162366627Y-175733000D01*
X302133000Y-147066000D02*
X295275000Y-140208000D01*
X239360000Y-177003000D02*
X242824000Y-180467000D01*
X288002869Y-140208000D02*
X286097869Y-142113000D01*
X162366627Y-175733000D02*
X159635801Y-175733000D01*
X286097869Y-142113000D02*
X271780000Y-142113000D01*
X159635801Y-175733000D02*
X158305823Y-174403022D01*
X173849785Y-183896000D02*
X176093399Y-186139614D01*
X169352052Y-180902000D02*
X172346052Y-183896000D01*
X238816000Y-175803500D02*
X236001500Y-175803500D01*
X239359500Y-175260000D02*
X238816000Y-175803500D01*
X172346052Y-183896000D02*
X173849785Y-183896000D01*
X260161086Y-159385000D02*
X261288608Y-158257478D01*
X167821000Y-180902000D02*
X169352052Y-180902000D01*
X165227000Y-178308000D02*
X167821000Y-180902000D01*
X165227000Y-176337385D02*
X165227000Y-178308000D01*
X259080000Y-159385000D02*
X260161086Y-159385000D01*
X238125000Y-175077000D02*
X235047669Y-175077000D01*
X177927000Y-189730948D02*
X186062052Y-197866000D01*
X261149500Y-156654500D02*
X259689000Y-158115000D01*
X187972134Y-197866000D02*
X190671674Y-200565540D01*
X190671674Y-200565540D02*
X190671674Y-201449172D01*
X259689000Y-158115000D02*
X259080000Y-158115000D01*
X172720000Y-178562000D02*
X177927000Y-183769000D01*
X186062052Y-197866000D02*
X187972134Y-197866000D01*
X170191615Y-178562000D02*
X172720000Y-178562000D01*
X167513000Y-175883385D02*
X170191615Y-178562000D01*
X177927000Y-183769000D02*
X177927000Y-189730948D01*
X193487040Y-136525000D02*
X194630040Y-137668000D01*
X156984766Y-167017766D02*
X156984766Y-166611234D01*
X193294000Y-136525000D02*
X193487040Y-136525000D01*
X162814000Y-172847000D02*
X156984766Y-167017766D01*
X236001500Y-177292000D02*
X238633000Y-177292000D01*
X193741040Y-139319000D02*
X194630040Y-140208000D01*
X193294000Y-139319000D02*
X193741040Y-139319000D01*
X162312627Y-171241913D02*
X162236341Y-171241913D01*
X238292957Y-180121464D02*
X236636464Y-180121464D01*
X236636464Y-180121464D02*
X234569000Y-178054000D01*
X162236341Y-171241913D02*
X158184214Y-167189786D01*
X193167000Y-141859000D02*
X193741040Y-141859000D01*
X193741040Y-141859000D02*
X194630040Y-142748000D01*
X197920000Y-195761000D02*
X204143000Y-195761000D01*
X196215000Y-191986500D02*
X196215000Y-194056000D01*
X204143000Y-195761000D02*
X205232000Y-196850000D01*
X196215000Y-194056000D02*
X197920000Y-195761000D01*
X201295000Y-196215000D02*
X201803000Y-196723000D01*
X195671500Y-196215000D02*
X201295000Y-196215000D01*
X191897000Y-192440500D02*
X195671500Y-196215000D01*
M02*
