%TF.GenerationSoftware,KiCad,Pcbnew,6.0.11-3.fc36*%
%TF.CreationDate,2023-03-08T22:01:11-05:00*%
%TF.ProjectId,moth,6d6f7468-2e6b-4696-9361-645f70636258,v1.0.0*%
%TF.SameCoordinates,Original*%
%TF.FileFunction,Soldermask,Bot*%
%TF.FilePolarity,Negative*%
%FSLAX46Y46*%
G04 Gerber Fmt 4.6, Leading zero omitted, Abs format (unit mm)*
G04 Created by KiCad (PCBNEW 6.0.11-3.fc36) date 2023-03-08 22:01:11*
%MOMM*%
%LPD*%
G01*
G04 APERTURE LIST*
G04 Aperture macros list*
%AMRoundRect*
0 Rectangle with rounded corners*
0 $1 Rounding radius*
0 $2 $3 $4 $5 $6 $7 $8 $9 X,Y pos of 4 corners*
0 Add a 4 corners polygon primitive as box body*
4,1,4,$2,$3,$4,$5,$6,$7,$8,$9,$2,$3,0*
0 Add four circle primitives for the rounded corners*
1,1,$1+$1,$2,$3*
1,1,$1+$1,$4,$5*
1,1,$1+$1,$6,$7*
1,1,$1+$1,$8,$9*
0 Add four rect primitives between the rounded corners*
20,1,$1+$1,$2,$3,$4,$5,0*
20,1,$1+$1,$4,$5,$6,$7,0*
20,1,$1+$1,$6,$7,$8,$9,0*
20,1,$1+$1,$8,$9,$2,$3,0*%
%AMRotRect*
0 Rectangle, with rotation*
0 The origin of the aperture is its center*
0 $1 length*
0 $2 width*
0 $3 Rotation angle, in degrees counterclockwise*
0 Add horizontal line*
21,1,$1,$2,0,0,$3*%
G04 Aperture macros list end*
%ADD10RoundRect,0.250000X0.750000X-0.250000X0.750000X0.250000X-0.750000X0.250000X-0.750000X-0.250000X0*%
%ADD11RoundRect,0.250000X-0.750000X0.250000X-0.750000X-0.250000X0.750000X-0.250000X0.750000X0.250000X0*%
%ADD12RoundRect,0.250000X0.625000X-0.350000X0.625000X0.350000X-0.625000X0.350000X-0.625000X-0.350000X0*%
%ADD13O,1.750000X1.200000*%
%ADD14RoundRect,0.300000X0.575000X-0.300000X0.575000X0.300000X-0.575000X0.300000X-0.575000X-0.300000X0*%
%ADD15C,3.400000*%
%ADD16C,3.000000*%
%ADD17C,1.700000*%
%ADD18C,2.000000*%
%ADD19RotRect,2.600000X2.600000X205.000000*%
%ADD20RotRect,0.900000X1.200000X335.000000*%
%ADD21RotRect,2.600000X2.600000X155.000000*%
%ADD22RotRect,0.900000X1.200000X343.000000*%
%ADD23RotRect,2.600000X2.600000X200.000000*%
%ADD24RotRect,2.600000X2.600000X160.000000*%
%ADD25RotRect,0.900000X1.200000X25.000000*%
%ADD26RotRect,0.900000X1.200000X20.000000*%
%ADD27RotRect,0.900000X1.200000X49.000000*%
%ADD28C,1.397000*%
%ADD29RotRect,2.600000X2.600000X131.000000*%
%ADD30RotRect,2.600000X2.600000X217.000000*%
%ADD31RotRect,2.600000X2.600000X163.000000*%
%ADD32RotRect,0.900000X1.200000X340.000000*%
%ADD33RotRect,0.900000X1.200000X311.000000*%
%ADD34RotRect,0.900000X1.200000X17.000000*%
%ADD35RotRect,0.900000X1.200000X323.000000*%
%ADD36RotRect,2.600000X2.600000X143.000000*%
%ADD37RotRect,0.900000X1.200000X37.000000*%
%ADD38RotRect,2.600000X2.600000X197.000000*%
%ADD39RotRect,2.600000X2.600000X229.000000*%
%ADD40C,0.900000*%
%ADD41R,1.000000X0.800000*%
%ADD42R,0.700000X1.500000*%
G04 APERTURE END LIST*
G36*
X198901051Y-168033801D02*
G01*
X198979067Y-168144561D01*
X199068119Y-168344114D01*
X199149185Y-168518002D01*
X199347899Y-168848278D01*
X199621424Y-169242111D01*
X199946229Y-169667730D01*
X200298783Y-170093368D01*
X200655557Y-170487258D01*
X201144814Y-170999355D01*
X200596614Y-170999355D01*
X200391299Y-171004255D01*
X199915311Y-171070946D01*
X199580010Y-171218804D01*
X199383081Y-171451777D01*
X199322209Y-171773815D01*
X199395081Y-172188867D01*
X199599380Y-172700882D01*
X199658765Y-172819510D01*
X199883711Y-173192371D01*
X200181384Y-173578103D01*
X200582306Y-174017594D01*
X201282111Y-174743531D01*
X201109821Y-174899346D01*
X201073978Y-174934931D01*
X200918473Y-175134731D01*
X200773843Y-175375886D01*
X200670903Y-175660280D01*
X200668162Y-176041564D01*
X200822558Y-176404493D01*
X201130235Y-176741158D01*
X201587333Y-177043647D01*
X201834627Y-177162388D01*
X202155095Y-177286728D01*
X202414333Y-177356384D01*
X202503636Y-177371322D01*
X202685281Y-177407095D01*
X202757549Y-177430301D01*
X202737500Y-177458535D01*
X202633639Y-177577331D01*
X202470907Y-177753265D01*
X202313902Y-177938456D01*
X202138053Y-178267698D01*
X202123170Y-178575783D01*
X202270011Y-178872609D01*
X202579334Y-179168075D01*
X202818834Y-179318183D01*
X203161949Y-179483599D01*
X203513083Y-179613705D01*
X203530353Y-179618942D01*
X203850370Y-179707920D01*
X204092456Y-179746216D01*
X204329465Y-179738842D01*
X204634249Y-179690806D01*
X205176315Y-179561486D01*
X205679900Y-179365656D01*
X206052367Y-179124752D01*
X206283406Y-178845664D01*
X206362710Y-178535284D01*
X206317241Y-178276364D01*
X206134980Y-177945479D01*
X205839963Y-177648998D01*
X205460856Y-177414106D01*
X205026329Y-177267990D01*
X204796078Y-177220855D01*
X204998904Y-176979810D01*
X205054942Y-176909087D01*
X205232842Y-176559211D01*
X205248407Y-176212954D01*
X205102813Y-175878568D01*
X204797235Y-175564308D01*
X204539480Y-175362585D01*
X204716948Y-175185117D01*
X204758550Y-175141211D01*
X204976277Y-174780378D01*
X205051742Y-174353376D01*
X205064819Y-174184110D01*
X205096620Y-174112903D01*
X205104954Y-174115204D01*
X205219735Y-174169842D01*
X205443129Y-174286204D01*
X205747395Y-174449636D01*
X206104791Y-174645484D01*
X206178496Y-174685965D01*
X206543427Y-174878533D01*
X206862916Y-175034840D01*
X207104760Y-175139733D01*
X207236760Y-175178065D01*
X207283401Y-175169639D01*
X207416600Y-175075818D01*
X207591651Y-174865388D01*
X207822650Y-174522581D01*
X207929132Y-174359754D01*
X208108174Y-174106507D01*
X208249821Y-173932062D01*
X208330317Y-173867097D01*
X208359503Y-173871738D01*
X208376798Y-173938242D01*
X208368793Y-174004237D01*
X208391244Y-174195033D01*
X208446803Y-174450339D01*
X208495966Y-174616266D01*
X208647244Y-174920635D01*
X208895219Y-175188845D01*
X209033816Y-175315336D01*
X209145925Y-175441170D01*
X209160017Y-175523581D01*
X209093492Y-175598523D01*
X209049888Y-175635777D01*
X208759613Y-175967571D01*
X208564450Y-176345748D01*
X208493033Y-176716974D01*
X208508856Y-176949844D01*
X208587791Y-177144559D01*
X208767327Y-177342892D01*
X209041621Y-177601584D01*
X208890230Y-177883869D01*
X208885702Y-177892369D01*
X208759346Y-178253524D01*
X208789025Y-178568498D01*
X208976092Y-178841020D01*
X209321898Y-179074820D01*
X209594828Y-179197753D01*
X209997917Y-179306089D01*
X210424804Y-179318030D01*
X210933799Y-179239535D01*
X211380584Y-179129633D01*
X211711993Y-179007588D01*
X211967344Y-178853669D01*
X212190602Y-178647154D01*
X212322496Y-178495418D01*
X212531815Y-178165554D01*
X212590286Y-177868665D01*
X212498891Y-177585223D01*
X212258615Y-177295701D01*
X212117460Y-177170790D01*
X211930145Y-177033864D01*
X211807970Y-176980645D01*
X211804761Y-176980632D01*
X211705433Y-176946075D01*
X211716843Y-176837908D01*
X211843846Y-176645465D01*
X212091295Y-176358079D01*
X212383204Y-175993236D01*
X212609940Y-175576511D01*
X212699457Y-175195200D01*
X212649003Y-174862642D01*
X212455823Y-174592176D01*
X212345973Y-174517448D01*
X212065651Y-174398472D01*
X211731730Y-174311347D01*
X211414180Y-174277231D01*
X211180811Y-174276774D01*
X211358658Y-174010484D01*
X211688777Y-173432564D01*
X211917352Y-172837627D01*
X212022768Y-172273875D01*
X211997106Y-171769112D01*
X211890368Y-171478644D01*
X211674947Y-171144891D01*
X211402335Y-170857324D01*
X211118259Y-170672976D01*
X211032831Y-170634553D01*
X210916529Y-170547536D01*
X210884154Y-170422668D01*
X210932958Y-170224115D01*
X211060191Y-169916046D01*
X211135873Y-169737334D01*
X211243007Y-169458160D01*
X211309429Y-169250776D01*
X211382587Y-169085452D01*
X211491475Y-169065525D01*
X211569799Y-169110586D01*
X211775609Y-169237652D01*
X212095123Y-169438393D01*
X212515898Y-169704888D01*
X213025489Y-170029216D01*
X213611453Y-170403456D01*
X214261346Y-170819687D01*
X214962725Y-171269987D01*
X215703145Y-171746437D01*
X219790976Y-174379826D01*
X219846704Y-174825857D01*
X219884585Y-175329019D01*
X219863400Y-175964574D01*
X219767874Y-176541192D01*
X219603125Y-177012936D01*
X219377965Y-177473147D01*
X219964939Y-178123212D01*
X220551914Y-178773276D01*
X220465533Y-179328120D01*
X220283104Y-180028859D01*
X219953707Y-180683566D01*
X219487843Y-181259687D01*
X218891858Y-181752016D01*
X218172097Y-182155347D01*
X217334907Y-182464476D01*
X216386633Y-182674195D01*
X216308460Y-182687651D01*
X216150825Y-182734474D01*
X216026591Y-182825621D01*
X215899194Y-182994660D01*
X215732072Y-183275161D01*
X215493421Y-183637409D01*
X215134540Y-184078741D01*
X214729094Y-184498131D01*
X214317508Y-184854277D01*
X213940209Y-185105876D01*
X213726125Y-185212856D01*
X213100297Y-185438542D01*
X212420668Y-185552888D01*
X211647549Y-185563823D01*
X211160685Y-185532489D01*
X210789018Y-185476272D01*
X210510362Y-185376993D01*
X210288916Y-185215852D01*
X210088880Y-184974052D01*
X209874453Y-184632795D01*
X209853167Y-184596440D01*
X209620062Y-184184520D01*
X209372395Y-183727435D01*
X209160334Y-183317580D01*
X208826406Y-182649032D01*
X208516332Y-182686679D01*
X208515598Y-182686768D01*
X208275080Y-182713593D01*
X207943261Y-182747682D01*
X207591742Y-182781680D01*
X206977226Y-182839032D01*
X206923584Y-183926189D01*
X206905008Y-184262097D01*
X206851373Y-184910841D01*
X206775293Y-185421430D01*
X206669080Y-185811414D01*
X206525047Y-186098344D01*
X206335508Y-186299770D01*
X206092775Y-186433244D01*
X205789162Y-186516317D01*
X205745183Y-186523033D01*
X205479453Y-186536631D01*
X205108765Y-186530424D01*
X204679045Y-186507394D01*
X204236221Y-186470528D01*
X203826220Y-186422810D01*
X203494968Y-186367224D01*
X202932340Y-186228347D01*
X202385211Y-186032782D01*
X201944120Y-185791404D01*
X201578263Y-185490117D01*
X201381724Y-185303084D01*
X201200930Y-185167839D01*
X201034401Y-185106623D01*
X200831093Y-185092258D01*
X200771322Y-185090858D01*
X200491810Y-185068607D01*
X200132917Y-185024890D01*
X199757153Y-184966999D01*
X198647028Y-184734261D01*
X197570977Y-184408412D01*
X196638916Y-184008251D01*
X195851541Y-183534139D01*
X195209550Y-182986434D01*
X194713637Y-182365495D01*
X194616052Y-182209578D01*
X194539930Y-182055688D01*
X194504748Y-181898974D01*
X194507651Y-181699843D01*
X194545781Y-181418705D01*
X194616283Y-181015968D01*
X194624345Y-180967021D01*
X194624857Y-180799568D01*
X194552635Y-180750028D01*
X194545835Y-180749645D01*
X194406676Y-180694105D01*
X194175135Y-180560123D01*
X193883476Y-180370195D01*
X193563964Y-180146814D01*
X193248863Y-179912475D01*
X192970438Y-179689672D01*
X192760953Y-179500900D01*
X192678956Y-179416409D01*
X192339175Y-178975990D01*
X192135896Y-178507074D01*
X192047874Y-177963871D01*
X192014366Y-177431290D01*
X195413864Y-172736407D01*
X195845966Y-172140241D01*
X196389227Y-171392443D01*
X196899141Y-170692479D01*
X197367889Y-170050979D01*
X197787655Y-169478576D01*
X198150620Y-168985900D01*
X198448967Y-168583585D01*
X198674878Y-168282261D01*
X198820536Y-168092561D01*
X198878122Y-168025117D01*
X198901051Y-168033801D01*
G37*
G36*
X199247122Y-159686119D02*
G01*
X200253838Y-159791857D01*
X201221277Y-160033920D01*
X202127107Y-160403616D01*
X202948996Y-160892254D01*
X203664614Y-161491145D01*
X203837800Y-161670599D01*
X204108193Y-161979309D01*
X204329519Y-162266232D01*
X204465952Y-162486854D01*
X204645361Y-162864353D01*
X205196777Y-162916433D01*
X205455624Y-162936815D01*
X205895573Y-162959879D01*
X206293556Y-162969095D01*
X206838919Y-162969678D01*
X206966288Y-162595870D01*
X207120781Y-162250209D01*
X207455934Y-161756346D01*
X207903351Y-161279511D01*
X208434770Y-160848621D01*
X209021929Y-160492592D01*
X209375422Y-160332887D01*
X209927748Y-160131827D01*
X210534788Y-159953065D01*
X211135482Y-159816144D01*
X211375403Y-159777236D01*
X211762414Y-159733740D01*
X212171702Y-159705101D01*
X212572383Y-159691601D01*
X212933573Y-159693525D01*
X213224385Y-159711157D01*
X213413935Y-159744780D01*
X213471337Y-159794678D01*
X213385156Y-159911549D01*
X213175644Y-160104931D01*
X212863784Y-160356543D01*
X212469180Y-160652891D01*
X212011439Y-160980482D01*
X211510165Y-161325824D01*
X210984964Y-161675424D01*
X210455441Y-162015788D01*
X209941201Y-162333424D01*
X209461850Y-162614838D01*
X209036993Y-162846538D01*
X208172909Y-163293620D01*
X208702394Y-163742815D01*
X209231879Y-164192009D01*
X208923908Y-164277398D01*
X208647816Y-164369048D01*
X208173050Y-164628553D01*
X207833317Y-164980284D01*
X207629400Y-165423275D01*
X207562083Y-165956560D01*
X207570372Y-166170051D01*
X207608071Y-166501393D01*
X207665735Y-166759194D01*
X207677367Y-166793598D01*
X207758958Y-166976037D01*
X207873078Y-167051561D01*
X208082502Y-167066452D01*
X208237828Y-167072120D01*
X208582665Y-167110393D01*
X208966409Y-167177395D01*
X209355542Y-167264447D01*
X209716547Y-167362870D01*
X210015905Y-167463982D01*
X210220100Y-167559106D01*
X210295613Y-167639560D01*
X210293566Y-167657762D01*
X210222552Y-167814842D01*
X210068066Y-168053369D01*
X209854460Y-168341714D01*
X209606084Y-168648249D01*
X209347289Y-168941342D01*
X209102428Y-169189366D01*
X208581129Y-169616530D01*
X207867943Y-170033997D01*
X207118021Y-170298565D01*
X206738558Y-170370586D01*
X205932352Y-170408339D01*
X205092710Y-170303553D01*
X204953568Y-170270593D01*
X204445375Y-170102463D01*
X203884646Y-169859980D01*
X203324359Y-169569870D01*
X202817491Y-169258861D01*
X202417021Y-168953679D01*
X202387498Y-168927097D01*
X202118952Y-168659937D01*
X201864268Y-168367222D01*
X201649765Y-168083470D01*
X201501764Y-167843199D01*
X201446581Y-167680926D01*
X201446583Y-167680561D01*
X201519550Y-167589980D01*
X201710400Y-167473418D01*
X201979476Y-167349195D01*
X202287121Y-167235630D01*
X202593678Y-167151043D01*
X202630440Y-167143291D01*
X203206542Y-167077651D01*
X203836168Y-167091882D01*
X204436550Y-167184483D01*
X204667391Y-167232937D01*
X204873756Y-167262781D01*
X204969131Y-167258122D01*
X204980035Y-167219456D01*
X204995853Y-167045552D01*
X205006730Y-166767942D01*
X205010775Y-166424435D01*
X205008331Y-166113710D01*
X204992735Y-165824101D01*
X204953736Y-165607348D01*
X204881194Y-165412459D01*
X204764968Y-165188443D01*
X204699744Y-165079703D01*
X204439061Y-164740948D01*
X204150452Y-164471885D01*
X204000301Y-164372979D01*
X203635084Y-164186530D01*
X203223386Y-164025965D01*
X202825848Y-163913404D01*
X202503112Y-163870968D01*
X202451772Y-163870187D01*
X202304040Y-163845544D01*
X202296255Y-163781149D01*
X202432503Y-163670009D01*
X202716868Y-163505132D01*
X202928274Y-163385701D01*
X203099497Y-163276846D01*
X203163945Y-163218358D01*
X203142946Y-163198488D01*
X203006378Y-163118755D01*
X202771016Y-162998426D01*
X202469985Y-162854853D01*
X202052488Y-162647540D01*
X201416804Y-162293536D01*
X200734179Y-161877018D01*
X200047826Y-161424625D01*
X199400960Y-160962996D01*
X199145119Y-160766951D01*
X198788766Y-160475766D01*
X198487286Y-160207983D01*
X198259989Y-159981989D01*
X198126183Y-159816176D01*
X198105177Y-159728931D01*
X198164122Y-159713845D01*
X198359798Y-159697010D01*
X198655812Y-159685770D01*
X199015787Y-159682000D01*
X199247122Y-159686119D01*
G37*
D10*
X204216000Y-154813000D03*
X199517000Y-154813000D03*
D11*
X203327000Y-147955000D03*
D12*
X216431000Y-147415000D03*
D13*
X216431000Y-145415000D03*
D14*
X216431000Y-143415000D03*
D15*
X249284969Y-103903793D03*
D16*
X246359379Y-109460854D03*
D17*
X244300276Y-106228193D03*
X254269662Y-101579393D03*
D16*
X251778417Y-109251009D03*
D18*
X246791521Y-98556577D03*
D19*
X255018467Y-107740149D03*
D18*
X252210559Y-98346732D03*
D19*
X243119329Y-110971714D03*
D20*
X125977727Y-131753942D03*
X122986912Y-130359302D03*
D17*
X164217696Y-118249600D03*
D16*
X166708941Y-125921216D03*
X163064901Y-121904878D03*
D15*
X169202389Y-120574000D03*
D17*
X174187082Y-122898400D03*
D18*
X171695837Y-115226784D03*
D21*
X169948992Y-127432076D03*
X159824850Y-120394018D03*
D18*
X175339877Y-119243122D03*
D22*
X135927029Y-165985219D03*
X132771223Y-165020393D03*
D15*
X305014343Y-138080360D03*
D16*
X301615556Y-143361293D03*
X307032262Y-143624546D03*
D17*
X310182652Y-136199249D03*
X299846034Y-139961471D03*
D23*
X310391663Y-142401824D03*
D18*
X302996424Y-132536174D03*
D23*
X298256155Y-144584015D03*
D18*
X308413130Y-132799427D03*
D17*
X157153028Y-178058300D03*
D16*
X149674887Y-181081116D03*
D17*
X147183642Y-173409500D03*
D16*
X146030847Y-177064778D03*
D15*
X152168335Y-175733900D03*
D21*
X152914938Y-182591976D03*
D18*
X154661783Y-170386684D03*
D21*
X142790796Y-175553918D03*
D18*
X158305823Y-174403022D03*
D16*
X89977715Y-116794946D03*
D15*
X91995634Y-111250760D03*
D16*
X85997494Y-113111491D03*
D17*
X86827325Y-109369649D03*
X97163943Y-113131871D03*
D24*
X93337116Y-118017668D03*
D18*
X94013553Y-105706574D03*
X97993774Y-109390029D03*
D24*
X82638093Y-111888769D03*
D25*
X249168321Y-99986027D03*
X246177505Y-101380667D03*
D15*
X320218709Y-127225534D03*
D16*
X322236628Y-132769720D03*
X316819922Y-132506467D03*
D17*
X325387018Y-125344423D03*
X315050400Y-129106645D03*
D18*
X318200790Y-121681348D03*
D23*
X325596029Y-131546998D03*
X313460521Y-133729189D03*
D18*
X323617496Y-121944601D03*
D25*
X229219788Y-142389518D03*
X226228972Y-143784158D03*
D26*
X305239594Y-134167336D03*
X302138608Y-135296002D03*
D17*
X154915214Y-121635426D03*
D16*
X147437073Y-124658242D03*
D17*
X144945828Y-116986626D03*
D16*
X143793033Y-120641904D03*
D15*
X149930521Y-119311026D03*
D18*
X152423969Y-113963810D03*
D21*
X150677124Y-126169102D03*
D18*
X156068009Y-117980148D03*
D21*
X140552982Y-119131044D03*
D27*
X220176456Y-196637036D03*
X218011461Y-199127577D03*
D20*
X172805256Y-159106867D03*
X169814441Y-157712227D03*
D25*
X276047318Y-115036593D03*
X273056502Y-116431233D03*
D28*
X201930000Y-136716000D03*
X204470000Y-136716000D03*
X201930000Y-139256000D03*
X204470000Y-139256000D03*
X198755000Y-144971000D03*
X198755000Y-143066000D03*
X207010000Y-154496000D03*
X208915000Y-154496000D03*
D25*
X283231828Y-130443826D03*
X280241012Y-131838466D03*
D20*
X133162237Y-116346709D03*
X130171422Y-114952069D03*
D17*
X304368309Y-120224474D03*
D16*
X295801213Y-127386518D03*
X301217919Y-127649771D03*
D15*
X299200000Y-122105585D03*
D17*
X294031691Y-123986696D03*
D18*
X297182081Y-116561399D03*
D23*
X304577320Y-126427049D03*
X292441812Y-128609240D03*
D18*
X302598787Y-116824652D03*
D20*
X164944081Y-133373582D03*
X161953266Y-131978942D03*
D25*
X256352831Y-115393260D03*
X253362015Y-116787900D03*
D17*
X188131807Y-204319551D03*
D15*
X184523482Y-200168648D03*
D17*
X180915157Y-196017745D03*
D16*
X178375290Y-198888124D03*
X180070695Y-204039396D03*
D29*
X182416107Y-206737483D03*
D18*
X188976269Y-196297900D03*
X190671674Y-201449172D03*
D29*
X176029879Y-196190038D03*
D17*
X251484787Y-121635426D03*
X261454173Y-116986626D03*
D16*
X253543890Y-124868087D03*
X258962928Y-124658242D03*
D15*
X256469480Y-119311026D03*
D19*
X262202978Y-123147382D03*
D18*
X253976032Y-113963810D03*
X259395070Y-113753965D03*
D19*
X250303840Y-126378947D03*
D17*
X227136619Y-128575652D03*
D16*
X219226336Y-136457113D03*
D15*
X222151926Y-130900052D03*
D16*
X224645374Y-136247268D03*
D17*
X217167233Y-133224452D03*
D19*
X227885424Y-134736408D03*
D18*
X219658478Y-125552836D03*
D19*
X215986286Y-137967973D03*
D18*
X225077516Y-125342991D03*
D15*
X169879054Y-161714517D03*
D16*
X167385606Y-167061733D03*
D17*
X174863747Y-164038917D03*
X164894361Y-159390117D03*
D16*
X163741566Y-163045395D03*
D18*
X172372502Y-156367301D03*
D21*
X170625657Y-168572593D03*
D18*
X176016542Y-160383639D03*
D21*
X160501515Y-161534535D03*
D16*
X240137386Y-190877304D03*
D17*
X240979172Y-182855371D03*
D15*
X236586677Y-186165354D03*
D17*
X232194182Y-189475337D03*
D16*
X234880397Y-192209244D03*
D18*
X233035968Y-181453404D03*
D30*
X242992508Y-188725815D03*
X232025275Y-194360733D03*
D18*
X238292957Y-180121464D03*
D16*
X174570116Y-151654500D03*
X170926076Y-147638162D03*
D17*
X182048257Y-148631684D03*
D15*
X177063564Y-146307284D03*
D17*
X172078871Y-143982884D03*
D18*
X179557012Y-140960068D03*
D21*
X177810167Y-153165360D03*
D18*
X183201052Y-144976406D03*
D21*
X167686025Y-146127302D03*
D15*
X107200000Y-122105585D03*
D16*
X101201860Y-123966316D03*
D17*
X102031691Y-120224474D03*
D16*
X105182081Y-127649771D03*
D17*
X112368309Y-123986696D03*
D24*
X108541482Y-128872493D03*
D18*
X109217919Y-116561399D03*
X113198140Y-120244854D03*
D24*
X97842459Y-122743594D03*
D17*
X128132542Y-167366696D03*
X138651894Y-170582784D03*
D16*
X131667225Y-174616938D03*
X127499682Y-171146840D03*
D15*
X133392218Y-168974740D03*
D18*
X135117211Y-163332542D03*
D31*
X135086014Y-175662167D03*
X124080892Y-170101611D03*
D18*
X139284754Y-166802640D03*
D16*
X233595357Y-167271578D03*
D15*
X236520947Y-161714517D03*
D16*
X239014395Y-167061733D03*
D17*
X231536254Y-164038917D03*
X241505640Y-159390117D03*
D19*
X242254445Y-165550873D03*
D18*
X234027499Y-156367301D03*
X239446537Y-156157456D03*
D19*
X230355307Y-168782438D03*
D25*
X222035278Y-126982286D03*
X219044462Y-128376926D03*
D17*
X298553967Y-104249700D03*
D15*
X293385658Y-106130811D03*
D16*
X289986871Y-111411744D03*
X295403577Y-111674997D03*
D17*
X288217349Y-108011922D03*
D18*
X291367739Y-100586625D03*
D23*
X298762978Y-110452275D03*
X286627470Y-112634466D03*
D18*
X296784445Y-100849878D03*
D26*
X299425252Y-118192561D03*
X296324266Y-119321227D03*
D16*
X251306076Y-181290961D03*
D17*
X259216359Y-173409500D03*
D15*
X254231666Y-175733900D03*
D17*
X249246973Y-178058300D03*
D16*
X256725114Y-181081116D03*
D19*
X259965164Y-179570256D03*
D18*
X251738218Y-170386684D03*
D19*
X248066026Y-182801821D03*
D18*
X257157256Y-170176839D03*
D20*
X179989766Y-143699634D03*
X176998951Y-142304994D03*
D32*
X94683430Y-108397997D03*
X91582444Y-107269331D03*
D20*
X172128591Y-117966350D03*
X169137776Y-116571710D03*
D15*
X157115031Y-103903793D03*
D16*
X150977543Y-105234671D03*
D17*
X152130338Y-101579393D03*
X162099724Y-106228193D03*
D16*
X154621583Y-109251009D03*
D18*
X159608479Y-98556577D03*
D21*
X157861634Y-110761869D03*
X147737492Y-103723811D03*
D18*
X163252519Y-102572915D03*
D32*
X115702139Y-103278049D03*
X112601153Y-102149383D03*
D33*
X188257327Y-198976635D03*
X186092333Y-196486094D03*
D15*
X130236035Y-118954359D03*
D17*
X125251342Y-116629959D03*
X135220728Y-121278759D03*
D16*
X127742587Y-124301575D03*
X124098547Y-120285237D03*
D18*
X132729483Y-113607143D03*
D21*
X130982638Y-125812435D03*
X120858496Y-118774377D03*
D18*
X136373523Y-117623481D03*
D25*
X236404299Y-157796751D03*
X233413483Y-159191391D03*
D20*
X152856723Y-116703376D03*
X149865908Y-115308736D03*
D17*
X288333169Y-132037191D03*
D16*
X285841924Y-139708807D03*
D17*
X278363783Y-136685991D03*
D16*
X280422886Y-139918652D03*
D15*
X283348476Y-134361591D03*
D18*
X280855028Y-129014375D03*
D19*
X289081974Y-138197947D03*
D18*
X286274066Y-128804530D03*
D19*
X277182836Y-141429512D03*
D15*
X162017879Y-135981232D03*
D16*
X155880391Y-137312110D03*
D17*
X157033186Y-133656832D03*
D16*
X159524431Y-141328448D03*
D17*
X167002572Y-138305632D03*
D18*
X164511327Y-130634016D03*
D21*
X162764482Y-142839308D03*
D18*
X168155367Y-134650354D03*
D21*
X152640340Y-135801250D03*
D34*
X273437517Y-165078867D03*
X270281711Y-166043694D03*
D20*
X155094537Y-173126250D03*
X152103722Y-171731610D03*
D17*
X232212919Y-122898400D03*
D16*
X234272022Y-126131061D03*
X239691060Y-125921216D03*
D17*
X242182305Y-118249600D03*
D15*
X237197612Y-120574000D03*
D18*
X234704164Y-115226784D03*
D19*
X242931110Y-124410356D03*
X231031972Y-127641921D03*
D18*
X240123202Y-115016939D03*
D17*
X142405238Y-105871527D03*
D16*
X131283057Y-104878005D03*
D17*
X132435852Y-101222727D03*
D16*
X134927097Y-108894343D03*
D15*
X137420545Y-103547127D03*
D21*
X138167148Y-110405203D03*
D18*
X139913993Y-98199911D03*
X143558033Y-102216249D03*
D21*
X128043006Y-103367145D03*
D16*
X178110586Y-132230930D03*
D15*
X184248074Y-130900052D03*
D16*
X181754626Y-136247268D03*
D17*
X189232767Y-133224452D03*
X179263381Y-128575652D03*
D21*
X184994677Y-137758128D03*
D18*
X186741522Y-125552836D03*
D21*
X174870535Y-130720070D03*
D18*
X190385562Y-129569174D03*
D15*
X142746011Y-134718258D03*
D16*
X136608523Y-136049136D03*
D17*
X137761318Y-132393858D03*
X147730704Y-137042658D03*
D16*
X140252563Y-140065474D03*
D21*
X143492614Y-141576334D03*
D18*
X145239459Y-129371042D03*
X148883499Y-133387380D03*
D21*
X133368472Y-134538276D03*
D35*
X173217743Y-184223080D03*
X170582246Y-182237091D03*
D16*
X311005580Y-116531693D03*
X316422286Y-116794946D03*
D17*
X309236058Y-113131871D03*
D15*
X314404367Y-111250760D03*
D17*
X319572676Y-109369649D03*
D18*
X312386448Y-105706574D03*
D23*
X319781687Y-115572224D03*
X307646179Y-117754415D03*
D18*
X317803154Y-105969827D03*
D16*
X166262615Y-190877304D03*
X163533249Y-186191094D03*
D15*
X169813324Y-186165354D03*
D17*
X165420829Y-182855371D03*
X174205819Y-189475337D03*
D18*
X173364033Y-181453404D03*
D36*
X169117737Y-193028792D03*
X160678127Y-184039605D03*
D18*
X176093399Y-186139614D03*
D16*
X120558076Y-139708807D03*
D17*
X128036217Y-136685991D03*
X118066831Y-132037191D03*
D16*
X116914036Y-135692469D03*
D15*
X123051524Y-134361591D03*
D21*
X123798127Y-141219667D03*
D18*
X125544972Y-129014375D03*
X129189012Y-133030713D03*
D21*
X113673985Y-134181609D03*
D32*
X88869088Y-124372772D03*
X85768102Y-123244106D03*
D20*
X160041234Y-101296143D03*
X157050419Y-99901503D03*
D37*
X235658028Y-182357454D03*
X233022531Y-184343443D03*
D32*
X104073454Y-135227598D03*
X100972468Y-134098932D03*
D17*
X281148659Y-116629959D03*
D16*
X273238376Y-124511420D03*
X278657414Y-124301575D03*
D15*
X276163966Y-118954359D03*
D17*
X271179273Y-121278759D03*
D19*
X281897464Y-122790715D03*
D18*
X273670518Y-113607143D03*
X279089556Y-113397298D03*
D19*
X269998326Y-126022280D03*
D15*
X268979456Y-103547127D03*
D16*
X266053866Y-109104188D03*
X271472904Y-108894343D03*
D17*
X273964149Y-101222727D03*
X263994763Y-105871527D03*
D18*
X266486008Y-98199911D03*
D19*
X274712954Y-107383483D03*
D18*
X271905046Y-97990066D03*
D19*
X262813816Y-110615048D03*
D25*
X268862807Y-99629361D03*
X265871991Y-101024001D03*
X254115018Y-171816134D03*
X251124202Y-173210774D03*
X251449984Y-147470699D03*
X248459168Y-148865339D03*
D17*
X149848675Y-149064065D03*
D15*
X154833368Y-151388465D03*
D16*
X148695880Y-152719343D03*
D17*
X159818061Y-153712865D03*
D16*
X152339920Y-156735681D03*
D21*
X155579971Y-158246541D03*
D18*
X157326816Y-146041249D03*
X160970856Y-150057587D03*
D21*
X145455829Y-151208483D03*
D26*
X314629618Y-107337735D03*
X311528632Y-108466401D03*
X320443961Y-123312510D03*
X317342975Y-124441176D03*
D17*
X278267459Y-167366696D03*
X267748107Y-170582784D03*
D16*
X269337272Y-174070557D03*
X274732776Y-174616938D03*
D15*
X273007783Y-168974740D03*
D18*
X271282790Y-163332542D03*
D38*
X278151566Y-173571709D03*
X265918482Y-175115785D03*
D18*
X276678294Y-163878923D03*
D25*
X244265474Y-132063466D03*
X241274658Y-133458106D03*
D26*
X293610909Y-102217787D03*
X290509923Y-103346453D03*
D20*
X140346748Y-100939477D03*
X137355933Y-99544837D03*
D17*
X249366815Y-133656832D03*
X239397429Y-138305632D03*
D15*
X244382122Y-135981232D03*
D16*
X246875570Y-141328448D03*
X241456532Y-141538293D03*
D18*
X241888674Y-130634016D03*
D19*
X250115620Y-139817588D03*
X238216482Y-143049153D03*
D18*
X247307712Y-130424171D03*
D15*
X113014343Y-106130811D03*
D17*
X107846034Y-104249700D03*
D16*
X107016203Y-107991542D03*
X110996424Y-111674997D03*
D17*
X118182652Y-108011922D03*
D24*
X114355825Y-112897719D03*
D18*
X115032262Y-100586625D03*
X119012483Y-104270080D03*
D24*
X103656802Y-106768820D03*
D17*
X256551325Y-149064065D03*
D16*
X248641042Y-156945526D03*
X254060080Y-156735681D03*
D17*
X246581939Y-153712865D03*
D15*
X251566632Y-151388465D03*
D18*
X249073184Y-146041249D03*
D19*
X257300130Y-155224821D03*
D18*
X254492222Y-145831404D03*
D19*
X245400992Y-158456386D03*
D20*
X145672213Y-132110608D03*
X142681398Y-130715968D03*
X187174277Y-128292402D03*
X184183462Y-126897762D03*
X157759571Y-148780815D03*
X154768756Y-147386175D03*
D17*
X234321130Y-143982884D03*
X224351744Y-148631684D03*
D16*
X231829885Y-151654500D03*
X226410847Y-151864345D03*
D15*
X229336437Y-146307284D03*
D19*
X235069935Y-150143640D03*
D18*
X226842989Y-140960068D03*
D19*
X223170797Y-153375205D03*
D18*
X232262027Y-140750223D03*
D16*
X99367739Y-143624546D03*
D15*
X101385658Y-138080360D03*
D16*
X95387518Y-139941091D03*
D17*
X96217349Y-136199249D03*
X106553967Y-139961471D03*
D18*
X103403577Y-132536174D03*
D24*
X102727140Y-144847268D03*
X92028117Y-138718369D03*
D18*
X107383798Y-136219629D03*
D25*
X237080963Y-116656234D03*
X234090147Y-118050874D03*
D15*
X221876519Y-200168648D03*
D16*
X226329306Y-204039396D03*
D17*
X218268194Y-204319551D03*
X225484844Y-196017745D03*
D16*
X221464120Y-206435220D03*
D39*
X228674717Y-201341310D03*
D18*
X217423732Y-196297900D03*
D39*
X219118709Y-209133307D03*
D18*
X222288918Y-193902076D03*
D17*
X81012982Y-125344423D03*
D16*
X80183151Y-129086265D03*
D17*
X91349600Y-129106645D03*
D16*
X84163372Y-132769720D03*
D15*
X86181291Y-127225534D03*
D18*
X88199210Y-121681348D03*
D24*
X87522773Y-133992442D03*
X76823750Y-127863543D03*
D18*
X92179431Y-125364803D03*
D25*
X263537342Y-130800492D03*
X260546526Y-132195132D03*
D17*
X268638683Y-132393858D03*
D16*
X260728400Y-140275319D03*
D17*
X258669297Y-137042658D03*
D15*
X263653990Y-134718258D03*
D16*
X266147438Y-140065474D03*
D18*
X261160542Y-129371042D03*
D19*
X269387488Y-138554614D03*
X257488350Y-141786179D03*
D18*
X266579580Y-129161197D03*
D32*
X109887797Y-119252823D03*
X106786811Y-118124157D03*
D40*
X201700000Y-200228000D03*
D41*
X199550000Y-201328000D03*
X206850000Y-199118000D03*
X206850000Y-201328000D03*
X199550000Y-199118000D03*
D40*
X204700000Y-200228000D03*
D42*
X205450000Y-198468000D03*
X202450000Y-198468000D03*
X200950000Y-198468000D03*
M02*
