M48
; DRILL file {KiCad 6.0.11-3.fc36} date Wed 08 Mar 2023 10:01:14 PM EST
; FORMAT={-:-/ absolute / metric / decimal}
; #@! TF.CreationDate,2023-03-08T22:01:14-05:00
; #@! TF.GenerationSoftware,Kicad,Pcbnew,6.0.11-3.fc36
; #@! TF.FileFunction,NonPlated,1,2,NPTH
FMAT,2
METRIC
; #@! TA.AperFunction,NonPlated,NPTH,ComponentDrill
T1C0.900
; #@! TA.AperFunction,NonPlated,NPTH,ComponentDrill
T2C1.700
; #@! TA.AperFunction,NonPlated,NPTH,ComponentDrill
T3C3.000
; #@! TA.AperFunction,NonPlated,NPTH,ComponentDrill
T4C3.400
%
G90
G05
T1
X201.7Y-200.228
X204.7Y-200.228
T2
X81.013Y-125.344
X86.827Y-109.37
X91.35Y-129.107
X96.217Y-136.199
X97.164Y-113.132
X102.032Y-120.224
X106.554Y-139.961
X107.846Y-104.25
X112.368Y-123.987
X118.067Y-132.037
X118.183Y-108.012
X125.251Y-116.63
X128.036Y-136.686
X128.133Y-167.367
X132.436Y-101.223
X135.221Y-121.279
X137.761Y-132.394
X138.652Y-170.583
X142.405Y-105.872
X144.946Y-116.987
X147.184Y-173.409
X147.731Y-137.043
X149.849Y-149.064
X152.13Y-101.579
X154.915Y-121.635
X157.033Y-133.657
X157.153Y-178.058
X159.818Y-153.713
X162.1Y-106.228
X164.218Y-118.25
X164.894Y-159.39
X165.421Y-182.855
X167.003Y-138.306
X172.079Y-143.983
X174.187Y-122.898
X174.206Y-189.475
X174.864Y-164.039
X179.263Y-128.576
X180.915Y-196.018
X182.048Y-148.632
X188.132Y-204.32
X189.233Y-133.224
X217.167Y-133.224
X218.268Y-204.32
X224.352Y-148.632
X225.485Y-196.018
X227.137Y-128.576
X231.536Y-164.039
X232.194Y-189.475
X232.213Y-122.898
X234.321Y-143.983
X239.397Y-138.306
X240.979Y-182.855
X241.506Y-159.39
X242.182Y-118.25
X244.3Y-106.228
X246.582Y-153.713
X249.247Y-178.058
X249.367Y-133.657
X251.485Y-121.635
X254.27Y-101.579
X256.551Y-149.064
X258.669Y-137.043
X259.216Y-173.409
X261.454Y-116.987
X263.995Y-105.872
X267.748Y-170.583
X268.639Y-132.394
X271.179Y-121.279
X273.964Y-101.223
X278.267Y-167.367
X278.364Y-136.686
X281.149Y-116.63
X288.217Y-108.012
X288.333Y-132.037
X294.032Y-123.987
X298.554Y-104.25
X299.846Y-139.961
X304.368Y-120.224
X309.236Y-113.132
X310.183Y-136.199
X315.05Y-129.107
X319.573Y-109.37
X325.387Y-125.344
T3
X80.183Y-129.086
X84.163Y-132.77
X85.997Y-113.111
X89.978Y-116.795
X95.388Y-139.941
X99.368Y-143.625
X101.202Y-123.966
X105.182Y-127.65
X107.016Y-107.992
X110.996Y-111.675
X116.914Y-135.692
X120.558Y-139.709
X124.099Y-120.285
X127.5Y-171.147
X127.743Y-124.302
X131.283Y-104.878
X131.667Y-174.617
X134.927Y-108.894
X136.609Y-136.049
X140.253Y-140.065
X143.793Y-120.642
X146.031Y-177.065
X147.437Y-124.658
X148.696Y-152.719
X149.675Y-181.081
X150.978Y-105.235
X152.34Y-156.736
X154.622Y-109.251
X155.88Y-137.312
X159.524Y-141.328
X163.065Y-121.905
X163.533Y-186.191
X163.742Y-163.045
X166.263Y-190.877
X166.709Y-125.921
X167.386Y-167.062
X170.926Y-147.638
X174.57Y-151.654
X178.111Y-132.231
X178.375Y-198.888
X180.071Y-204.039
X181.755Y-136.247
X219.226Y-136.457
X221.464Y-206.435
X224.645Y-136.247
X226.329Y-204.039
X226.411Y-151.864
X231.83Y-151.654
X233.595Y-167.272
X234.272Y-126.131
X234.88Y-192.209
X239.014Y-167.062
X239.691Y-125.921
X240.137Y-190.877
X241.457Y-141.538
X246.359Y-109.461
X246.876Y-141.328
X248.641Y-156.946
X251.306Y-181.291
X251.778Y-109.251
X253.544Y-124.868
X254.06Y-156.736
X256.725Y-181.081
X258.963Y-124.658
X260.728Y-140.275
X266.054Y-109.104
X266.147Y-140.065
X269.337Y-174.071
X271.473Y-108.894
X273.238Y-124.511
X274.733Y-174.617
X278.657Y-124.302
X280.423Y-139.919
X285.842Y-139.709
X289.987Y-111.412
X295.404Y-111.675
X295.801Y-127.387
X301.218Y-127.65
X301.616Y-143.361
X307.032Y-143.625
X311.006Y-116.532
X316.422Y-116.795
X316.82Y-132.506
X322.237Y-132.77
T4
X86.181Y-127.226
X91.996Y-111.251
X101.386Y-138.08
X107.2Y-122.106
X113.014Y-106.131
X123.052Y-134.362
X130.236Y-118.954
X133.392Y-168.975
X137.421Y-103.547
X142.746Y-134.718
X149.931Y-119.311
X152.168Y-175.734
X154.833Y-151.388
X157.115Y-103.904
X162.018Y-135.981
X169.202Y-120.574
X169.813Y-186.165
X169.879Y-161.715
X177.064Y-146.307
X184.248Y-130.9
X184.523Y-200.169
X221.877Y-200.169
X222.152Y-130.9
X229.336Y-146.307
X236.521Y-161.715
X236.587Y-186.165
X237.198Y-120.574
X244.382Y-135.981
X249.285Y-103.904
X251.567Y-151.388
X254.232Y-175.734
X256.469Y-119.311
X263.654Y-134.718
X268.979Y-103.547
X273.008Y-168.975
X276.164Y-118.954
X283.348Y-134.362
X293.386Y-106.131
X299.2Y-122.106
X305.014Y-138.08
X314.404Y-111.251
X320.219Y-127.226
T0
M30
