%TF.GenerationSoftware,KiCad,Pcbnew,6.0.11-3.fc36*%
%TF.CreationDate,2023-03-10T01:36:50-05:00*%
%TF.ProjectId,moth,6d6f7468-2e6b-4696-9361-645f70636258,v1.0.0*%
%TF.SameCoordinates,Original*%
%TF.FileFunction,Soldermask,Top*%
%TF.FilePolarity,Negative*%
%FSLAX46Y46*%
G04 Gerber Fmt 4.6, Leading zero omitted, Abs format (unit mm)*
G04 Created by KiCad (PCBNEW 6.0.11-3.fc36) date 2023-03-10 01:36:50*
%MOMM*%
%LPD*%
G01*
G04 APERTURE LIST*
G04 Aperture macros list*
%AMRoundRect*
0 Rectangle with rounded corners*
0 $1 Rounding radius*
0 $2 $3 $4 $5 $6 $7 $8 $9 X,Y pos of 4 corners*
0 Add a 4 corners polygon primitive as box body*
4,1,4,$2,$3,$4,$5,$6,$7,$8,$9,$2,$3,0*
0 Add four circle primitives for the rounded corners*
1,1,$1+$1,$2,$3*
1,1,$1+$1,$4,$5*
1,1,$1+$1,$6,$7*
1,1,$1+$1,$8,$9*
0 Add four rect primitives between the rounded corners*
20,1,$1+$1,$2,$3,$4,$5,0*
20,1,$1+$1,$4,$5,$6,$7,0*
20,1,$1+$1,$6,$7,$8,$9,0*
20,1,$1+$1,$8,$9,$2,$3,0*%
G04 Aperture macros list end*
%ADD10C,3.400000*%
%ADD11C,3.000000*%
%ADD12C,1.700000*%
%ADD13O,2.750000X1.800000*%
%ADD14C,1.397000*%
%ADD15C,0.900000*%
%ADD16RoundRect,0.250000X0.625000X-0.350000X0.625000X0.350000X-0.625000X0.350000X-0.625000X-0.350000X0*%
%ADD17O,1.750000X1.200000*%
%ADD18RoundRect,0.300000X0.575000X-0.300000X0.575000X0.300000X-0.575000X0.300000X-0.575000X-0.300000X0*%
G04 APERTURE END LIST*
G36*
X210627464Y-168092561D02*
G01*
X210773122Y-168282261D01*
X210999033Y-168583585D01*
X211297380Y-168985900D01*
X211660345Y-169478576D01*
X212080111Y-170050979D01*
X212548859Y-170692479D01*
X213058773Y-171392443D01*
X213602034Y-172140241D01*
X214034136Y-172736407D01*
X217433634Y-177431290D01*
X217400126Y-177963871D01*
X217312104Y-178507074D01*
X217108825Y-178975990D01*
X216769044Y-179416409D01*
X216687047Y-179500900D01*
X216477562Y-179689672D01*
X216199137Y-179912475D01*
X215884036Y-180146814D01*
X215564524Y-180370195D01*
X215272865Y-180560123D01*
X215041324Y-180694105D01*
X214902165Y-180749645D01*
X214895365Y-180750028D01*
X214823143Y-180799568D01*
X214823655Y-180967021D01*
X214831717Y-181015968D01*
X214902219Y-181418705D01*
X214940349Y-181699843D01*
X214943252Y-181898974D01*
X214908070Y-182055688D01*
X214831948Y-182209578D01*
X214734363Y-182365495D01*
X214238450Y-182986434D01*
X213596459Y-183534139D01*
X212809084Y-184008251D01*
X211877023Y-184408412D01*
X210800972Y-184734261D01*
X209690847Y-184966999D01*
X209315083Y-185024890D01*
X208956190Y-185068607D01*
X208676678Y-185090858D01*
X208616907Y-185092258D01*
X208413599Y-185106623D01*
X208247070Y-185167839D01*
X208066276Y-185303084D01*
X207869737Y-185490117D01*
X207503880Y-185791404D01*
X207062789Y-186032782D01*
X206515660Y-186228347D01*
X205953032Y-186367224D01*
X205621780Y-186422810D01*
X205211779Y-186470528D01*
X204768955Y-186507394D01*
X204339235Y-186530424D01*
X203968547Y-186536631D01*
X203702817Y-186523033D01*
X203658838Y-186516317D01*
X203355225Y-186433244D01*
X203112492Y-186299770D01*
X202922953Y-186098344D01*
X202778920Y-185811414D01*
X202672707Y-185421430D01*
X202596627Y-184910841D01*
X202542992Y-184262097D01*
X202524416Y-183926189D01*
X202470774Y-182839032D01*
X201856258Y-182781680D01*
X201504739Y-182747682D01*
X201172920Y-182713593D01*
X200932402Y-182686768D01*
X200931668Y-182686679D01*
X200621594Y-182649032D01*
X200287666Y-183317580D01*
X200075605Y-183727435D01*
X199827938Y-184184520D01*
X199594833Y-184596440D01*
X199573547Y-184632795D01*
X199359120Y-184974052D01*
X199159084Y-185215852D01*
X198937638Y-185376993D01*
X198658982Y-185476272D01*
X198287315Y-185532489D01*
X197800451Y-185563823D01*
X197027332Y-185552888D01*
X196347703Y-185438542D01*
X195721875Y-185212856D01*
X195507791Y-185105876D01*
X195130492Y-184854277D01*
X194718906Y-184498131D01*
X194313460Y-184078741D01*
X193954579Y-183637409D01*
X193715928Y-183275161D01*
X193548806Y-182994660D01*
X193421409Y-182825621D01*
X193297175Y-182734474D01*
X193139540Y-182687651D01*
X193061367Y-182674195D01*
X192113093Y-182464476D01*
X191275903Y-182155347D01*
X190556142Y-181752016D01*
X189960157Y-181259687D01*
X189494293Y-180683566D01*
X189164896Y-180028859D01*
X188982467Y-179328120D01*
X188896086Y-178773276D01*
X189483061Y-178123212D01*
X190070035Y-177473147D01*
X189844875Y-177012936D01*
X189680126Y-176541192D01*
X189584600Y-175964574D01*
X189563415Y-175329019D01*
X189601296Y-174825857D01*
X189657024Y-174379826D01*
X193744855Y-171746437D01*
X194485275Y-171269987D01*
X195186654Y-170819687D01*
X195836547Y-170403456D01*
X196422511Y-170029216D01*
X196932102Y-169704888D01*
X197352877Y-169438393D01*
X197672391Y-169237652D01*
X197878201Y-169110586D01*
X197956525Y-169065525D01*
X198065413Y-169085452D01*
X198138571Y-169250776D01*
X198204993Y-169458160D01*
X198312127Y-169737334D01*
X198387809Y-169916046D01*
X198515042Y-170224115D01*
X198563846Y-170422668D01*
X198531471Y-170547536D01*
X198415169Y-170634553D01*
X198329741Y-170672976D01*
X198045665Y-170857324D01*
X197773053Y-171144891D01*
X197557632Y-171478644D01*
X197450894Y-171769112D01*
X197425232Y-172273875D01*
X197530648Y-172837627D01*
X197759223Y-173432564D01*
X198089342Y-174010484D01*
X198267189Y-174276774D01*
X198033820Y-174277231D01*
X197716270Y-174311347D01*
X197382349Y-174398472D01*
X197102027Y-174517448D01*
X196992177Y-174592176D01*
X196798997Y-174862642D01*
X196748543Y-175195200D01*
X196838060Y-175576511D01*
X197064796Y-175993236D01*
X197356705Y-176358079D01*
X197604154Y-176645465D01*
X197731157Y-176837908D01*
X197742567Y-176946075D01*
X197643239Y-176980632D01*
X197640030Y-176980645D01*
X197517855Y-177033864D01*
X197330540Y-177170790D01*
X197189385Y-177295701D01*
X196949109Y-177585223D01*
X196857714Y-177868665D01*
X196916185Y-178165554D01*
X197125504Y-178495418D01*
X197257398Y-178647154D01*
X197480656Y-178853669D01*
X197736007Y-179007588D01*
X198067416Y-179129633D01*
X198514201Y-179239535D01*
X199023196Y-179318030D01*
X199450083Y-179306089D01*
X199853172Y-179197753D01*
X200126102Y-179074820D01*
X200471908Y-178841020D01*
X200658975Y-178568498D01*
X200688654Y-178253524D01*
X200562298Y-177892369D01*
X200557770Y-177883869D01*
X200406379Y-177601584D01*
X200680673Y-177342892D01*
X200860209Y-177144559D01*
X200939144Y-176949844D01*
X200954967Y-176716974D01*
X200883550Y-176345748D01*
X200688387Y-175967571D01*
X200398112Y-175635777D01*
X200354508Y-175598523D01*
X200287983Y-175523581D01*
X200302075Y-175441170D01*
X200414184Y-175315336D01*
X200552781Y-175188845D01*
X200800756Y-174920635D01*
X200952034Y-174616266D01*
X201001197Y-174450339D01*
X201056756Y-174195033D01*
X201079207Y-174004237D01*
X201071202Y-173938242D01*
X201088497Y-173871738D01*
X201117683Y-173867097D01*
X201198179Y-173932062D01*
X201339826Y-174106507D01*
X201518868Y-174359754D01*
X201625350Y-174522581D01*
X201856349Y-174865388D01*
X202031400Y-175075818D01*
X202164599Y-175169639D01*
X202211240Y-175178065D01*
X202343240Y-175139733D01*
X202585084Y-175034840D01*
X202904573Y-174878533D01*
X203269504Y-174685965D01*
X203343209Y-174645484D01*
X203700605Y-174449636D01*
X204004871Y-174286204D01*
X204228265Y-174169842D01*
X204343046Y-174115204D01*
X204351380Y-174112903D01*
X204383181Y-174184110D01*
X204396258Y-174353376D01*
X204471723Y-174780378D01*
X204689450Y-175141211D01*
X204731052Y-175185117D01*
X204908520Y-175362585D01*
X204650765Y-175564308D01*
X204345187Y-175878568D01*
X204199593Y-176212954D01*
X204215158Y-176559211D01*
X204393058Y-176909087D01*
X204449096Y-176979810D01*
X204651922Y-177220855D01*
X204421671Y-177267990D01*
X203987144Y-177414106D01*
X203608037Y-177648998D01*
X203313020Y-177945479D01*
X203130759Y-178276364D01*
X203085290Y-178535284D01*
X203164594Y-178845664D01*
X203395633Y-179124752D01*
X203768100Y-179365656D01*
X204271685Y-179561486D01*
X204813751Y-179690806D01*
X205118535Y-179738842D01*
X205355544Y-179746216D01*
X205597630Y-179707920D01*
X205917647Y-179618942D01*
X205934917Y-179613705D01*
X206286051Y-179483599D01*
X206629166Y-179318183D01*
X206868666Y-179168075D01*
X207177989Y-178872609D01*
X207324830Y-178575783D01*
X207309947Y-178267698D01*
X207134098Y-177938456D01*
X206977093Y-177753265D01*
X206814361Y-177577331D01*
X206710500Y-177458535D01*
X206690451Y-177430301D01*
X206762719Y-177407095D01*
X206944364Y-177371322D01*
X207033667Y-177356384D01*
X207292905Y-177286728D01*
X207613373Y-177162388D01*
X207860667Y-177043647D01*
X208317765Y-176741158D01*
X208625442Y-176404493D01*
X208779838Y-176041564D01*
X208777097Y-175660280D01*
X208674157Y-175375886D01*
X208529527Y-175134731D01*
X208374022Y-174934931D01*
X208338179Y-174899346D01*
X208165889Y-174743531D01*
X208865694Y-174017594D01*
X209266616Y-173578103D01*
X209564289Y-173192371D01*
X209789235Y-172819510D01*
X209848620Y-172700882D01*
X210052919Y-172188867D01*
X210125791Y-171773815D01*
X210064919Y-171451777D01*
X209867990Y-171218804D01*
X209532689Y-171070946D01*
X209056701Y-171004255D01*
X208851386Y-170999355D01*
X208303186Y-170999355D01*
X208792443Y-170487258D01*
X209149217Y-170093368D01*
X209501771Y-169667730D01*
X209826576Y-169242111D01*
X210100101Y-168848278D01*
X210298815Y-168518002D01*
X210379881Y-168344114D01*
X210468933Y-168144561D01*
X210546949Y-168033801D01*
X210569878Y-168025117D01*
X210627464Y-168092561D01*
G37*
G36*
X210792188Y-159685770D02*
G01*
X211088202Y-159697010D01*
X211283878Y-159713845D01*
X211342823Y-159728931D01*
X211321817Y-159816176D01*
X211188011Y-159981989D01*
X210960714Y-160207983D01*
X210659234Y-160475766D01*
X210302881Y-160766951D01*
X210047040Y-160962996D01*
X209400174Y-161424625D01*
X208713821Y-161877018D01*
X208031196Y-162293536D01*
X207395512Y-162647540D01*
X206978015Y-162854853D01*
X206676984Y-162998426D01*
X206441622Y-163118755D01*
X206305054Y-163198488D01*
X206284055Y-163218358D01*
X206348503Y-163276846D01*
X206519726Y-163385701D01*
X206731132Y-163505132D01*
X207015497Y-163670009D01*
X207151745Y-163781149D01*
X207143960Y-163845544D01*
X206996228Y-163870187D01*
X206944888Y-163870968D01*
X206622152Y-163913404D01*
X206224614Y-164025965D01*
X205812916Y-164186530D01*
X205447699Y-164372979D01*
X205297548Y-164471885D01*
X205008939Y-164740948D01*
X204748256Y-165079703D01*
X204683032Y-165188443D01*
X204566806Y-165412459D01*
X204494264Y-165607348D01*
X204455265Y-165824101D01*
X204439669Y-166113710D01*
X204437225Y-166424435D01*
X204441270Y-166767942D01*
X204452147Y-167045552D01*
X204467965Y-167219456D01*
X204478869Y-167258122D01*
X204574244Y-167262781D01*
X204780609Y-167232937D01*
X205011450Y-167184483D01*
X205611832Y-167091882D01*
X206241458Y-167077651D01*
X206817560Y-167143291D01*
X206854322Y-167151043D01*
X207160879Y-167235630D01*
X207468524Y-167349195D01*
X207737600Y-167473418D01*
X207928450Y-167589980D01*
X208001417Y-167680561D01*
X208001419Y-167680926D01*
X207946236Y-167843199D01*
X207798235Y-168083470D01*
X207583732Y-168367222D01*
X207329048Y-168659937D01*
X207060502Y-168927097D01*
X207030979Y-168953679D01*
X206630509Y-169258861D01*
X206123641Y-169569870D01*
X205563354Y-169859980D01*
X205002625Y-170102463D01*
X204494432Y-170270593D01*
X204355290Y-170303553D01*
X203515648Y-170408339D01*
X202709442Y-170370586D01*
X202329979Y-170298565D01*
X201580057Y-170033997D01*
X200866871Y-169616530D01*
X200345572Y-169189366D01*
X200100711Y-168941342D01*
X199841916Y-168648249D01*
X199593540Y-168341714D01*
X199379934Y-168053369D01*
X199225448Y-167814842D01*
X199154434Y-167657762D01*
X199152387Y-167639560D01*
X199227900Y-167559106D01*
X199432095Y-167463982D01*
X199731453Y-167362870D01*
X200092458Y-167264447D01*
X200481591Y-167177395D01*
X200865335Y-167110393D01*
X201210172Y-167072120D01*
X201365498Y-167066452D01*
X201574922Y-167051561D01*
X201689042Y-166976037D01*
X201770633Y-166793598D01*
X201782265Y-166759194D01*
X201839929Y-166501393D01*
X201877628Y-166170051D01*
X201885917Y-165956560D01*
X201818600Y-165423275D01*
X201614683Y-164980284D01*
X201274950Y-164628553D01*
X200800184Y-164369048D01*
X200524092Y-164277398D01*
X200216121Y-164192009D01*
X200745606Y-163742815D01*
X201275091Y-163293620D01*
X200411007Y-162846538D01*
X199986150Y-162614838D01*
X199506799Y-162333424D01*
X198992559Y-162015788D01*
X198463036Y-161675424D01*
X197937835Y-161325824D01*
X197436561Y-160980482D01*
X196978820Y-160652891D01*
X196584216Y-160356543D01*
X196272356Y-160104931D01*
X196062844Y-159911549D01*
X195976663Y-159794678D01*
X196034065Y-159744780D01*
X196223615Y-159711157D01*
X196514427Y-159693525D01*
X196875617Y-159691601D01*
X197276298Y-159705101D01*
X197685586Y-159733740D01*
X198072597Y-159777236D01*
X198312518Y-159816144D01*
X198913212Y-159953065D01*
X199520252Y-160131827D01*
X200072578Y-160332887D01*
X200426071Y-160492592D01*
X201013230Y-160848621D01*
X201544649Y-161279511D01*
X201992066Y-161756346D01*
X202327219Y-162250209D01*
X202481712Y-162595870D01*
X202609081Y-162969678D01*
X203154444Y-162969095D01*
X203552427Y-162959879D01*
X203992376Y-162936815D01*
X204251223Y-162916433D01*
X204802639Y-162864353D01*
X204982048Y-162486854D01*
X205118481Y-162266232D01*
X205339807Y-161979309D01*
X205610200Y-161670599D01*
X205783386Y-161491145D01*
X206499004Y-160892254D01*
X207320893Y-160403616D01*
X208226723Y-160033920D01*
X209194162Y-159791857D01*
X210200878Y-159686119D01*
X210432213Y-159682000D01*
X210792188Y-159685770D01*
G37*
D10*
X249284969Y-103903793D03*
D11*
X246359379Y-109460854D03*
D12*
X244300276Y-106228193D03*
X254269662Y-101579393D03*
D11*
X251778417Y-109251009D03*
D12*
X164217696Y-118249600D03*
D11*
X166708941Y-125921216D03*
X163064901Y-121904878D03*
D10*
X169202389Y-120574000D03*
D12*
X174187082Y-122898400D03*
D10*
X305014343Y-138080360D03*
D11*
X301615556Y-143361293D03*
X307032262Y-143624546D03*
D12*
X310182652Y-136199249D03*
X299846034Y-139961471D03*
X157153028Y-178058300D03*
D11*
X149674887Y-181081116D03*
D12*
X147183642Y-173409500D03*
D11*
X146030847Y-177064778D03*
D10*
X152168335Y-175733900D03*
D11*
X89977715Y-116794946D03*
D10*
X91995634Y-111250760D03*
D11*
X85997494Y-113111491D03*
D12*
X86827325Y-109369649D03*
X97163943Y-113131871D03*
D10*
X320218709Y-127225534D03*
D11*
X322236628Y-132769720D03*
X316819922Y-132506467D03*
D12*
X325387018Y-125344423D03*
X315050400Y-129106645D03*
X154915214Y-121635426D03*
D11*
X147437073Y-124658242D03*
D12*
X144945828Y-116986626D03*
D11*
X143793033Y-120641904D03*
D10*
X149930521Y-119311026D03*
D13*
X195105040Y-137668000D03*
X195105040Y-140208000D03*
X195105040Y-142748000D03*
X195105040Y-145288000D03*
X195105040Y-147828000D03*
X195105040Y-150368000D03*
X195105040Y-152908000D03*
X211294960Y-152908000D03*
X211294960Y-150368000D03*
X211294960Y-147828000D03*
X211294960Y-145288000D03*
X211294960Y-142748000D03*
X211294960Y-140208000D03*
X211294960Y-137668000D03*
D14*
X201930000Y-136716000D03*
X204470000Y-136716000D03*
X201930000Y-139256000D03*
X204470000Y-139256000D03*
X198755000Y-144971000D03*
X198755000Y-143066000D03*
X207010000Y-154496000D03*
X208915000Y-154496000D03*
D12*
X304368309Y-120224474D03*
D11*
X295801213Y-127386518D03*
X301217919Y-127649771D03*
D10*
X299200000Y-122105585D03*
D12*
X294031691Y-123986696D03*
X188131807Y-204319551D03*
D10*
X184523482Y-200168648D03*
D12*
X180915157Y-196017745D03*
D11*
X178375290Y-198888124D03*
X180070695Y-204039396D03*
D12*
X251484787Y-121635426D03*
X261454173Y-116986626D03*
D11*
X253543890Y-124868087D03*
X258962928Y-124658242D03*
D10*
X256469480Y-119311026D03*
D12*
X227136619Y-128575652D03*
D11*
X219226336Y-136457113D03*
D10*
X222151926Y-130900052D03*
D11*
X224645374Y-136247268D03*
D12*
X217167233Y-133224452D03*
D10*
X169879054Y-161714517D03*
D11*
X167385606Y-167061733D03*
D12*
X174863747Y-164038917D03*
X164894361Y-159390117D03*
D11*
X163741566Y-163045395D03*
X240137386Y-190877304D03*
D12*
X240979172Y-182855371D03*
D10*
X236586677Y-186165354D03*
D12*
X232194182Y-189475337D03*
D11*
X234880397Y-192209244D03*
X174570116Y-151654500D03*
X170926076Y-147638162D03*
D12*
X182048257Y-148631684D03*
D10*
X177063564Y-146307284D03*
D12*
X172078871Y-143982884D03*
D10*
X107200000Y-122105585D03*
D11*
X101201860Y-123966316D03*
D12*
X102031691Y-120224474D03*
D11*
X105182081Y-127649771D03*
D12*
X112368309Y-123986696D03*
X128132542Y-167366696D03*
X138651894Y-170582784D03*
D11*
X131667225Y-174616938D03*
X127499682Y-171146840D03*
D10*
X133392218Y-168974740D03*
D11*
X233595357Y-167271578D03*
D10*
X236520947Y-161714517D03*
D11*
X239014395Y-167061733D03*
D12*
X231536254Y-164038917D03*
X241505640Y-159390117D03*
X298553967Y-104249700D03*
D10*
X293385658Y-106130811D03*
D11*
X289986871Y-111411744D03*
X295403577Y-111674997D03*
D12*
X288217349Y-108011922D03*
D11*
X251306076Y-181290961D03*
D12*
X259216359Y-173409500D03*
D10*
X254231666Y-175733900D03*
D12*
X249246973Y-178058300D03*
D11*
X256725114Y-181081116D03*
D10*
X157115031Y-103903793D03*
D11*
X150977543Y-105234671D03*
D12*
X152130338Y-101579393D03*
X162099724Y-106228193D03*
D11*
X154621583Y-109251009D03*
D10*
X130236035Y-118954359D03*
D12*
X125251342Y-116629959D03*
X135220728Y-121278759D03*
D11*
X127742587Y-124301575D03*
X124098547Y-120285237D03*
D12*
X288333169Y-132037191D03*
D11*
X285841924Y-139708807D03*
D12*
X278363783Y-136685991D03*
D11*
X280422886Y-139918652D03*
D10*
X283348476Y-134361591D03*
X162017879Y-135981232D03*
D11*
X155880391Y-137312110D03*
D12*
X157033186Y-133656832D03*
D11*
X159524431Y-141328448D03*
D12*
X167002572Y-138305632D03*
X232212919Y-122898400D03*
D11*
X234272022Y-126131061D03*
X239691060Y-125921216D03*
D12*
X242182305Y-118249600D03*
D10*
X237197612Y-120574000D03*
D12*
X142405238Y-105871527D03*
D11*
X131283057Y-104878005D03*
D12*
X132435852Y-101222727D03*
D11*
X134927097Y-108894343D03*
D10*
X137420545Y-103547127D03*
D11*
X178110586Y-132230930D03*
D10*
X184248074Y-130900052D03*
D11*
X181754626Y-136247268D03*
D12*
X189232767Y-133224452D03*
X179263381Y-128575652D03*
D10*
X142746011Y-134718258D03*
D11*
X136608523Y-136049136D03*
D12*
X137761318Y-132393858D03*
X147730704Y-137042658D03*
D11*
X140252563Y-140065474D03*
X311005580Y-116531693D03*
X316422286Y-116794946D03*
D12*
X309236058Y-113131871D03*
D10*
X314404367Y-111250760D03*
D12*
X319572676Y-109369649D03*
D11*
X166262615Y-190877304D03*
X163533249Y-186191094D03*
D10*
X169813324Y-186165354D03*
D12*
X165420829Y-182855371D03*
X174205819Y-189475337D03*
D11*
X120558076Y-139708807D03*
D12*
X128036217Y-136685991D03*
X118066831Y-132037191D03*
D11*
X116914036Y-135692469D03*
D10*
X123051524Y-134361591D03*
D12*
X281148659Y-116629959D03*
D11*
X273238376Y-124511420D03*
X278657414Y-124301575D03*
D10*
X276163966Y-118954359D03*
D12*
X271179273Y-121278759D03*
D10*
X268979456Y-103547127D03*
D11*
X266053866Y-109104188D03*
X271472904Y-108894343D03*
D12*
X273964149Y-101222727D03*
X263994763Y-105871527D03*
X149848675Y-149064065D03*
D10*
X154833368Y-151388465D03*
D11*
X148695880Y-152719343D03*
D12*
X159818061Y-153712865D03*
D11*
X152339920Y-156735681D03*
D12*
X278267459Y-167366696D03*
X267748107Y-170582784D03*
D11*
X269337272Y-174070557D03*
X274732776Y-174616938D03*
D10*
X273007783Y-168974740D03*
D12*
X249366815Y-133656832D03*
X239397429Y-138305632D03*
D10*
X244382122Y-135981232D03*
D11*
X246875570Y-141328448D03*
X241456532Y-141538293D03*
D10*
X113014343Y-106130811D03*
D12*
X107846034Y-104249700D03*
D11*
X107016203Y-107991542D03*
X110996424Y-111674997D03*
D12*
X118182652Y-108011922D03*
X256551325Y-149064065D03*
D11*
X248641042Y-156945526D03*
X254060080Y-156735681D03*
D12*
X246581939Y-153712865D03*
D10*
X251566632Y-151388465D03*
D12*
X234321130Y-143982884D03*
X224351744Y-148631684D03*
D11*
X231829885Y-151654500D03*
X226410847Y-151864345D03*
D10*
X229336437Y-146307284D03*
D11*
X99367739Y-143624546D03*
D10*
X101385658Y-138080360D03*
D11*
X95387518Y-139941091D03*
D12*
X96217349Y-136199249D03*
X106553967Y-139961471D03*
D10*
X221876519Y-200168648D03*
D11*
X226329306Y-204039396D03*
D12*
X218268194Y-204319551D03*
X225484844Y-196017745D03*
D11*
X221464120Y-206435220D03*
D12*
X81012982Y-125344423D03*
D11*
X80183151Y-129086265D03*
D12*
X91349600Y-129106645D03*
D11*
X84163372Y-132769720D03*
D10*
X86181291Y-127225534D03*
D12*
X268638683Y-132393858D03*
D11*
X260728400Y-140275319D03*
D12*
X258669297Y-137042658D03*
D10*
X263653990Y-134718258D03*
D11*
X266147438Y-140065474D03*
D15*
X201700000Y-200228000D03*
X204700000Y-200228000D03*
D16*
X216431000Y-147415000D03*
D17*
X216431000Y-145415000D03*
D18*
X216431000Y-143415000D03*
M02*
