%TF.GenerationSoftware,KiCad,Pcbnew,6.0.11-3.fc36*%
%TF.CreationDate,2023-03-10T01:36:50-05:00*%
%TF.ProjectId,moth,6d6f7468-2e6b-4696-9361-645f70636258,v1.0.0*%
%TF.SameCoordinates,Original*%
%TF.FileFunction,Profile,NP*%
%FSLAX46Y46*%
G04 Gerber Fmt 4.6, Leading zero omitted, Abs format (unit mm)*
G04 Created by KiCad (PCBNEW 6.0.11-3.fc36) date 2023-03-10 01:36:50*
%MOMM*%
%LPD*%
G01*
G04 APERTURE LIST*
%TA.AperFunction,Profile*%
%ADD10C,0.100000*%
%TD*%
%TA.AperFunction,Profile*%
%ADD11C,0.050000*%
%TD*%
%TA.AperFunction,Profile*%
%ADD12C,0.120000*%
%TD*%
G04 APERTURE END LIST*
D10*
X132554362Y-87240150D02*
X137805680Y-87531049D01*
X142936727Y-88028169D01*
X147922178Y-88714696D01*
X152736709Y-89573818D01*
X157354996Y-90588721D01*
X161751716Y-91742592D01*
X165901543Y-93018619D01*
X169779155Y-94399988D01*
X173359227Y-95869888D01*
X176616435Y-97411503D01*
X179525455Y-99008022D01*
X182060963Y-100642632D01*
X184197635Y-102298519D01*
X186047004Y-103935261D01*
X187740191Y-105526445D01*
X189281250Y-107076269D01*
X190674234Y-108588927D01*
X191923198Y-110068615D01*
X193032194Y-111519531D01*
X194005277Y-112945869D01*
X194846501Y-114351826D01*
X195559918Y-115741597D01*
X196149584Y-117119379D01*
X196619551Y-118489368D01*
X196973874Y-119855760D01*
X197216605Y-121222750D01*
X197351800Y-122594535D01*
X197383510Y-123975310D01*
X197315792Y-125369272D01*
X197244035Y-125858903D01*
X197109251Y-126536438D01*
X196925006Y-127339987D01*
X196704869Y-128207659D01*
X196462408Y-129077564D01*
X196211189Y-129887810D01*
X196086536Y-130251221D01*
X195964782Y-130576508D01*
X195847623Y-130855934D01*
X195736754Y-131081765D01*
X195622578Y-131326062D01*
X195546818Y-131559057D01*
X195507787Y-131780990D01*
X195503798Y-131992104D01*
X195533165Y-132192641D01*
X195594201Y-132382842D01*
X195685219Y-132562950D01*
X195804534Y-132733207D01*
X195950457Y-132893854D01*
X196121302Y-133045133D01*
X196315383Y-133187286D01*
X196531013Y-133320556D01*
X197020173Y-133561413D01*
X197575288Y-133769639D01*
X198182866Y-133947169D01*
X198829412Y-134095939D01*
X199501434Y-134217884D01*
X200185437Y-134314941D01*
X200867928Y-134389045D01*
X201535414Y-134442131D01*
X202771396Y-134492992D01*
X203533380Y-134492992D01*
X204130300Y-134476654D01*
X204769078Y-134444063D01*
X205436241Y-134393079D01*
X206118315Y-134321556D01*
X206801824Y-134227352D01*
X207473295Y-134108323D01*
X208119252Y-133962327D01*
X208726223Y-133787220D01*
X209010877Y-133688081D01*
X209280731Y-133580859D01*
X209534102Y-133465289D01*
X209769304Y-133341101D01*
X209984653Y-133208028D01*
X210178466Y-133065802D01*
X210349057Y-132914155D01*
X210494743Y-132752820D01*
X210613838Y-132581527D01*
X210704660Y-132400010D01*
X210765524Y-132208001D01*
X210794744Y-132005231D01*
X210790638Y-131791432D01*
X210751520Y-131566338D01*
X210675706Y-131329679D01*
X210561513Y-131081188D01*
X210450770Y-130847557D01*
X210333965Y-130562442D01*
X210212761Y-130233355D01*
X210088822Y-129867813D01*
X209839391Y-129057418D01*
X209598978Y-128191372D01*
X209380889Y-127329791D01*
X209198430Y-126532790D01*
X209064907Y-125860486D01*
X209020655Y-125589881D01*
X208993627Y-125372994D01*
X208925853Y-123978986D01*
X208957415Y-122598089D01*
X209092378Y-121226118D01*
X209334811Y-119858888D01*
X209688781Y-118492214D01*
X210158355Y-117121911D01*
X210747600Y-115743792D01*
X211460584Y-114353674D01*
X212301374Y-112947371D01*
X213274038Y-111520698D01*
X214382642Y-110069468D01*
X215631254Y-108589498D01*
X217023941Y-107076602D01*
X218564771Y-105526595D01*
X220257811Y-103935291D01*
X222107128Y-102298505D01*
X224243801Y-100643141D01*
X226779310Y-99009962D01*
X229688330Y-97415571D01*
X232945539Y-95876571D01*
X236525612Y-94409567D01*
X240403224Y-93031162D01*
X244553053Y-91757960D01*
X248949773Y-90606565D01*
X253568060Y-89593580D01*
X258382591Y-88735608D01*
X263368043Y-88049254D01*
X268499089Y-87551122D01*
X273750408Y-87257814D01*
X279096674Y-87185935D01*
X284512563Y-87352088D01*
X289972753Y-87772877D01*
X292659989Y-88072684D01*
X295248756Y-88418317D01*
X297740481Y-88809557D01*
X300136597Y-89246188D01*
X302438532Y-89727989D01*
X304647717Y-90254744D01*
X306765583Y-90826235D01*
X308793558Y-91442243D01*
X310733074Y-92102550D01*
X312585560Y-92806939D01*
X314352447Y-93555192D01*
X316035165Y-94347090D01*
X317635144Y-95182416D01*
X319153813Y-96060951D01*
X320592604Y-96982478D01*
X321952946Y-97946778D01*
X323236270Y-98953633D01*
X324444005Y-100002827D01*
X325577581Y-101094139D01*
X326638430Y-102227354D01*
X327627980Y-103402251D01*
X328547663Y-104618615D01*
X329398908Y-105876226D01*
X330183145Y-107174866D01*
X330901805Y-108514318D01*
X331556318Y-109894363D01*
X332148113Y-111314784D01*
X332678621Y-112775362D01*
X333149272Y-114275880D01*
X333561496Y-115816119D01*
X333916724Y-117395862D01*
X334216385Y-119014890D01*
X334216330Y-119014890D01*
X334458941Y-120615311D01*
X334643640Y-122140710D01*
X334772790Y-123593085D01*
X334848754Y-124974432D01*
X334873896Y-126286749D01*
X334850579Y-127532031D01*
X334781167Y-128712278D01*
X334668021Y-129829484D01*
X334513506Y-130885648D01*
X334319985Y-131882766D01*
X334089820Y-132822835D01*
X333825376Y-133707853D01*
X333529015Y-134539815D01*
X333203101Y-135320720D01*
X332849996Y-136052563D01*
X332472065Y-136737343D01*
X332071670Y-137377055D01*
X331651174Y-137973698D01*
X331212941Y-138529267D01*
X330759334Y-139045761D01*
X330292716Y-139525175D01*
X329815450Y-139969507D01*
X329329900Y-140380754D01*
X328838428Y-140760912D01*
X327847174Y-141435952D01*
X326860593Y-142010602D01*
X325897592Y-142500839D01*
X324977075Y-142922637D01*
X319860381Y-145002513D01*
X316488310Y-146489772D01*
X314683816Y-147356709D01*
X312832720Y-148310221D01*
X310959298Y-149353588D01*
X309087831Y-150490089D01*
X307242594Y-151723002D01*
X305447865Y-153055607D01*
X303727923Y-154491183D01*
X302107045Y-156033007D01*
X301341342Y-156844787D01*
X300609509Y-157684360D01*
X299914581Y-158552133D01*
X299259592Y-159448519D01*
X294487423Y-166372744D01*
X293295950Y-167978052D01*
X292060875Y-169527061D01*
X290760084Y-171016771D01*
X289371460Y-172444183D01*
X287872890Y-173806297D01*
X286242258Y-175100112D01*
X284457449Y-176322630D01*
X282496349Y-177470850D01*
X281442778Y-178016161D01*
X280336841Y-178541773D01*
X279175774Y-179047311D01*
X277956812Y-179532399D01*
X276677192Y-179996664D01*
X275334147Y-180439728D01*
X272446730Y-181260761D01*
X269457913Y-182070329D01*
X266547369Y-182944289D01*
X263717473Y-183881175D01*
X260970594Y-184879522D01*
X258309106Y-185937865D01*
X255735380Y-187054739D01*
X253251788Y-188228679D01*
X250860702Y-189458220D01*
X248564494Y-190741898D01*
X246365535Y-192078246D01*
X244266199Y-193465801D01*
X242268856Y-194903096D01*
X240375879Y-196388668D01*
X238589640Y-197921051D01*
X236912510Y-199498780D01*
X235346862Y-201120390D01*
X233907496Y-202711576D01*
X232600889Y-204199093D01*
X231416927Y-205583081D01*
X230345492Y-206863679D01*
X226982721Y-210954966D01*
X226322192Y-211720709D01*
X225713497Y-212383901D01*
X225425426Y-212677083D01*
X225146521Y-212944680D01*
X224875516Y-213186708D01*
X224611147Y-213403186D01*
X224352151Y-213594130D01*
X224097262Y-213759559D01*
X223845215Y-213899489D01*
X223594747Y-214013938D01*
X223344593Y-214102923D01*
X223093489Y-214166463D01*
X222840170Y-214204574D01*
X222583371Y-214217274D01*
X222315887Y-214199650D01*
X222032428Y-214148278D01*
X221734597Y-214065408D01*
X221423999Y-213953289D01*
X221102240Y-213814172D01*
X220770923Y-213650307D01*
X220431652Y-213463943D01*
X220086033Y-213257330D01*
X219382169Y-212792358D01*
X218672165Y-212273388D01*
X217968858Y-211718421D01*
X217285086Y-211145455D01*
X216633683Y-210572489D01*
X216027487Y-210017522D01*
X215002060Y-209033580D01*
X214058489Y-208073637D01*
X213199007Y-207133782D01*
X212192465Y-206167417D01*
X211564772Y-205620924D01*
X210861665Y-205055387D01*
X210088794Y-204488175D01*
X209251811Y-203936660D01*
X208356367Y-203418214D01*
X207408112Y-202950208D01*
X206915946Y-202740547D01*
X206412697Y-202550011D01*
X205899070Y-202380771D01*
X205375773Y-202234997D01*
X204843511Y-202114862D01*
X204302990Y-202022536D01*
X203754918Y-201960192D01*
X203200000Y-201930000D01*
X202649273Y-201956004D01*
X202104859Y-202014692D01*
X201567491Y-202103867D01*
X201037902Y-202221331D01*
X200516823Y-202364887D01*
X200004989Y-202532337D01*
X199503131Y-202721482D01*
X199011981Y-202930127D01*
X198532272Y-203156073D01*
X198064737Y-203397123D01*
X197610108Y-203651079D01*
X197169119Y-203915743D01*
X196742500Y-204188919D01*
X196330984Y-204468408D01*
X195556196Y-205037537D01*
X194850611Y-205605550D01*
X194220092Y-206154866D01*
X193670499Y-206667906D01*
X193207690Y-207127088D01*
X192565870Y-207813559D01*
X192341512Y-208073637D01*
X191397940Y-209033580D01*
X190372514Y-210017522D01*
X189114915Y-211145455D01*
X188431142Y-211718421D01*
X187727835Y-212273388D01*
X187017832Y-212792358D01*
X186313967Y-213257330D01*
X185629078Y-213650307D01*
X185297761Y-213814172D01*
X184976001Y-213953289D01*
X184665404Y-214065408D01*
X184367573Y-214148278D01*
X184084113Y-214199650D01*
X183816629Y-214217274D01*
X183306511Y-214166463D01*
X182805253Y-214013938D01*
X182302739Y-213759559D01*
X181788853Y-213403186D01*
X181253480Y-212944680D01*
X180686503Y-212383901D01*
X180077808Y-211720709D01*
X179417279Y-210954966D01*
X176054508Y-206863679D01*
X173799111Y-204199093D01*
X172492505Y-202711576D01*
X171053139Y-201120390D01*
X169487490Y-199498780D01*
X167810360Y-197921051D01*
X166024121Y-196388668D01*
X164131144Y-194903096D01*
X162133801Y-193465801D01*
X160034465Y-192078246D01*
X157835506Y-190741898D01*
X155539298Y-189458220D01*
X153148211Y-188228679D01*
X150664619Y-187054739D01*
X148090892Y-185937865D01*
X145429404Y-184879522D01*
X142682524Y-183881175D01*
X139852626Y-182944289D01*
X136942082Y-182070329D01*
X133953263Y-181260761D01*
X132475079Y-180861221D01*
X131065847Y-180439731D01*
X129722803Y-179996667D01*
X128443182Y-179532403D01*
X127224220Y-179047315D01*
X126063153Y-178541778D01*
X124957216Y-178016167D01*
X123903645Y-177470856D01*
X122899676Y-176906221D01*
X121942544Y-176322636D01*
X121029485Y-175720477D01*
X120157734Y-175100118D01*
X119324528Y-174461935D01*
X118527101Y-173806302D01*
X117028530Y-172444188D01*
X115639905Y-171016776D01*
X114339112Y-169527065D01*
X113104037Y-167978055D01*
X111912562Y-166372746D01*
X107140388Y-159448519D01*
X106481209Y-158556322D01*
X105782622Y-157692206D01*
X105047637Y-156855785D01*
X104279261Y-156046676D01*
X103480503Y-155264496D01*
X102654372Y-154508861D01*
X100932024Y-153075691D01*
X99136285Y-151744097D01*
X97291224Y-150511008D01*
X95420908Y-149373356D01*
X93549406Y-148328070D01*
X91700786Y-147372082D01*
X89899118Y-146502321D01*
X86532905Y-145009203D01*
X81422891Y-142922637D01*
X80485611Y-142500837D01*
X79507938Y-142010598D01*
X78508639Y-141435947D01*
X77506479Y-140760906D01*
X76520225Y-139969501D01*
X75568644Y-139045755D01*
X74670501Y-137973692D01*
X73844563Y-136737338D01*
X73464535Y-136052559D01*
X73109596Y-135320715D01*
X72782092Y-134539811D01*
X72484367Y-133707849D01*
X72218769Y-132822832D01*
X71987642Y-131882763D01*
X71793332Y-130885646D01*
X71638186Y-129829482D01*
X71524549Y-128712276D01*
X71454767Y-127532030D01*
X71431186Y-126286748D01*
X71456151Y-124974431D01*
X71532008Y-123593085D01*
X71661104Y-122140710D01*
X71845783Y-120615311D01*
X72088391Y-119014890D01*
X72743282Y-115816645D01*
X73626158Y-112777319D01*
X74748461Y-109898449D01*
X76121634Y-107181569D01*
X77757115Y-104628214D01*
X79666347Y-102239919D01*
X81860771Y-100018218D01*
X84351829Y-97964646D01*
X87150960Y-96080738D01*
X90269607Y-94368030D01*
X93719211Y-92828055D01*
X97511212Y-91462348D01*
X101657052Y-90272445D01*
X106168172Y-89259880D01*
X111056013Y-88426188D01*
X116332017Y-87772904D01*
X121792206Y-87344264D01*
X127208096Y-87172284D01*
X132554362Y-87240150D01*
D11*
X147574000Y-163449000D02*
G75*
G03*
X147574000Y-163449000I-1670424J0D01*
G01*
X255524000Y-163322000D02*
G75*
G03*
X255524000Y-163322000I-1670424J0D01*
G01*
X124333000Y-110744000D02*
G75*
G03*
X124333000Y-110744000I-1670424J0D01*
G01*
X283972000Y-107442000D02*
G75*
G03*
X283972000Y-107442000I-1670424J0D01*
G01*
D12*
X201676000Y-138824200D02*
X201676000Y-137147800D01*
X202361800Y-139510000D02*
X204038200Y-139510000D01*
X199186800Y-142812000D02*
X200787000Y-142812000D01*
X198501000Y-144539200D02*
X198501000Y-143497800D01*
X206756000Y-154064200D02*
X206756500Y-152464000D01*
X207137500Y-152083000D02*
X208788500Y-152083000D01*
X201168000Y-143193000D02*
X201168000Y-144844000D01*
X204724000Y-138824200D02*
X204724000Y-137147800D01*
X209169500Y-152464000D02*
X209169000Y-154064200D01*
X200787000Y-145225000D02*
X199186800Y-145225000D01*
X202361800Y-136462000D02*
X204038200Y-136462000D01*
X208483200Y-154750000D02*
X207441800Y-154750000D01*
X209169000Y-154064200D02*
G75*
G03*
X208483200Y-154750000I-247750J-438050D01*
G01*
X204038200Y-136462000D02*
G75*
G03*
X204724000Y-137147800I438050J-247750D01*
G01*
X200787000Y-145225000D02*
G75*
G03*
X201168000Y-144844000I1J380999D01*
G01*
X204724000Y-138824200D02*
G75*
G03*
X204038200Y-139510000I-247753J-438047D01*
G01*
X202361800Y-139510000D02*
G75*
G03*
X201676000Y-138824200I-438047J247753D01*
G01*
X198501000Y-143497800D02*
G75*
G03*
X199186800Y-142812000I247753J438047D01*
G01*
X201676000Y-137147800D02*
G75*
G03*
X202361800Y-136462000I247753J438047D01*
G01*
X207441800Y-154750000D02*
G75*
G03*
X206756000Y-154064200I-438050J247750D01*
G01*
X199186800Y-145225000D02*
G75*
G03*
X198501000Y-144539200I-438047J247753D01*
G01*
X209169500Y-152464000D02*
G75*
G03*
X208788500Y-152083000I-381000J0D01*
G01*
X207137500Y-152083000D02*
G75*
G03*
X206756500Y-152464000I0J-381000D01*
G01*
X201168000Y-143193000D02*
G75*
G03*
X200787000Y-142812000I-380999J1D01*
G01*
M02*
