%TF.GenerationSoftware,KiCad,Pcbnew,6.0.11-3.fc36*%
%TF.CreationDate,2023-03-08T22:01:10-05:00*%
%TF.ProjectId,moth,6d6f7468-2e6b-4696-9361-645f70636258,v1.0.0*%
%TF.SameCoordinates,Original*%
%TF.FileFunction,Copper,L2,Bot*%
%TF.FilePolarity,Positive*%
%FSLAX46Y46*%
G04 Gerber Fmt 4.6, Leading zero omitted, Abs format (unit mm)*
G04 Created by KiCad (PCBNEW 6.0.11-3.fc36) date 2023-03-08 22:01:10*
%MOMM*%
%LPD*%
G01*
G04 APERTURE LIST*
G04 Aperture macros list*
%AMRoundRect*
0 Rectangle with rounded corners*
0 $1 Rounding radius*
0 $2 $3 $4 $5 $6 $7 $8 $9 X,Y pos of 4 corners*
0 Add a 4 corners polygon primitive as box body*
4,1,4,$2,$3,$4,$5,$6,$7,$8,$9,$2,$3,0*
0 Add four circle primitives for the rounded corners*
1,1,$1+$1,$2,$3*
1,1,$1+$1,$4,$5*
1,1,$1+$1,$6,$7*
1,1,$1+$1,$8,$9*
0 Add four rect primitives between the rounded corners*
20,1,$1+$1,$2,$3,$4,$5,0*
20,1,$1+$1,$4,$5,$6,$7,0*
20,1,$1+$1,$6,$7,$8,$9,0*
20,1,$1+$1,$8,$9,$2,$3,0*%
%AMRotRect*
0 Rectangle, with rotation*
0 The origin of the aperture is its center*
0 $1 length*
0 $2 width*
0 $3 Rotation angle, in degrees counterclockwise*
0 Add horizontal line*
21,1,$1,$2,0,0,$3*%
G04 Aperture macros list end*
%TA.AperFunction,SMDPad,CuDef*%
%ADD10RoundRect,0.250000X0.750000X-0.250000X0.750000X0.250000X-0.750000X0.250000X-0.750000X-0.250000X0*%
%TD*%
%TA.AperFunction,SMDPad,CuDef*%
%ADD11RoundRect,0.250000X-0.750000X0.250000X-0.750000X-0.250000X0.750000X-0.250000X0.750000X0.250000X0*%
%TD*%
%TA.AperFunction,ComponentPad*%
%ADD12RoundRect,0.250000X0.625000X-0.350000X0.625000X0.350000X-0.625000X0.350000X-0.625000X-0.350000X0*%
%TD*%
%TA.AperFunction,ComponentPad*%
%ADD13O,1.750000X1.200000*%
%TD*%
%TA.AperFunction,ComponentPad*%
%ADD14RoundRect,0.300000X0.575000X-0.300000X0.575000X0.300000X-0.575000X0.300000X-0.575000X-0.300000X0*%
%TD*%
%TA.AperFunction,ComponentPad*%
%ADD15C,2.000000*%
%TD*%
%TA.AperFunction,SMDPad,CuDef*%
%ADD16RotRect,2.600000X2.600000X205.000000*%
%TD*%
%TA.AperFunction,SMDPad,CuDef*%
%ADD17RotRect,0.900000X1.200000X335.000000*%
%TD*%
%TA.AperFunction,SMDPad,CuDef*%
%ADD18RotRect,2.600000X2.600000X155.000000*%
%TD*%
%TA.AperFunction,SMDPad,CuDef*%
%ADD19RotRect,0.900000X1.200000X343.000000*%
%TD*%
%TA.AperFunction,SMDPad,CuDef*%
%ADD20RotRect,2.600000X2.600000X200.000000*%
%TD*%
%TA.AperFunction,SMDPad,CuDef*%
%ADD21RotRect,2.600000X2.600000X160.000000*%
%TD*%
%TA.AperFunction,SMDPad,CuDef*%
%ADD22RotRect,0.900000X1.200000X25.000000*%
%TD*%
%TA.AperFunction,SMDPad,CuDef*%
%ADD23RotRect,0.900000X1.200000X20.000000*%
%TD*%
%TA.AperFunction,SMDPad,CuDef*%
%ADD24RotRect,0.900000X1.200000X49.000000*%
%TD*%
%TA.AperFunction,ComponentPad*%
%ADD25C,1.397000*%
%TD*%
%TA.AperFunction,SMDPad,CuDef*%
%ADD26RotRect,2.600000X2.600000X131.000000*%
%TD*%
%TA.AperFunction,SMDPad,CuDef*%
%ADD27RotRect,2.600000X2.600000X217.000000*%
%TD*%
%TA.AperFunction,SMDPad,CuDef*%
%ADD28RotRect,2.600000X2.600000X163.000000*%
%TD*%
%TA.AperFunction,SMDPad,CuDef*%
%ADD29RotRect,0.900000X1.200000X340.000000*%
%TD*%
%TA.AperFunction,SMDPad,CuDef*%
%ADD30RotRect,0.900000X1.200000X311.000000*%
%TD*%
%TA.AperFunction,SMDPad,CuDef*%
%ADD31RotRect,0.900000X1.200000X17.000000*%
%TD*%
%TA.AperFunction,SMDPad,CuDef*%
%ADD32RotRect,0.900000X1.200000X323.000000*%
%TD*%
%TA.AperFunction,SMDPad,CuDef*%
%ADD33RotRect,2.600000X2.600000X143.000000*%
%TD*%
%TA.AperFunction,SMDPad,CuDef*%
%ADD34RotRect,0.900000X1.200000X37.000000*%
%TD*%
%TA.AperFunction,SMDPad,CuDef*%
%ADD35RotRect,2.600000X2.600000X197.000000*%
%TD*%
%TA.AperFunction,SMDPad,CuDef*%
%ADD36RotRect,2.600000X2.600000X229.000000*%
%TD*%
%TA.AperFunction,SMDPad,CuDef*%
%ADD37R,1.000000X0.800000*%
%TD*%
%TA.AperFunction,SMDPad,CuDef*%
%ADD38R,0.700000X1.500000*%
%TD*%
%TA.AperFunction,ViaPad*%
%ADD39C,0.800000*%
%TD*%
%TA.AperFunction,Conductor*%
%ADD40C,0.254000*%
%TD*%
G04 APERTURE END LIST*
D10*
X204216000Y-154813000D03*
X199517000Y-154813000D03*
D11*
X203327000Y-147955000D03*
D12*
X216431000Y-147415000D03*
D13*
X216431000Y-145415000D03*
D14*
X216431000Y-143415000D03*
D15*
X246791521Y-98556577D03*
D16*
X255018467Y-107740149D03*
D15*
X252210559Y-98346732D03*
D16*
X243119329Y-110971714D03*
D17*
X125977727Y-131753942D03*
X122986912Y-130359302D03*
D15*
X171695837Y-115226784D03*
D18*
X169948992Y-127432076D03*
X159824850Y-120394018D03*
D15*
X175339877Y-119243122D03*
D19*
X135927029Y-165985219D03*
X132771223Y-165020393D03*
D20*
X310391663Y-142401824D03*
D15*
X302996424Y-132536174D03*
D20*
X298256155Y-144584015D03*
D15*
X308413130Y-132799427D03*
D18*
X152914938Y-182591976D03*
D15*
X154661783Y-170386684D03*
D18*
X142790796Y-175553918D03*
D15*
X158305823Y-174403022D03*
D21*
X93337116Y-118017668D03*
D15*
X94013553Y-105706574D03*
X97993774Y-109390029D03*
D21*
X82638093Y-111888769D03*
D22*
X249168321Y-99986027D03*
X246177505Y-101380667D03*
D15*
X318200790Y-121681348D03*
D20*
X325596029Y-131546998D03*
X313460521Y-133729189D03*
D15*
X323617496Y-121944601D03*
D22*
X229219788Y-142389518D03*
X226228972Y-143784158D03*
D23*
X305239594Y-134167336D03*
X302138608Y-135296002D03*
D15*
X152423969Y-113963810D03*
D18*
X150677124Y-126169102D03*
D15*
X156068009Y-117980148D03*
D18*
X140552982Y-119131044D03*
D24*
X220176456Y-196637036D03*
X218011461Y-199127577D03*
D17*
X172805256Y-159106867D03*
X169814441Y-157712227D03*
D22*
X276047318Y-115036593D03*
X273056502Y-116431233D03*
D25*
X201930000Y-136716000D03*
X204470000Y-136716000D03*
X201930000Y-139256000D03*
X204470000Y-139256000D03*
X198755000Y-144971000D03*
X198755000Y-143066000D03*
X207010000Y-154496000D03*
X208915000Y-154496000D03*
D22*
X283231828Y-130443826D03*
X280241012Y-131838466D03*
D17*
X133162237Y-116346709D03*
X130171422Y-114952069D03*
D15*
X297182081Y-116561399D03*
D20*
X304577320Y-126427049D03*
X292441812Y-128609240D03*
D15*
X302598787Y-116824652D03*
D17*
X164944081Y-133373582D03*
X161953266Y-131978942D03*
D22*
X256352831Y-115393260D03*
X253362015Y-116787900D03*
D26*
X182416107Y-206737483D03*
D15*
X188976269Y-196297900D03*
X190671674Y-201449172D03*
D26*
X176029879Y-196190038D03*
D16*
X262202978Y-123147382D03*
D15*
X253976032Y-113963810D03*
X259395070Y-113753965D03*
D16*
X250303840Y-126378947D03*
X227885424Y-134736408D03*
D15*
X219658478Y-125552836D03*
D16*
X215986286Y-137967973D03*
D15*
X225077516Y-125342991D03*
X172372502Y-156367301D03*
D18*
X170625657Y-168572593D03*
D15*
X176016542Y-160383639D03*
D18*
X160501515Y-161534535D03*
D15*
X233035968Y-181453404D03*
D27*
X242992508Y-188725815D03*
X232025275Y-194360733D03*
D15*
X238292957Y-180121464D03*
X179557012Y-140960068D03*
D18*
X177810167Y-153165360D03*
D15*
X183201052Y-144976406D03*
D18*
X167686025Y-146127302D03*
D21*
X108541482Y-128872493D03*
D15*
X109217919Y-116561399D03*
X113198140Y-120244854D03*
D21*
X97842459Y-122743594D03*
D15*
X135117211Y-163332542D03*
D28*
X135086014Y-175662167D03*
X124080892Y-170101611D03*
D15*
X139284754Y-166802640D03*
D16*
X242254445Y-165550873D03*
D15*
X234027499Y-156367301D03*
X239446537Y-156157456D03*
D16*
X230355307Y-168782438D03*
D22*
X222035278Y-126982286D03*
X219044462Y-128376926D03*
D15*
X291367739Y-100586625D03*
D20*
X298762978Y-110452275D03*
X286627470Y-112634466D03*
D15*
X296784445Y-100849878D03*
D23*
X299425252Y-118192561D03*
X296324266Y-119321227D03*
D16*
X259965164Y-179570256D03*
D15*
X251738218Y-170386684D03*
D16*
X248066026Y-182801821D03*
D15*
X257157256Y-170176839D03*
D17*
X179989766Y-143699634D03*
X176998951Y-142304994D03*
D29*
X94683430Y-108397997D03*
X91582444Y-107269331D03*
D17*
X172128591Y-117966350D03*
X169137776Y-116571710D03*
D15*
X159608479Y-98556577D03*
D18*
X157861634Y-110761869D03*
X147737492Y-103723811D03*
D15*
X163252519Y-102572915D03*
D29*
X115702139Y-103278049D03*
X112601153Y-102149383D03*
D30*
X188257327Y-198976635D03*
X186092333Y-196486094D03*
D15*
X132729483Y-113607143D03*
D18*
X130982638Y-125812435D03*
X120858496Y-118774377D03*
D15*
X136373523Y-117623481D03*
D22*
X236404299Y-157796751D03*
X233413483Y-159191391D03*
D17*
X152856723Y-116703376D03*
X149865908Y-115308736D03*
D15*
X280855028Y-129014375D03*
D16*
X289081974Y-138197947D03*
D15*
X286274066Y-128804530D03*
D16*
X277182836Y-141429512D03*
D15*
X164511327Y-130634016D03*
D18*
X162764482Y-142839308D03*
D15*
X168155367Y-134650354D03*
D18*
X152640340Y-135801250D03*
D31*
X273437517Y-165078867D03*
X270281711Y-166043694D03*
D17*
X155094537Y-173126250D03*
X152103722Y-171731610D03*
D15*
X234704164Y-115226784D03*
D16*
X242931110Y-124410356D03*
X231031972Y-127641921D03*
D15*
X240123202Y-115016939D03*
D18*
X138167148Y-110405203D03*
D15*
X139913993Y-98199911D03*
X143558033Y-102216249D03*
D18*
X128043006Y-103367145D03*
X184994677Y-137758128D03*
D15*
X186741522Y-125552836D03*
D18*
X174870535Y-130720070D03*
D15*
X190385562Y-129569174D03*
D18*
X143492614Y-141576334D03*
D15*
X145239459Y-129371042D03*
X148883499Y-133387380D03*
D18*
X133368472Y-134538276D03*
D32*
X173217743Y-184223080D03*
X170582246Y-182237091D03*
D15*
X312386448Y-105706574D03*
D20*
X319781687Y-115572224D03*
X307646179Y-117754415D03*
D15*
X317803154Y-105969827D03*
X173364033Y-181453404D03*
D33*
X169117737Y-193028792D03*
X160678127Y-184039605D03*
D15*
X176093399Y-186139614D03*
D18*
X123798127Y-141219667D03*
D15*
X125544972Y-129014375D03*
X129189012Y-133030713D03*
D18*
X113673985Y-134181609D03*
D29*
X88869088Y-124372772D03*
X85768102Y-123244106D03*
D17*
X160041234Y-101296143D03*
X157050419Y-99901503D03*
D34*
X235658028Y-182357454D03*
X233022531Y-184343443D03*
D29*
X104073454Y-135227598D03*
X100972468Y-134098932D03*
D16*
X281897464Y-122790715D03*
D15*
X273670518Y-113607143D03*
X279089556Y-113397298D03*
D16*
X269998326Y-126022280D03*
D15*
X266486008Y-98199911D03*
D16*
X274712954Y-107383483D03*
D15*
X271905046Y-97990066D03*
D16*
X262813816Y-110615048D03*
D22*
X268862807Y-99629361D03*
X265871991Y-101024001D03*
X254115018Y-171816134D03*
X251124202Y-173210774D03*
X251449984Y-147470699D03*
X248459168Y-148865339D03*
D18*
X155579971Y-158246541D03*
D15*
X157326816Y-146041249D03*
X160970856Y-150057587D03*
D18*
X145455829Y-151208483D03*
D23*
X314629618Y-107337735D03*
X311528632Y-108466401D03*
X320443961Y-123312510D03*
X317342975Y-124441176D03*
D15*
X271282790Y-163332542D03*
D35*
X278151566Y-173571709D03*
X265918482Y-175115785D03*
D15*
X276678294Y-163878923D03*
D22*
X244265474Y-132063466D03*
X241274658Y-133458106D03*
D23*
X293610909Y-102217787D03*
X290509923Y-103346453D03*
D17*
X140346748Y-100939477D03*
X137355933Y-99544837D03*
D15*
X241888674Y-130634016D03*
D16*
X250115620Y-139817588D03*
X238216482Y-143049153D03*
D15*
X247307712Y-130424171D03*
D21*
X114355825Y-112897719D03*
D15*
X115032262Y-100586625D03*
X119012483Y-104270080D03*
D21*
X103656802Y-106768820D03*
D15*
X249073184Y-146041249D03*
D16*
X257300130Y-155224821D03*
D15*
X254492222Y-145831404D03*
D16*
X245400992Y-158456386D03*
D17*
X145672213Y-132110608D03*
X142681398Y-130715968D03*
X187174277Y-128292402D03*
X184183462Y-126897762D03*
X157759571Y-148780815D03*
X154768756Y-147386175D03*
D16*
X235069935Y-150143640D03*
D15*
X226842989Y-140960068D03*
D16*
X223170797Y-153375205D03*
D15*
X232262027Y-140750223D03*
X103403577Y-132536174D03*
D21*
X102727140Y-144847268D03*
X92028117Y-138718369D03*
D15*
X107383798Y-136219629D03*
D22*
X237080963Y-116656234D03*
X234090147Y-118050874D03*
D36*
X228674717Y-201341310D03*
D15*
X217423732Y-196297900D03*
D36*
X219118709Y-209133307D03*
D15*
X222288918Y-193902076D03*
X88199210Y-121681348D03*
D21*
X87522773Y-133992442D03*
X76823750Y-127863543D03*
D15*
X92179431Y-125364803D03*
D22*
X263537342Y-130800492D03*
X260546526Y-132195132D03*
D15*
X261160542Y-129371042D03*
D16*
X269387488Y-138554614D03*
X257488350Y-141786179D03*
D15*
X266579580Y-129161197D03*
D29*
X109887797Y-119252823D03*
X106786811Y-118124157D03*
D37*
X199550000Y-201328000D03*
X206850000Y-199118000D03*
X206850000Y-201328000D03*
X199550000Y-199118000D03*
D38*
X205450000Y-198468000D03*
X202450000Y-198468000D03*
X200950000Y-198468000D03*
D39*
X213141500Y-139319000D03*
X110363000Y-121031000D03*
X164846000Y-135255000D03*
X153162000Y-118491000D03*
X133223000Y-117856000D03*
X89154000Y-126365000D03*
X179578000Y-145161000D03*
X193169188Y-146428812D03*
X115951000Y-105029000D03*
X186817000Y-129921000D03*
X172085000Y-120015000D03*
X140335000Y-102362000D03*
X160147000Y-102489000D03*
X193167000Y-144653000D03*
X94615000Y-110236000D03*
X172593000Y-160782000D03*
X157988000Y-151511000D03*
X126111000Y-133477000D03*
X135763000Y-167894000D03*
X104521000Y-137287000D03*
X145923000Y-133350000D03*
X193167000Y-149606000D03*
X222504000Y-196088000D03*
X188849000Y-199771000D03*
X255016000Y-173355000D03*
X173355000Y-185547000D03*
X156210000Y-175768000D03*
X236855000Y-182245000D03*
X245618000Y-132588000D03*
X300482000Y-118872000D03*
X230251000Y-143764000D03*
X257429000Y-115951000D03*
X321310000Y-124968000D03*
X277114000Y-115951000D03*
X237744000Y-117602000D03*
X314960000Y-108712000D03*
X270002000Y-100457000D03*
X294767000Y-102997000D03*
X249936000Y-100838000D03*
X223012000Y-127889000D03*
X273685000Y-162941000D03*
X252476000Y-148209000D03*
X284480000Y-131572000D03*
X306197000Y-135001000D03*
X264668000Y-131572000D03*
X238125000Y-158877000D03*
X302133000Y-147066000D03*
X193167000Y-151892000D03*
X235099633Y-176565500D03*
X244348000Y-180467000D03*
X271780000Y-142113000D03*
X163220627Y-174879000D03*
X236001500Y-175803500D03*
X239359500Y-175260000D03*
X165227000Y-176337385D03*
X261288608Y-158257478D03*
X259080000Y-159385000D03*
X238125000Y-175077000D03*
X167513000Y-175883385D03*
X259080000Y-158115000D03*
X235047669Y-175077000D03*
X261149500Y-156654500D03*
X236001500Y-177292000D03*
X238633000Y-177292000D03*
X156984766Y-166611234D03*
X193294000Y-136525000D03*
X162814000Y-172847000D03*
X234569000Y-178054000D03*
X162312627Y-171241913D03*
X193294000Y-139319000D03*
X158184214Y-167189786D03*
X193167000Y-141859000D03*
X205232000Y-196850000D03*
X196215000Y-191986500D03*
X201803000Y-196723000D03*
X191897000Y-192440500D03*
D40*
X217551000Y-145415000D02*
X216431000Y-145415000D01*
X213141500Y-139319000D02*
X213106000Y-139319000D01*
X213106000Y-139319000D02*
X210693000Y-141732000D01*
X210693000Y-141732000D02*
X208788000Y-141732000D01*
X195445948Y-155956000D02*
X205740000Y-155956000D01*
X205740000Y-155956000D02*
X208280000Y-155956000D01*
X204216000Y-154813000D02*
X205359000Y-155956000D01*
X205359000Y-155956000D02*
X205740000Y-155956000D01*
X193675000Y-153543000D02*
X198120000Y-153543000D01*
X198120000Y-153543000D02*
X205695915Y-153543000D01*
X199517000Y-154813000D02*
X198247000Y-153543000D01*
X198247000Y-153543000D02*
X198120000Y-153543000D01*
X205740000Y-149987000D02*
X202184000Y-149987000D01*
X215511948Y-149987000D02*
X205740000Y-149987000D01*
X205740000Y-149987000D02*
X205359000Y-149987000D01*
X205359000Y-149987000D02*
X203454000Y-148082000D01*
X206248000Y-141732000D02*
X205867000Y-141732000D01*
X205867000Y-141732000D02*
X204470000Y-140335000D01*
X204470000Y-140335000D02*
X204470000Y-139256000D01*
X206248000Y-141732000D02*
X208788000Y-141732000D01*
X199263000Y-141732000D02*
X206248000Y-141732000D01*
X208788000Y-141732000D02*
X214748000Y-141732000D01*
X165227000Y-176337385D02*
X170422385Y-171142000D01*
X188517104Y-145507000D02*
X189935844Y-145507000D01*
X170422385Y-171142000D02*
X172019052Y-171142000D01*
X181048000Y-152976104D02*
X188517104Y-145507000D01*
X172019052Y-171142000D02*
X181048000Y-162113052D01*
X181048000Y-162113052D02*
X181048000Y-152976104D01*
X191986000Y-151854000D02*
X193675000Y-153543000D01*
X189935844Y-145507000D02*
X191986000Y-147557156D01*
X191986000Y-147557156D02*
X191986000Y-151854000D01*
X205695915Y-153543000D02*
X206648915Y-154496000D01*
X206648915Y-154496000D02*
X207010000Y-154496000D01*
X167513000Y-175883385D02*
X167513000Y-174693437D01*
X181502000Y-153164156D02*
X188705156Y-145961000D01*
X167513000Y-174693437D02*
X170610437Y-171596000D01*
X170610437Y-171596000D02*
X172207104Y-171596000D01*
X172207104Y-171596000D02*
X181502000Y-162301104D01*
X208915000Y-155321000D02*
X208915000Y-154496000D01*
X181502000Y-162301104D02*
X181502000Y-153164156D01*
X208280000Y-155956000D02*
X208915000Y-155321000D01*
X188705156Y-145961000D02*
X189747792Y-145961000D01*
X189747792Y-145961000D02*
X191532000Y-147745208D01*
X191532000Y-147745208D02*
X191532000Y-152042052D01*
X191532000Y-152042052D02*
X195445948Y-155956000D01*
X220472000Y-148336000D02*
X217551000Y-145415000D01*
X220472000Y-154305000D02*
X220472000Y-148336000D01*
X228300703Y-162133703D02*
X220472000Y-154305000D01*
X228300703Y-169546682D02*
X228300703Y-162133703D01*
X231775000Y-173020979D02*
X228300703Y-169546682D01*
X231775000Y-176487687D02*
X231775000Y-173020979D01*
X228005974Y-180256713D02*
X231775000Y-176487687D01*
X228005974Y-187354026D02*
X228005974Y-180256713D01*
X225479000Y-189881000D02*
X228005974Y-187354026D01*
X216596632Y-189881000D02*
X225479000Y-189881000D01*
X213764632Y-192713000D02*
X216596632Y-189881000D01*
X192169500Y-192713000D02*
X213764632Y-192713000D01*
X191897000Y-192440500D02*
X192169500Y-192713000D01*
X216122000Y-143415000D02*
X215011000Y-144526000D01*
X215011000Y-145995000D02*
X216431000Y-147415000D01*
X216431000Y-143415000D02*
X216122000Y-143415000D01*
X215011000Y-144526000D02*
X215011000Y-145995000D01*
X153162000Y-117008653D02*
X152856723Y-116703376D01*
X180975000Y-146558000D02*
X179578000Y-145161000D01*
X109887797Y-119252823D02*
X109887797Y-120555797D01*
X133223000Y-117856000D02*
X133223000Y-116407472D01*
X185539948Y-146558000D02*
X180975000Y-146558000D01*
X192783812Y-146428812D02*
X190500000Y-144145000D01*
X88869088Y-126080088D02*
X89154000Y-126365000D01*
X88869088Y-124372772D02*
X88869088Y-126080088D01*
X164846000Y-135255000D02*
X164846000Y-133471663D01*
X133223000Y-116407472D02*
X133162237Y-116346709D01*
X193169188Y-146428812D02*
X192783812Y-146428812D01*
X187952947Y-144145000D02*
X185539948Y-146558000D01*
X164846000Y-133471663D02*
X164944081Y-133373582D01*
X179578000Y-144111400D02*
X179989766Y-143699634D01*
X109887797Y-120555797D02*
X110363000Y-121031000D01*
X179578000Y-145161000D02*
X179578000Y-144111400D01*
X153162000Y-118491000D02*
X153162000Y-117008653D01*
X190500000Y-144145000D02*
X187952947Y-144145000D01*
X115951000Y-103526910D02*
X115702139Y-103278049D01*
X186817000Y-129921000D02*
X186817000Y-128649679D01*
X140335000Y-100951225D02*
X140346748Y-100939477D01*
X172085000Y-118009941D02*
X172128591Y-117966350D01*
X94683430Y-110167570D02*
X94615000Y-110236000D01*
X140335000Y-102362000D02*
X140335000Y-100951225D01*
X193167000Y-144653000D02*
X192078000Y-143564000D01*
X186817000Y-132549584D02*
X186817000Y-129921000D01*
X160147000Y-101401909D02*
X160041234Y-101296143D01*
X186817000Y-128649679D02*
X187174277Y-128292402D01*
X94683430Y-108397997D02*
X94683430Y-110167570D01*
X172085000Y-120015000D02*
X172085000Y-118009941D01*
X115951000Y-105029000D02*
X115951000Y-103526910D01*
X192078000Y-143564000D02*
X192078000Y-137810584D01*
X160147000Y-102489000D02*
X160147000Y-101401909D01*
X192078000Y-137810584D02*
X186817000Y-132549584D01*
X93337116Y-118017668D02*
X93337116Y-115535222D01*
X93145201Y-105706574D02*
X94013553Y-105706574D01*
X93337116Y-115535222D02*
X89914633Y-112112739D01*
X89914633Y-112112739D02*
X89914633Y-108937142D01*
X89914633Y-108937142D02*
X91582444Y-107269331D01*
X91582444Y-107269331D02*
X93145201Y-105706574D01*
X157988000Y-151511000D02*
X157759571Y-151282571D01*
X145923000Y-132361395D02*
X145672213Y-132110608D01*
X173863000Y-162052000D02*
X172593000Y-160782000D01*
X157759571Y-151282571D02*
X157759571Y-148780815D01*
X180086000Y-159512000D02*
X177546000Y-162052000D01*
X193167000Y-147454052D02*
X190311948Y-144599000D01*
X172593000Y-160782000D02*
X172593000Y-159319123D01*
X172593000Y-159319123D02*
X172805256Y-159106867D01*
X126111000Y-133477000D02*
X126111000Y-131887215D01*
X135927029Y-167729971D02*
X135763000Y-167894000D01*
X188141000Y-144599000D02*
X180086000Y-152654000D01*
X104073454Y-135227598D02*
X104073454Y-136839454D01*
X190311948Y-144599000D02*
X188141000Y-144599000D01*
X104073454Y-136839454D02*
X104521000Y-137287000D01*
X145923000Y-133350000D02*
X145923000Y-132361395D01*
X180086000Y-152654000D02*
X180086000Y-159512000D01*
X177546000Y-162052000D02*
X173863000Y-162052000D01*
X193167000Y-149606000D02*
X193167000Y-147454052D01*
X126111000Y-131887215D02*
X125977727Y-131753942D01*
X135927029Y-165985219D02*
X135927029Y-167729971D01*
X112601153Y-102149383D02*
X114163911Y-100586625D01*
X114163911Y-100586625D02*
X115032262Y-100586625D01*
X112601153Y-102149383D02*
X110933342Y-103817194D01*
X110933342Y-108901342D02*
X114355825Y-112323825D01*
X110933342Y-103817194D02*
X110933342Y-108901342D01*
X114355825Y-112323825D02*
X114355825Y-112897719D01*
X135339544Y-106383544D02*
X138167148Y-109211148D01*
X138700859Y-98199911D02*
X139913993Y-98199911D01*
X137355933Y-99544837D02*
X135339544Y-101561226D01*
X135339544Y-101561226D02*
X135339544Y-106383544D01*
X137355933Y-99544837D02*
X138700859Y-98199911D01*
X138167148Y-109211148D02*
X138167148Y-110405203D01*
X157861634Y-109093634D02*
X157861634Y-110761869D01*
X157050419Y-99901503D02*
X155034030Y-101917892D01*
X158395345Y-98556577D02*
X159608479Y-98556577D01*
X155034030Y-101917892D02*
X155034030Y-106266030D01*
X155034030Y-106266030D02*
X157861634Y-109093634D01*
X157050419Y-99901503D02*
X158395345Y-98556577D01*
X167121388Y-118588098D02*
X167121388Y-123170081D01*
X169137776Y-116571710D02*
X170482702Y-115226784D01*
X170482702Y-115226784D02*
X171695837Y-115226784D01*
X169948992Y-125997685D02*
X169948992Y-127432076D01*
X167121388Y-123170081D02*
X169948992Y-125997685D01*
X169137776Y-116571710D02*
X167121388Y-118588098D01*
X182167073Y-128914151D02*
X182167073Y-133999577D01*
X182167073Y-133999577D02*
X184994677Y-136827181D01*
X184994677Y-136827181D02*
X184994677Y-137758128D01*
X184183462Y-126897762D02*
X182167073Y-128914151D01*
X185528388Y-125552836D02*
X186741522Y-125552836D01*
X184183462Y-126897762D02*
X185528388Y-125552836D01*
X236855000Y-182245000D02*
X235770482Y-182245000D01*
X193872000Y-195891000D02*
X215081000Y-195891000D01*
X188257327Y-198976635D02*
X188478962Y-198755000D01*
X215081000Y-195891000D02*
X216281000Y-194691000D01*
X155094537Y-173126250D02*
X155094537Y-174652537D01*
X188849000Y-199771000D02*
X188849000Y-199568308D01*
X188849000Y-199568308D02*
X188257327Y-198976635D01*
X218230420Y-194691000D02*
X220176456Y-196637036D01*
X220176456Y-196637036D02*
X221954964Y-196637036D01*
X235770482Y-182245000D02*
X235658028Y-182357454D01*
X216281000Y-194691000D02*
X218230420Y-194691000D01*
X255016000Y-172717116D02*
X254115018Y-171816134D01*
X173355000Y-185547000D02*
X173355000Y-184360337D01*
X255016000Y-173355000D02*
X255016000Y-172717116D01*
X191008000Y-198755000D02*
X193872000Y-195891000D01*
X155094537Y-174652537D02*
X156210000Y-175768000D01*
X221954964Y-196637036D02*
X222504000Y-196088000D01*
X188478962Y-198755000D02*
X191008000Y-198755000D01*
X173355000Y-184360337D02*
X173217743Y-184223080D01*
X169117737Y-191072288D02*
X169117737Y-193028792D01*
X170582246Y-182237091D02*
X167732323Y-185087014D01*
X167732323Y-185087014D02*
X167732323Y-189686874D01*
X173364033Y-181453404D02*
X171365933Y-181453404D01*
X167732323Y-189686874D02*
X169117737Y-191072288D01*
X171365933Y-181453404D02*
X170582246Y-182237091D01*
X185263056Y-196486094D02*
X182416107Y-199333043D01*
X186280527Y-196297900D02*
X186092333Y-196486094D01*
X182416107Y-199333043D02*
X182416107Y-206737483D01*
X188976269Y-196297900D02*
X186280527Y-196297900D01*
X186092333Y-196486094D02*
X185263056Y-196486094D01*
X277114000Y-115951000D02*
X276961725Y-115951000D01*
X256910571Y-115951000D02*
X256352831Y-115393260D01*
X245618000Y-132588000D02*
X244790008Y-132588000D01*
X300482000Y-118872000D02*
X300104691Y-118872000D01*
X321310000Y-124178549D02*
X320443961Y-123312510D01*
X229219788Y-142389518D02*
X229219788Y-142732788D01*
X257429000Y-115951000D02*
X256910571Y-115951000D01*
X321310000Y-124968000D02*
X321310000Y-124178549D01*
X244790008Y-132588000D02*
X244265474Y-132063466D01*
X300104691Y-118872000D02*
X299425252Y-118192561D01*
X276961725Y-115951000D02*
X276047318Y-115036593D01*
X229219788Y-142732788D02*
X230251000Y-143764000D01*
X249936000Y-100753706D02*
X249168321Y-99986027D01*
X294390122Y-102997000D02*
X293610909Y-102217787D01*
X249936000Y-100838000D02*
X249936000Y-100753706D01*
X222035278Y-126982286D02*
X222105286Y-126982286D01*
X294767000Y-102997000D02*
X294390122Y-102997000D01*
X237744000Y-117602000D02*
X237744000Y-117319271D01*
X237744000Y-117319271D02*
X237080963Y-116656234D01*
X269690446Y-100457000D02*
X268862807Y-99629361D01*
X314960000Y-108712000D02*
X314960000Y-107668117D01*
X270002000Y-100457000D02*
X269690446Y-100457000D01*
X222105286Y-126982286D02*
X223012000Y-127889000D01*
X314960000Y-107668117D02*
X314629618Y-107337735D01*
X252476000Y-148209000D02*
X252188285Y-148209000D01*
X237044751Y-157796751D02*
X238125000Y-158877000D01*
X306073258Y-135001000D02*
X305239594Y-134167336D01*
X252188285Y-148209000D02*
X251449984Y-147470699D01*
X273685000Y-164831384D02*
X273437517Y-165078867D01*
X236404299Y-157796751D02*
X237044751Y-157796751D01*
X264668000Y-131572000D02*
X264308850Y-131572000D01*
X284360002Y-131572000D02*
X283231828Y-130443826D01*
X306197000Y-135001000D02*
X306073258Y-135001000D01*
X273685000Y-162941000D02*
X273685000Y-164831384D01*
X284480000Y-131572000D02*
X284360002Y-131572000D01*
X264308850Y-131572000D02*
X263537342Y-130800492D01*
X280855028Y-129014375D02*
X280855028Y-131224450D01*
X283457905Y-137414000D02*
X288298027Y-137414000D01*
X280241012Y-134197107D02*
X283457905Y-137414000D01*
X288298027Y-137414000D02*
X289081974Y-138197947D01*
X280241012Y-131838466D02*
X280241012Y-134197107D01*
X280855028Y-131224450D02*
X280241012Y-131838466D01*
X261160542Y-129371042D02*
X261160542Y-131581116D01*
X261160542Y-131581116D02*
X260546526Y-132195132D01*
X269008874Y-138176000D02*
X269387488Y-138554614D01*
X264168752Y-138176000D02*
X269008874Y-138176000D01*
X260546526Y-132195132D02*
X260546526Y-134553774D01*
X260546526Y-134553774D02*
X264168752Y-138176000D01*
X140284754Y-167802640D02*
X139284754Y-166802640D01*
X315719327Y-103886000D02*
X317803154Y-105969827D01*
X263017000Y-161163000D02*
X273962371Y-161163000D01*
X114038948Y-138430000D02*
X119337219Y-143728271D01*
X233623343Y-176565500D02*
X235099633Y-176565500D01*
X130927882Y-178308000D02*
X136144000Y-178308000D01*
X281559000Y-167767000D02*
X277670923Y-163878923D01*
X136144000Y-178308000D02*
X137922000Y-176530000D01*
X180721000Y-183486790D02*
X180721000Y-187811844D01*
X180594000Y-161925000D02*
X171831000Y-170688000D01*
X263090000Y-180775000D02*
X263090000Y-177944267D01*
X76823750Y-129246974D02*
X89943776Y-142367000D01*
X140284754Y-174167246D02*
X140284754Y-167802640D01*
X271316884Y-142576116D02*
X262158779Y-142576116D01*
X214328789Y-194075000D02*
X217160790Y-191243000D01*
X260423000Y-158569000D02*
X263017000Y-161163000D01*
X85471000Y-120142000D02*
X90424000Y-120142000D01*
X124080892Y-170101611D02*
X124080892Y-171461010D01*
X258899000Y-150179949D02*
X260423000Y-151703948D01*
X244348000Y-180467000D02*
X244348000Y-182618948D01*
X82638093Y-117309093D02*
X85471000Y-120142000D01*
X151257000Y-168910000D02*
X141392114Y-168910000D01*
X313460521Y-133729189D02*
X313460521Y-123546479D01*
X271780000Y-142113000D02*
X271316884Y-142576116D01*
X110617000Y-138430000D02*
X114038948Y-138430000D01*
X76823750Y-127863543D02*
X76823750Y-126480112D01*
X141478000Y-146685000D02*
X141478000Y-153416000D01*
X76823750Y-126480112D02*
X83161862Y-120142000D01*
X278257000Y-177165000D02*
X281559000Y-173863000D01*
X192440000Y-151165000D02*
X192440000Y-147369104D01*
X186238156Y-193329000D02*
X190281000Y-193329000D01*
X302133000Y-147066000D02*
X309880000Y-147066000D01*
X92179431Y-121897431D02*
X92179431Y-125364803D01*
X95885000Y-104013000D02*
X97993774Y-106121774D01*
X124080892Y-171461010D02*
X130927882Y-178308000D01*
X260423000Y-151703948D02*
X260423000Y-158569000D01*
X263090000Y-177944267D02*
X265918482Y-175115785D01*
X307646179Y-107770821D02*
X311531000Y-103886000D01*
X246768052Y-185039000D02*
X258826000Y-185039000D01*
X83161862Y-120142000D02*
X85471000Y-120142000D01*
X142790796Y-178223796D02*
X149606000Y-185039000D01*
X76823750Y-127863543D02*
X76823750Y-129246974D01*
X174298095Y-177063885D02*
X180721000Y-183486790D01*
X171831000Y-170688000D02*
X167411627Y-170688000D01*
X153543000Y-165481000D02*
X153543000Y-166624000D01*
X126519577Y-142854475D02*
X137647475Y-142854475D01*
X82638093Y-111888769D02*
X82638093Y-117309093D01*
X153543000Y-166624000D02*
X151257000Y-168910000D01*
X281559000Y-173863000D02*
X281559000Y-167767000D01*
X312129264Y-122237500D02*
X314769500Y-122237500D01*
X142790796Y-175553918D02*
X142790796Y-178223796D01*
X82638093Y-111888769D02*
X82638093Y-110505338D01*
X226064896Y-191243000D02*
X229397000Y-187910896D01*
X192440000Y-147369104D02*
X190123896Y-145053000D01*
X258826000Y-185039000D02*
X263090000Y-180775000D01*
X267967697Y-177165000D02*
X278257000Y-177165000D01*
X94488000Y-142367000D02*
X99314000Y-147193000D01*
X89130431Y-104013000D02*
X95885000Y-104013000D01*
X125645782Y-143728271D02*
X126519577Y-142854475D01*
X193167000Y-151892000D02*
X192440000Y-151165000D01*
X90424000Y-120142000D02*
X92179431Y-121897431D01*
X229397000Y-187910896D02*
X229397000Y-180791843D01*
X137647475Y-142854475D02*
X141478000Y-146685000D01*
X188329052Y-145053000D02*
X180594000Y-152788052D01*
X217160790Y-191243000D02*
X226064896Y-191243000D01*
X149606000Y-185039000D02*
X155194000Y-185039000D01*
X158877000Y-174974199D02*
X158305823Y-174403022D01*
X97993774Y-106121774D02*
X97993774Y-109390029D01*
X277670923Y-163878923D02*
X276678294Y-163878923D01*
X244348000Y-182618948D02*
X246768052Y-185039000D01*
X180594000Y-152788052D02*
X180594000Y-161925000D01*
X104140000Y-147193000D02*
X105537000Y-145796000D01*
X164300168Y-177063885D02*
X174298095Y-177063885D01*
X311531000Y-103886000D02*
X315719327Y-103886000D01*
X309880000Y-147066000D02*
X313460521Y-143485479D01*
X138898082Y-175553918D02*
X137922000Y-176530000D01*
X142790796Y-175553918D02*
X138898082Y-175553918D01*
X190281000Y-193329000D02*
X191027000Y-194075000D01*
X105537000Y-145796000D02*
X105537000Y-143510000D01*
X307646179Y-117754415D02*
X312129264Y-122237500D01*
X307646179Y-117754415D02*
X307646179Y-107770821D01*
X314769500Y-122237500D02*
X316738000Y-120269000D01*
X141478000Y-153416000D02*
X153543000Y-165481000D01*
X313460521Y-143485479D02*
X313460521Y-133729189D01*
X137922000Y-176530000D02*
X140284754Y-174167246D01*
X89943776Y-142367000D02*
X94488000Y-142367000D01*
X265918482Y-175115785D02*
X267967697Y-177165000D01*
X273962371Y-161163000D02*
X276678294Y-163878923D01*
X163220627Y-174879000D02*
X163220627Y-175984344D01*
X99314000Y-147193000D02*
X104140000Y-147193000D01*
X180721000Y-187811844D02*
X186238156Y-193329000D01*
X141392114Y-168910000D02*
X139284754Y-166802640D01*
X163220627Y-175984344D02*
X164300168Y-177063885D01*
X229397000Y-180791843D02*
X233623343Y-176565500D01*
X119337219Y-143728271D02*
X125645782Y-143728271D01*
X190123896Y-145053000D02*
X188329052Y-145053000D01*
X191027000Y-194075000D02*
X214328789Y-194075000D01*
X82638093Y-110505338D02*
X89130431Y-104013000D01*
X158877000Y-181356000D02*
X158877000Y-174974199D01*
X316738000Y-120269000D02*
X321941895Y-120269000D01*
X155194000Y-185039000D02*
X158877000Y-181356000D01*
X105537000Y-143510000D02*
X110617000Y-138430000D01*
X262158779Y-142576116D02*
X258899000Y-145835896D01*
X258899000Y-145835896D02*
X258899000Y-150179949D01*
X321941895Y-120269000D02*
X323617496Y-121944601D01*
X167411627Y-170688000D02*
X163220627Y-174879000D01*
X313460521Y-123546479D02*
X314769500Y-122237500D01*
X238875366Y-174775866D02*
X238852000Y-174775866D01*
X165227000Y-176337385D02*
X165499500Y-176609885D01*
X286627470Y-103008530D02*
X290957000Y-98679000D01*
X306423703Y-130810000D02*
X308413130Y-132799427D01*
X103656802Y-106768820D02*
X103656802Y-105385389D01*
X259807000Y-149803843D02*
X261331000Y-151327842D01*
X300963135Y-115189000D02*
X302598787Y-116824652D01*
X97842459Y-122743594D02*
X97842459Y-127433459D01*
X97842459Y-122743594D02*
X97842459Y-121360163D01*
X278937196Y-142494000D02*
X277947080Y-143484116D01*
X294640000Y-140589000D02*
X288163000Y-140589000D01*
X295910000Y-115189000D02*
X300963135Y-115189000D01*
X238090000Y-174013866D02*
X238090000Y-172388104D01*
X302006000Y-130810000D02*
X306423703Y-130810000D01*
X294613567Y-98679000D02*
X296784445Y-100849878D01*
X298256155Y-144584015D02*
X298256155Y-134559845D01*
X110236191Y-98806000D02*
X116459000Y-98806000D01*
X277947080Y-143484116D02*
X262534884Y-143484116D01*
X160678127Y-171974075D02*
X141932000Y-153227948D01*
X299720000Y-133096000D02*
X302006000Y-130810000D01*
X286627470Y-112634466D02*
X291277504Y-117284500D01*
X261331000Y-155667000D02*
X262001000Y-156337000D01*
X241168104Y-169310000D02*
X244216104Y-169310000D01*
X137835527Y-142400475D02*
X126331524Y-142400475D01*
X181175000Y-187623792D02*
X186426208Y-192875000D01*
X290957000Y-98679000D02*
X294613567Y-98679000D01*
X288163000Y-140589000D02*
X286258000Y-142494000D01*
X119525271Y-143274271D02*
X112470629Y-136219629D01*
X291277504Y-117284500D02*
X293814500Y-117284500D01*
X249066000Y-160890000D02*
X250571000Y-159385000D01*
X262534884Y-143484116D02*
X259807000Y-146212000D01*
X105537000Y-130810000D02*
X107383798Y-132656798D01*
X239359500Y-175260000D02*
X238875366Y-174775866D01*
X141932000Y-153227948D02*
X141932000Y-146496947D01*
X119012483Y-101359483D02*
X119012483Y-104270080D01*
X298256155Y-134559845D02*
X299720000Y-133096000D01*
X186426208Y-192875000D02*
X190469052Y-192875000D01*
X296928572Y-133096000D02*
X299720000Y-133096000D01*
X113198140Y-117897140D02*
X113198140Y-120244854D01*
X92028117Y-138718369D02*
X92028117Y-137334938D01*
X261331000Y-151327842D02*
X261331000Y-155667000D01*
X97842459Y-127433459D02*
X101219000Y-130810000D01*
X110236000Y-114935000D02*
X113198140Y-117897140D01*
X103656802Y-105385389D02*
X110236191Y-98806000D01*
X97842459Y-121360163D02*
X104267622Y-114935000D01*
X225876844Y-190789000D02*
X228943000Y-187722844D01*
X190469052Y-192875000D02*
X191215052Y-193621000D01*
X292441812Y-128609240D02*
X296928572Y-133096000D01*
X259807000Y-146212000D02*
X259807000Y-149803843D01*
X176093399Y-191063601D02*
X176093399Y-186139614D01*
X181175000Y-183298738D02*
X181175000Y-187623792D01*
X92028117Y-137334938D02*
X98553055Y-130810000D01*
X107383798Y-132656798D02*
X107383798Y-136219629D01*
X160678127Y-184039605D02*
X160678127Y-171974075D01*
X228943000Y-180603791D02*
X233743291Y-175803500D01*
X293814500Y-117284500D02*
X295910000Y-115189000D01*
X286258000Y-142494000D02*
X278937196Y-142494000D01*
X262001000Y-157545086D02*
X261288608Y-158257478D01*
X171577000Y-195580000D02*
X176093399Y-191063601D01*
X116459000Y-98806000D02*
X119012483Y-101359483D01*
X112470629Y-136219629D02*
X107383798Y-136219629D01*
X292441812Y-128609240D02*
X292441812Y-118657188D01*
X238090000Y-172388104D02*
X241168104Y-169310000D01*
X191215052Y-193621000D02*
X214140736Y-193621000D01*
X262001000Y-156337000D02*
X262001000Y-157545086D01*
X292441812Y-118657188D02*
X293814500Y-117284500D01*
X125457729Y-143274271D02*
X119525271Y-143274271D01*
X298256155Y-144205155D02*
X294640000Y-140589000D01*
X286627470Y-112634466D02*
X286627470Y-103008530D01*
X298256155Y-144584015D02*
X298256155Y-144205155D01*
X216972737Y-190789000D02*
X225876844Y-190789000D01*
X165499500Y-176609885D02*
X174486147Y-176609885D01*
X103656802Y-112038802D02*
X106553000Y-114935000D01*
X250571000Y-159385000D02*
X259080000Y-159385000D01*
X214140736Y-193621000D02*
X216972737Y-190789000D01*
X106553000Y-114935000D02*
X110236000Y-114935000D01*
X228943000Y-187722844D02*
X228943000Y-180603791D01*
X174486147Y-176609885D02*
X181175000Y-183298738D01*
X238852000Y-174775866D02*
X238090000Y-174013866D01*
X160678127Y-184039605D02*
X160678127Y-187952954D01*
X168305173Y-195580000D02*
X171577000Y-195580000D01*
X104267622Y-114935000D02*
X106553000Y-114935000D01*
X141932000Y-146496947D02*
X137835527Y-142400475D01*
X103656802Y-106768820D02*
X103656802Y-112038802D01*
X126331524Y-142400475D02*
X125457729Y-143274271D01*
X160678127Y-187952954D02*
X168305173Y-195580000D01*
X233743291Y-175803500D02*
X236001500Y-175803500D01*
X244216104Y-169310000D02*
X249066000Y-164460104D01*
X249066000Y-164460104D02*
X249066000Y-160890000D01*
X98553055Y-130810000D02*
X101219000Y-130810000D01*
X101219000Y-130810000D02*
X105537000Y-130810000D01*
X277182836Y-141429512D02*
X276204603Y-140451279D01*
X228489000Y-187534792D02*
X228489000Y-180415739D01*
X278892000Y-127381000D02*
X284850536Y-127381000D01*
X120858496Y-124922496D02*
X122936000Y-127000000D01*
X190657104Y-192421000D02*
X191403104Y-193167000D01*
X178816000Y-184150000D02*
X173609000Y-178943000D01*
X276204603Y-130068397D02*
X276923500Y-129349500D01*
X128126873Y-111506000D02*
X130937000Y-111506000D01*
X240980052Y-168856000D02*
X244028052Y-168856000D01*
X187198000Y-209169000D02*
X190671674Y-205695326D01*
X258578318Y-158616682D02*
X259080000Y-158115000D01*
X129189012Y-135158012D02*
X129189012Y-133030713D01*
X262813816Y-110615048D02*
X266816268Y-114617500D01*
X233827739Y-175077000D02*
X235047669Y-175077000D01*
X261149500Y-156654500D02*
X260877000Y-156382000D01*
X262346832Y-143030116D02*
X275582232Y-143030116D01*
X244028052Y-168856000D02*
X248612000Y-164272052D01*
X269998326Y-126022280D02*
X273325546Y-129349500D01*
X120855594Y-127000000D02*
X122936000Y-127000000D01*
X275582232Y-143030116D02*
X277182836Y-141429512D01*
X167513000Y-175883385D02*
X167785500Y-176155885D01*
X260877000Y-151515895D02*
X259353000Y-149991896D01*
X225688792Y-190335000D02*
X228489000Y-187534792D01*
X181102000Y-209169000D02*
X187198000Y-209169000D01*
X276204603Y-140451279D02*
X276204603Y-130068397D01*
X161132127Y-171786023D02*
X142386000Y-153039896D01*
X248612000Y-164272052D02*
X248612000Y-160201000D01*
X266816268Y-114617500D02*
X270192500Y-114617500D01*
X140462000Y-96266000D02*
X143558033Y-99362033D01*
X248612000Y-160201000D02*
X250196318Y-158616682D01*
X176029879Y-196190038D02*
X176029879Y-204096879D01*
X143558033Y-99362033D02*
X143558033Y-102216249D01*
X284850536Y-127381000D02*
X286274066Y-128804530D01*
X176029879Y-204096879D02*
X181102000Y-209169000D01*
X181629000Y-187435740D02*
X186614260Y-192421000D01*
X136373523Y-114324477D02*
X136373523Y-117623481D01*
X167785500Y-176155885D02*
X174674199Y-176155885D01*
X136398000Y-114300000D02*
X136373523Y-114324477D01*
X128043006Y-108612006D02*
X130937000Y-111506000D01*
X176029879Y-196190038D02*
X176029879Y-192270121D01*
X126238000Y-127000000D02*
X129189012Y-129951012D01*
X142386000Y-153039896D02*
X142386000Y-146308894D01*
X273325546Y-129349500D02*
X276923500Y-129349500D01*
X237636000Y-174588000D02*
X237636000Y-172200052D01*
X270192500Y-114617500D02*
X272669000Y-112141000D01*
X128043006Y-103367145D02*
X135144151Y-96266000D01*
X250196318Y-158616682D02*
X258578318Y-158616682D01*
X265811000Y-96393000D02*
X270307980Y-96393000D01*
X163611075Y-178943000D02*
X161132127Y-176464052D01*
X186614260Y-192421000D02*
X190657104Y-192421000D01*
X270307980Y-96393000D02*
X271905046Y-97990066D01*
X269998326Y-126022280D02*
X269020093Y-125044047D01*
X135144151Y-96266000D02*
X140462000Y-96266000D01*
X269020093Y-115789907D02*
X270192500Y-114617500D01*
X272669000Y-112141000D02*
X277833258Y-112141000D01*
X142386000Y-146308894D02*
X138023579Y-141946474D01*
X133604000Y-111506000D02*
X136398000Y-114300000D01*
X261835583Y-100368417D02*
X265811000Y-96393000D01*
X238125000Y-175077000D02*
X237636000Y-174588000D01*
X228489000Y-180415739D02*
X233827739Y-175077000D01*
X128043006Y-103367145D02*
X128043006Y-108612006D01*
X135977475Y-141946475D02*
X129189012Y-135158012D01*
X262813816Y-110615048D02*
X261835583Y-109636815D01*
X191403104Y-193167000D02*
X213952684Y-193167000D01*
X129189012Y-129951012D02*
X129189012Y-133030713D01*
X260877000Y-156382000D02*
X260877000Y-151515895D01*
X173609000Y-178943000D02*
X163611075Y-178943000D01*
X120858496Y-118774377D02*
X120858496Y-124922496D01*
X237636000Y-172200052D02*
X240980052Y-168856000D01*
X178816000Y-189484000D02*
X178816000Y-184150000D01*
X276923500Y-129349500D02*
X278892000Y-127381000D01*
X120858496Y-118774377D02*
X128126873Y-111506000D01*
X113673985Y-134181609D02*
X120855594Y-127000000D01*
X261835583Y-109636815D02*
X261835583Y-100368417D01*
X213952684Y-193167000D02*
X216784684Y-190335000D01*
X161132127Y-176464052D02*
X161132127Y-171786023D01*
X190671674Y-205695326D02*
X190671674Y-201449172D01*
X122936000Y-127000000D02*
X126238000Y-127000000D01*
X174674199Y-176155885D02*
X181629000Y-183110686D01*
X176029879Y-192270121D02*
X178816000Y-189484000D01*
X269020093Y-125044047D02*
X269020093Y-115789907D01*
X259353000Y-149991896D02*
X259353000Y-146023948D01*
X181629000Y-183110686D02*
X181629000Y-187435740D01*
X138023579Y-141946474D02*
X135977475Y-141946475D01*
X277833258Y-112141000D02*
X279089556Y-113397298D01*
X216784684Y-190335000D02*
X225688792Y-190335000D01*
X130937000Y-111506000D02*
X133604000Y-111506000D01*
X259353000Y-146023948D02*
X262346832Y-143030116D01*
X186050104Y-193783000D02*
X189987104Y-193783000D01*
X258571469Y-170176839D02*
X257157256Y-170176839D01*
X133368472Y-134538276D02*
X140652748Y-127254000D01*
X163252519Y-106816297D02*
X163330725Y-106738091D01*
X140552982Y-119131044D02*
X140552982Y-125058982D01*
X156984766Y-166611234D02*
X156599390Y-166611234D01*
X180232000Y-187964896D02*
X186050104Y-193783000D01*
X259588000Y-127889000D02*
X265307383Y-127889000D01*
X162494127Y-175899896D02*
X164112116Y-177517885D01*
X248066026Y-182280026D02*
X248066026Y-182801821D01*
X180232000Y-183639842D02*
X180232000Y-187964896D01*
X189211000Y-122408999D02*
X178924000Y-122409000D01*
X242141096Y-109993481D02*
X242141096Y-100885904D01*
X142840000Y-152851844D02*
X142840000Y-146120841D01*
X156068009Y-114412009D02*
X156068009Y-117980148D01*
X259969000Y-151892000D02*
X258445000Y-150368000D01*
X265307383Y-127889000D02*
X266579580Y-129161197D01*
X153416000Y-111760000D02*
X156068009Y-114412009D01*
X260033815Y-171639185D02*
X259969000Y-171574370D01*
X259969000Y-171574370D02*
X259969000Y-151892000D01*
X177038000Y-120523000D02*
X177038000Y-117467948D01*
X189987104Y-193783000D02*
X190733104Y-194529000D01*
X162814000Y-172847000D02*
X162494127Y-173166873D01*
X161036000Y-96520000D02*
X163252519Y-98736519D01*
X242141096Y-100885904D02*
X246380000Y-96647000D01*
X246380000Y-96647000D02*
X250510827Y-96647000D01*
X250303840Y-126378947D02*
X254163393Y-130238500D01*
X243119329Y-110971714D02*
X242141096Y-109993481D01*
X142748000Y-127254000D02*
X145796000Y-127254000D01*
X149987000Y-111760000D02*
X153416000Y-111760000D01*
X226252948Y-191697000D02*
X229851000Y-188098948D01*
X250063000Y-114808000D02*
X252476000Y-112395000D01*
X193294000Y-136525000D02*
X192913000Y-136144000D01*
X258445000Y-142742829D02*
X257488350Y-141786179D01*
X163330725Y-102651121D02*
X163252519Y-102572915D01*
X140552982Y-125058982D02*
X142748000Y-127254000D01*
X249325607Y-115545393D02*
X250063000Y-114808000D01*
X229851000Y-188098948D02*
X229851000Y-180979895D01*
X147737492Y-103723811D02*
X154941303Y-96520000D01*
X178924000Y-122409000D02*
X177038000Y-120523000D01*
X249325607Y-125400714D02*
X249325607Y-115545393D01*
X162494127Y-173166873D02*
X162494127Y-175899896D01*
X248066026Y-182801821D02*
X249414205Y-184150000D01*
X133368472Y-138695420D02*
X133368472Y-134538276D01*
X148883499Y-130341499D02*
X148883499Y-133387380D01*
X217348843Y-191697000D02*
X226252948Y-191697000D01*
X229851000Y-180979895D02*
X233538895Y-177292000D01*
X140552982Y-119131044D02*
X147924026Y-111760000D01*
X238633000Y-177292000D02*
X238633000Y-177919948D01*
X249414205Y-184150000D02*
X258953000Y-184150000D01*
X154941303Y-96520000D02*
X161036000Y-96520000D01*
X258953000Y-184150000D02*
X262636000Y-180467000D01*
X165662000Y-112830000D02*
X163252519Y-110420519D01*
X238633000Y-177919948D02*
X240291052Y-179578000D01*
X190733104Y-194529000D02*
X214516842Y-194529000D01*
X147737492Y-109510492D02*
X149987000Y-111760000D01*
X257488350Y-141786179D02*
X256510117Y-140807946D01*
X142840000Y-146120841D02*
X138003132Y-141283974D01*
X138003132Y-141283974D02*
X135957026Y-141283974D01*
X252476000Y-112395000D02*
X258036105Y-112395000D01*
X250303840Y-126378947D02*
X249325607Y-125400714D01*
X243119329Y-110971714D02*
X246955615Y-114808000D01*
X257238500Y-130238500D02*
X259588000Y-127889000D01*
X192913000Y-136144000D02*
X192913000Y-126110998D01*
X147737492Y-103723811D02*
X147737492Y-109510492D01*
X174110042Y-177517885D02*
X180232000Y-183639842D01*
X156599390Y-166611234D02*
X142840000Y-152851844D01*
X260033815Y-171639185D02*
X258571469Y-170176839D01*
X246955615Y-114808000D02*
X250063000Y-114808000D01*
X258445000Y-150368000D02*
X258445000Y-142742829D01*
X214516842Y-194529000D02*
X217348843Y-191697000D01*
X262636000Y-180467000D02*
X262636000Y-174241370D01*
X164112116Y-177517885D02*
X174110042Y-177517885D01*
X163252519Y-98736519D02*
X163252519Y-102572915D01*
X145796000Y-127254000D02*
X148883499Y-130341499D01*
X256510117Y-140807946D02*
X256510117Y-130966883D01*
X233538895Y-177292000D02*
X236001500Y-177292000D01*
X262636000Y-174241370D02*
X260033815Y-171639185D01*
X135957026Y-141283974D02*
X133368472Y-138695420D01*
X258036105Y-112395000D02*
X259395070Y-113753965D01*
X163330725Y-106738091D02*
X163330725Y-102651121D01*
X140652748Y-127254000D02*
X142748000Y-127254000D01*
X163252519Y-110420519D02*
X163252519Y-106816297D01*
X172400052Y-112830000D02*
X165662000Y-112830000D01*
X147924026Y-111760000D02*
X149987000Y-111760000D01*
X240291052Y-179578000D02*
X245364000Y-179578000D01*
X245364000Y-179578000D02*
X248066026Y-182280026D01*
X250510827Y-96647000D02*
X252210559Y-98346732D01*
X192913000Y-126110998D02*
X189211000Y-122408999D01*
X254163393Y-130238500D02*
X257238500Y-130238500D01*
X177038000Y-117467948D02*
X172400052Y-112830000D01*
X256510117Y-130966883D02*
X257238500Y-130238500D01*
X145455829Y-151208483D02*
X152646312Y-144018000D01*
X179778000Y-188152948D02*
X185862052Y-194237000D01*
X237238249Y-142070920D02*
X237238249Y-132204751D01*
X233418947Y-178054000D02*
X234569000Y-178054000D01*
X189022948Y-122863000D02*
X177727000Y-122863000D01*
X179778000Y-183827895D02*
X179778000Y-188152948D01*
X248158000Y-161213394D02*
X245400992Y-158456386D01*
X192459000Y-136907480D02*
X192459000Y-126299051D01*
X192986000Y-137434480D02*
X192459000Y-136907480D01*
X237182000Y-177111000D02*
X237182000Y-172012000D01*
X217536895Y-192151000D02*
X226441000Y-192151000D01*
X230305000Y-181167947D02*
X233418947Y-178054000D01*
X237182000Y-172012000D02*
X240792000Y-168402000D01*
X189799052Y-194237000D02*
X190545052Y-194983000D01*
X152640340Y-135801250D02*
X159663590Y-128778000D01*
X165100000Y-128778000D02*
X168155367Y-131833367D01*
X159824850Y-120083150D02*
X166624000Y-113284000D01*
X234073051Y-130683000D02*
X238760000Y-130683000D01*
X152640340Y-135801250D02*
X152640340Y-141591340D01*
X162040127Y-176087948D02*
X163933179Y-177981000D01*
X230305000Y-188287000D02*
X230305000Y-181167947D01*
X245491000Y-184404000D02*
X241208464Y-180121464D01*
X244422759Y-157478153D02*
X244422759Y-147499241D01*
X159824850Y-120394018D02*
X159824850Y-126042850D01*
X214704895Y-194983000D02*
X217536895Y-192151000D01*
X253313818Y-144653000D02*
X254492222Y-145831404D01*
X248158000Y-164084000D02*
X248158000Y-161213394D01*
X159824850Y-126042850D02*
X162560000Y-128778000D01*
X238216482Y-143049153D02*
X241725329Y-146558000D01*
X241725329Y-146558000D02*
X245364000Y-146558000D01*
X166624000Y-113284000D02*
X172212000Y-113284000D01*
X158242000Y-167132000D02*
X158242000Y-152786443D01*
X152640340Y-141591340D02*
X155067000Y-144018000D01*
X226441000Y-192151000D02*
X230305000Y-188287000D01*
X163933179Y-177981000D02*
X173931104Y-177981000D01*
X240792000Y-168402000D02*
X243840000Y-168402000D01*
X240411000Y-129032000D02*
X245915541Y-129032000D01*
X185862052Y-194237000D02*
X189799052Y-194237000D01*
X232025275Y-194360733D02*
X241249267Y-194360733D01*
X162040127Y-171514413D02*
X162040127Y-176087948D01*
X237238249Y-132204751D02*
X238760000Y-130683000D01*
X238760000Y-130683000D02*
X240411000Y-129032000D01*
X233807000Y-113284000D02*
X238390263Y-113284000D01*
X244422759Y-147499241D02*
X245364000Y-146558000D01*
X175339877Y-120475877D02*
X175339877Y-119243122D01*
X158242000Y-152786443D02*
X160970856Y-150057587D01*
X162560000Y-128778000D02*
X165100000Y-128778000D01*
X231031972Y-127641921D02*
X230053739Y-126663688D01*
X152646312Y-144018000D02*
X155067000Y-144018000D01*
X158184214Y-167189786D02*
X158242000Y-167132000D01*
X240192464Y-180121464D02*
X237182000Y-177111000D01*
X168155367Y-131833367D02*
X168155367Y-134650354D01*
X241208464Y-180121464D02*
X240192464Y-180121464D01*
X172212000Y-113284000D02*
X175339877Y-116411877D01*
X175339877Y-116411877D02*
X175339877Y-119243122D01*
X177727000Y-122863000D02*
X175339877Y-120475877D01*
X240192464Y-180121464D02*
X238292957Y-180121464D01*
X245364000Y-146558000D02*
X247269000Y-144653000D01*
X160970856Y-147000856D02*
X160970856Y-150057587D01*
X245400992Y-158456386D02*
X244422759Y-157478153D01*
X238390263Y-113284000D02*
X240123202Y-115016939D01*
X231031972Y-127641921D02*
X234073051Y-130683000D01*
X245915541Y-129032000D02*
X247307712Y-130424171D01*
X230053739Y-117037261D02*
X233807000Y-113284000D01*
X159663590Y-128778000D02*
X162560000Y-128778000D01*
X192986000Y-139011000D02*
X192986000Y-137434480D01*
X173931104Y-177981000D02*
X179778000Y-183827895D01*
X193294000Y-139319000D02*
X192986000Y-139011000D01*
X157988000Y-144018000D02*
X160970856Y-147000856D01*
X159824850Y-120394018D02*
X159824850Y-120083150D01*
X230053739Y-126663688D02*
X230053739Y-117037261D01*
X192459000Y-126299051D02*
X189022948Y-122863000D01*
X155067000Y-144018000D02*
X157988000Y-144018000D01*
X241249267Y-194360733D02*
X245491000Y-190119000D01*
X245491000Y-190119000D02*
X245491000Y-184404000D01*
X190545052Y-194983000D02*
X214704895Y-194983000D01*
X243840000Y-168402000D02*
X248158000Y-164084000D01*
X238216482Y-143049153D02*
X237238249Y-142070920D01*
X162312627Y-171241913D02*
X162040127Y-171514413D01*
X247269000Y-144653000D02*
X253313818Y-144653000D01*
X227303076Y-193902076D02*
X224763076Y-193902076D01*
X232410000Y-179705000D02*
X234823000Y-179705000D01*
X224028000Y-141224000D02*
X226060000Y-139192000D01*
X174875327Y-138938000D02*
X177165000Y-138938000D01*
X174870535Y-130720070D02*
X182273605Y-123317000D01*
X215008053Y-127002947D02*
X218313000Y-123698000D01*
X167686025Y-146127302D02*
X167686025Y-152319025D01*
X187452000Y-123317000D02*
X190385562Y-126250562D01*
X215986286Y-137967973D02*
X215008053Y-136989740D01*
X225331976Y-193902076D02*
X230759000Y-188475052D01*
X231775000Y-198374000D02*
X227303076Y-193902076D01*
X236728000Y-170434000D02*
X235446579Y-169152579D01*
X224763076Y-193902076D02*
X225331976Y-193902076D01*
X182273605Y-123317000D02*
X187452000Y-123317000D01*
X193167000Y-141859000D02*
X192532000Y-141224000D01*
X223170797Y-153375205D02*
X225942092Y-156146500D01*
X176016542Y-157104458D02*
X176016542Y-160383639D01*
X215986286Y-137967973D02*
X219242313Y-141224000D01*
X160501515Y-161534535D02*
X160501515Y-170513359D01*
X229377074Y-158099926D02*
X231330500Y-156146500D01*
X174870535Y-130720070D02*
X174870535Y-136643535D01*
X235446579Y-169152579D02*
X230725448Y-169152579D01*
X222192564Y-152396972D02*
X222192564Y-143059436D01*
X179324000Y-184015948D02*
X179324000Y-188341000D01*
X218313000Y-123698000D02*
X223432525Y-123698000D01*
X224571693Y-209133307D02*
X231775000Y-201930000D01*
X214892947Y-195437000D02*
X217724948Y-192605000D01*
X231775000Y-201930000D02*
X231775000Y-198374000D01*
X176022000Y-157099000D02*
X176016542Y-157104458D01*
X183201052Y-141672052D02*
X183201052Y-144976406D01*
X223170797Y-153375205D02*
X222192564Y-152396972D01*
X185674000Y-194691000D02*
X189611000Y-194691000D01*
X231330500Y-156146500D02*
X233172000Y-154305000D01*
X190357000Y-195437000D02*
X214892947Y-195437000D01*
X160501515Y-170513359D02*
X161586127Y-171597971D01*
X217724948Y-192605000D02*
X220991842Y-192605000D01*
X237594081Y-154305000D02*
X239446537Y-156157456D01*
X173482000Y-154559000D02*
X176022000Y-157099000D01*
X161586127Y-171597971D02*
X161586127Y-176276000D01*
X226060000Y-139192000D02*
X230703804Y-139192000D01*
X230725448Y-169152579D02*
X230355307Y-168782438D01*
X230355307Y-168782438D02*
X229377074Y-167804205D01*
X190385562Y-126250562D02*
X190385562Y-129569174D01*
X160501515Y-161534535D02*
X167477050Y-154559000D01*
X167686025Y-146127302D02*
X174875327Y-138938000D01*
X234823000Y-179705000D02*
X236728000Y-177800000D01*
X173743052Y-178435000D02*
X179324000Y-184015948D01*
X192005000Y-126487104D02*
X188834896Y-123317000D01*
X229377074Y-167804205D02*
X229377074Y-158099926D01*
X223432525Y-123698000D02*
X225077516Y-125342991D01*
X219118709Y-209133307D02*
X224571693Y-209133307D01*
X230759000Y-181356000D02*
X232410000Y-179705000D01*
X179324000Y-188341000D02*
X185674000Y-194691000D01*
X215008053Y-136989740D02*
X215008053Y-127002947D01*
X236728000Y-177800000D02*
X236728000Y-170434000D01*
X225942092Y-156146500D02*
X231330500Y-156146500D01*
X167686025Y-152319025D02*
X169926000Y-154559000D01*
X192005000Y-137095532D02*
X192005000Y-126487104D01*
X222192564Y-143059436D02*
X224028000Y-141224000D01*
X230703804Y-139192000D02*
X232262027Y-140750223D01*
X224763076Y-193902076D02*
X222288918Y-193902076D01*
X174870535Y-136643535D02*
X177165000Y-138938000D01*
X192532000Y-137622532D02*
X192005000Y-137095532D01*
X192532000Y-141224000D02*
X192532000Y-137622532D01*
X180467000Y-138938000D02*
X183201052Y-141672052D01*
X219242313Y-141224000D02*
X224028000Y-141224000D01*
X220991842Y-192605000D02*
X222288918Y-193902076D01*
X161586127Y-176276000D02*
X163745127Y-178435000D01*
X188834896Y-123317000D02*
X187452000Y-123317000D01*
X163745127Y-178435000D02*
X173743052Y-178435000D01*
X167477050Y-154559000D02*
X169926000Y-154559000D01*
X233172000Y-154305000D02*
X237594081Y-154305000D01*
X177165000Y-138938000D02*
X180467000Y-138938000D01*
X169926000Y-154559000D02*
X173482000Y-154559000D01*
X230759000Y-188475052D02*
X230759000Y-181356000D01*
X189611000Y-194691000D02*
X190357000Y-195437000D01*
X202184000Y-149987000D02*
X198755000Y-146558000D01*
X227551974Y-180068661D02*
X231321000Y-176299635D01*
X227846703Y-169734734D02*
X227846703Y-162321755D01*
X227551974Y-187165974D02*
X227551974Y-180068661D01*
X196215000Y-191986500D02*
X196487500Y-192259000D01*
X205450000Y-198468000D02*
X205450000Y-197068000D01*
X225290948Y-189427000D02*
X227551974Y-187165974D01*
X196487500Y-192259000D02*
X213576580Y-192259000D01*
X213576580Y-192259000D02*
X216408580Y-189427000D01*
X198755000Y-146558000D02*
X198755000Y-144971000D01*
X227846703Y-162321755D02*
X215511948Y-149987000D01*
X231321000Y-173209031D02*
X227846703Y-169734734D01*
X231321000Y-176299635D02*
X231321000Y-173209031D01*
X216408580Y-189427000D02*
X225290948Y-189427000D01*
X205450000Y-197068000D02*
X205232000Y-196850000D01*
X201803000Y-196723000D02*
X202450000Y-197370000D01*
X202450000Y-197370000D02*
X202450000Y-198468000D01*
X198755000Y-143066000D02*
X198755000Y-142240000D01*
X198755000Y-142240000D02*
X199263000Y-141732000D01*
X214748000Y-141732000D02*
X216431000Y-143415000D01*
X87330860Y-121681348D02*
X88199210Y-121681348D01*
X84100290Y-130046500D02*
X87522773Y-133468983D01*
X84100290Y-124911918D02*
X84100290Y-130046500D01*
X85768102Y-123244106D02*
X84100290Y-124911918D01*
X87522773Y-133468983D02*
X87522773Y-133992442D01*
X85768102Y-123244106D02*
X87330860Y-121681348D01*
X99304657Y-135766743D02*
X99304657Y-139944657D01*
X99304657Y-139944657D02*
X102727140Y-143367140D01*
X102535226Y-132536174D02*
X103403577Y-132536174D01*
X100972468Y-134098932D02*
X99304657Y-135766743D01*
X100972468Y-134098932D02*
X102535226Y-132536174D01*
X102727140Y-143367140D02*
X102727140Y-144847268D01*
X105118999Y-119791969D02*
X105118999Y-124066579D01*
X105118999Y-124066579D02*
X108541482Y-127489062D01*
X106786811Y-118124157D02*
X105118999Y-119791969D01*
X108541482Y-127489062D02*
X108541482Y-128872493D01*
X108349569Y-116561399D02*
X109217919Y-116561399D01*
X106786811Y-118124157D02*
X108349569Y-116561399D01*
X122986912Y-130359302D02*
X124331839Y-129014375D01*
X120970523Y-132375691D02*
X120970523Y-137461116D01*
X124331839Y-129014375D02*
X125544972Y-129014375D01*
X122986912Y-130359302D02*
X120970523Y-132375691D01*
X120970523Y-137461116D02*
X123798127Y-140288720D01*
X123798127Y-140288720D02*
X123798127Y-141219667D01*
X131516348Y-113607143D02*
X132729483Y-113607143D01*
X130171422Y-114952069D02*
X128155034Y-116968457D01*
X128155034Y-121550440D02*
X130982638Y-124378044D01*
X130982638Y-124378044D02*
X130982638Y-125812435D01*
X128155034Y-116968457D02*
X128155034Y-121550440D01*
X130171422Y-114952069D02*
X131516348Y-113607143D01*
X140665010Y-137617010D02*
X143492614Y-140444614D01*
X140665010Y-132732356D02*
X140665010Y-137617010D01*
X142681398Y-130715968D02*
X140665010Y-132732356D01*
X144026324Y-129371042D02*
X145239459Y-129371042D01*
X143492614Y-140444614D02*
X143492614Y-141576334D01*
X142681398Y-130715968D02*
X144026324Y-129371042D01*
X151210834Y-113963810D02*
X152423969Y-113963810D01*
X149865908Y-115308736D02*
X151210834Y-113963810D01*
X149865908Y-115308736D02*
X147849520Y-117325124D01*
X147849520Y-121907107D02*
X150677124Y-124734711D01*
X150677124Y-124734711D02*
X150677124Y-126169102D01*
X147849520Y-117325124D02*
X147849520Y-121907107D01*
X152752367Y-149402564D02*
X152752367Y-153984546D01*
X152752367Y-153984546D02*
X155579971Y-156812150D01*
X154768756Y-147386175D02*
X156113682Y-146041249D01*
X154768756Y-147386175D02*
X152752367Y-149402564D01*
X156113682Y-146041249D02*
X157326816Y-146041249D01*
X155579971Y-156812150D02*
X155579971Y-158246541D01*
X161953266Y-131978942D02*
X163298192Y-130634016D01*
X159936878Y-138600878D02*
X162764482Y-141428482D01*
X163298192Y-130634016D02*
X164511327Y-130634016D01*
X159936878Y-133995330D02*
X159936878Y-138600878D01*
X161953266Y-131978942D02*
X159936878Y-133995330D01*
X162764482Y-141428482D02*
X162764482Y-142839308D01*
X167798053Y-159728615D02*
X167798053Y-164242053D01*
X169814441Y-157712227D02*
X171159367Y-156367301D01*
X171159367Y-156367301D02*
X172372502Y-156367301D01*
X167798053Y-164242053D02*
X170625657Y-167069657D01*
X170625657Y-167069657D02*
X170625657Y-168572593D01*
X169814441Y-157712227D02*
X167798053Y-159728615D01*
X174982563Y-144321382D02*
X174982563Y-148566563D01*
X176998951Y-142304994D02*
X174982563Y-144321382D01*
X174982563Y-148566563D02*
X177810167Y-151394167D01*
X177810167Y-151394167D02*
X177810167Y-153165360D01*
X176998951Y-142304994D02*
X178343877Y-140960068D01*
X178343877Y-140960068D02*
X179557012Y-140960068D01*
X135086014Y-175218014D02*
X135086014Y-175662167D01*
X132771223Y-165020393D02*
X131311217Y-166480399D01*
X131311217Y-171443217D02*
X135086014Y-175218014D01*
X131311217Y-166480399D02*
X131311217Y-171443217D01*
X132771223Y-165020393D02*
X134459074Y-163332542D01*
X134459074Y-163332542D02*
X135117211Y-163332542D01*
X150087334Y-178027334D02*
X152914938Y-180854938D01*
X152103722Y-171731610D02*
X153448648Y-170386684D01*
X152914938Y-180854938D02*
X152914938Y-182591976D01*
X150087334Y-173747998D02*
X150087334Y-178027334D01*
X152103722Y-171731610D02*
X150087334Y-173747998D01*
X153448648Y-170386684D02*
X154661783Y-170386684D01*
X317342975Y-127292780D02*
X320352195Y-130302000D01*
X317342975Y-124441176D02*
X317342975Y-127292780D01*
X318200790Y-123583361D02*
X317342975Y-124441176D01*
X324351031Y-130302000D02*
X325596029Y-131546998D01*
X318200790Y-121681348D02*
X318200790Y-123583361D01*
X320352195Y-130302000D02*
X324351031Y-130302000D01*
X319017463Y-114808000D02*
X319781687Y-115572224D01*
X311528632Y-108466401D02*
X311528632Y-111318005D01*
X312386448Y-105706574D02*
X312386448Y-107608585D01*
X311528632Y-111318005D02*
X315018627Y-114808000D01*
X315018627Y-114808000D02*
X319017463Y-114808000D01*
X312386448Y-107608585D02*
X311528632Y-108466401D01*
X309733384Y-141743545D02*
X310391663Y-142401824D01*
X302996424Y-134438186D02*
X302138608Y-135296002D01*
X302996424Y-132536174D02*
X302996424Y-134438186D01*
X302138608Y-135296002D02*
X302138608Y-138147605D01*
X302138608Y-138147605D02*
X305734548Y-141743545D01*
X305734548Y-141743545D02*
X309733384Y-141743545D01*
X299881435Y-125730000D02*
X303880271Y-125730000D01*
X297182081Y-116561399D02*
X297182081Y-118463412D01*
X296324266Y-122172831D02*
X299881435Y-125730000D01*
X296324266Y-119321227D02*
X296324266Y-122172831D01*
X297182081Y-118463412D02*
X296324266Y-119321227D01*
X303880271Y-125730000D02*
X304577320Y-126427049D01*
X290509923Y-103346453D02*
X290509923Y-106198056D01*
X294039867Y-109728000D02*
X298038703Y-109728000D01*
X290509923Y-106198056D02*
X294039867Y-109728000D01*
X291367739Y-102488637D02*
X290509923Y-103346453D01*
X291367739Y-100586625D02*
X291367739Y-102488637D01*
X298038703Y-109728000D02*
X298762978Y-110452275D01*
X273056502Y-116431233D02*
X273056502Y-118789875D01*
X276079109Y-121812482D02*
X280919231Y-121812482D01*
X273670518Y-113607143D02*
X273670518Y-115817217D01*
X273670518Y-115817217D02*
X273056502Y-116431233D01*
X280919231Y-121812482D02*
X281897464Y-122790715D01*
X273056502Y-118789875D02*
X276079109Y-121812482D01*
X274009471Y-106680000D02*
X274712954Y-107383483D01*
X269169349Y-106680000D02*
X274009471Y-106680000D01*
X265871991Y-101024001D02*
X265871991Y-103382642D01*
X266486008Y-100409984D02*
X265871991Y-101024001D01*
X266486008Y-98199911D02*
X266486008Y-100409984D01*
X265871991Y-103382642D02*
X269169349Y-106680000D01*
X253362015Y-119146541D02*
X256389474Y-122174000D01*
X261229596Y-122174000D02*
X262202978Y-123147382D01*
X253976032Y-116173883D02*
X253362015Y-116787900D01*
X256389474Y-122174000D02*
X261229596Y-122174000D01*
X253362015Y-116787900D02*
X253362015Y-119146541D01*
X253976032Y-113963810D02*
X253976032Y-116173883D01*
X246177505Y-101380667D02*
X246177505Y-103739309D01*
X254212318Y-106934000D02*
X255018467Y-107740149D01*
X249372196Y-106934000D02*
X254212318Y-106934000D01*
X246791521Y-98556577D02*
X246791521Y-100766651D01*
X246177505Y-103739309D02*
X249372196Y-106934000D01*
X246791521Y-100766651D02*
X246177505Y-101380667D01*
X248459168Y-148865339D02*
X248459168Y-151223981D01*
X248459168Y-151223981D02*
X251921187Y-154686000D01*
X256761309Y-154686000D02*
X257300130Y-155224821D01*
X249073184Y-148251323D02*
X248459168Y-148865339D01*
X249073184Y-146041249D02*
X249073184Y-148251323D01*
X251921187Y-154686000D02*
X256761309Y-154686000D01*
X241274658Y-135816748D02*
X244141910Y-138684000D01*
X244141910Y-138684000D02*
X248982032Y-138684000D01*
X241888674Y-132844090D02*
X241274658Y-133458106D01*
X241274658Y-133458106D02*
X241274658Y-135816748D01*
X248982032Y-138684000D02*
X250115620Y-139817588D01*
X241888674Y-130634016D02*
X241888674Y-132844090D01*
X234704164Y-117436857D02*
X234090147Y-118050874D01*
X242472754Y-123952000D02*
X242931110Y-124410356D01*
X237632632Y-123952000D02*
X242472754Y-123952000D01*
X234090147Y-120409515D02*
X237632632Y-123952000D01*
X234090147Y-118050874D02*
X234090147Y-120409515D01*
X234704164Y-115226784D02*
X234704164Y-117436857D01*
X241884304Y-165180732D02*
X242254445Y-165550873D01*
X233413483Y-159191391D02*
X233413483Y-161550033D01*
X234027499Y-158577375D02*
X233413483Y-159191391D01*
X237044182Y-165180732D02*
X241884304Y-165180732D01*
X234027499Y-156367301D02*
X234027499Y-158577375D01*
X233413483Y-161550033D02*
X237044182Y-165180732D01*
X226228972Y-146142799D02*
X229859672Y-149773499D01*
X226228972Y-143784158D02*
X226228972Y-146142799D01*
X229859672Y-149773499D02*
X234699794Y-149773499D01*
X234699794Y-149773499D02*
X235069935Y-150143640D01*
X226842989Y-143170141D02*
X226228972Y-143784158D01*
X226842989Y-140960068D02*
X226842989Y-143170141D01*
X222674894Y-134366000D02*
X227515016Y-134366000D01*
X219044462Y-128376926D02*
X219044462Y-130735568D01*
X227515016Y-134366000D02*
X227885424Y-134736408D01*
X219658478Y-125552836D02*
X219658478Y-127762910D01*
X219044462Y-130735568D02*
X222674894Y-134366000D01*
X219658478Y-127762910D02*
X219044462Y-128376926D01*
X271282790Y-163332542D02*
X271282790Y-165042615D01*
X277299857Y-172720000D02*
X278151566Y-173571709D01*
X273810063Y-172720000D02*
X277299857Y-172720000D01*
X270281711Y-166043694D02*
X270281711Y-169191648D01*
X270281711Y-169191648D02*
X273810063Y-172720000D01*
X271282790Y-165042615D02*
X270281711Y-166043694D01*
X251124202Y-175569416D02*
X254116786Y-178562000D01*
X251738218Y-172596758D02*
X251124202Y-173210774D01*
X251738218Y-170386684D02*
X251738218Y-172596758D01*
X251124202Y-173210774D02*
X251124202Y-175569416D01*
X254116786Y-178562000D02*
X258956908Y-178562000D01*
X258956908Y-178562000D02*
X259965164Y-179570256D01*
X233035968Y-184330006D02*
X233022531Y-184343443D01*
X233035968Y-181453404D02*
X233035968Y-184330006D01*
X233022531Y-184343443D02*
X233022531Y-185544188D01*
X236204158Y-188725815D02*
X242992508Y-188725815D01*
X233022531Y-185544188D02*
X236204158Y-188725815D01*
X218011461Y-199723833D02*
X220537277Y-202249649D01*
X220537277Y-202249649D02*
X225740351Y-202249649D01*
X218011461Y-199127577D02*
X218011461Y-199723833D01*
X225740351Y-202249649D02*
X226648690Y-201341310D01*
X217423732Y-198539848D02*
X218011461Y-199127577D01*
X226648690Y-201341310D02*
X228674717Y-201341310D01*
X217423732Y-196297900D02*
X217423732Y-198539848D01*
M02*
