%TF.GenerationSoftware,KiCad,Pcbnew,6.0.11-3.fc36*%
%TF.CreationDate,2023-03-10T01:36:52-05:00*%
%TF.ProjectId,moth,6d6f7468-2e6b-4696-9361-645f70636258,v1.0.0*%
%TF.SameCoordinates,Original*%
%TF.FileFunction,Drillmap*%
%TF.FilePolarity,Positive*%
%FSLAX45Y45*%
G04 Gerber Fmt 4.5, Leading zero omitted, Abs format (unit mm)*
G04 Created by KiCad (PCBNEW 6.0.11-3.fc36) date 2023-03-10 01:36:52*
%MOMM*%
%LPD*%
G01*
G04 APERTURE LIST*
%ADD10C,0.100000*%
%ADD11C,0.050000*%
%ADD12C,0.200000*%
%ADD13C,0.040000*%
%ADD14C,0.075000*%
%ADD15C,0.101600*%
%ADD16C,0.120000*%
G04 APERTURE END LIST*
D10*
X13255436Y-8724015D02*
X13780568Y-8753105D01*
X14293673Y-8802817D01*
X14792218Y-8871470D01*
X15273671Y-8957382D01*
X15735500Y-9058872D01*
X16175172Y-9174259D01*
X16590154Y-9301862D01*
X16977916Y-9439999D01*
X17335923Y-9586989D01*
X17661644Y-9741150D01*
X17952546Y-9900802D01*
X18206096Y-10064263D01*
X18419764Y-10229852D01*
X18604700Y-10393526D01*
X18774019Y-10552645D01*
X18928125Y-10707627D01*
X19067423Y-10858893D01*
X19192320Y-11006862D01*
X19303219Y-11151953D01*
X19400528Y-11294587D01*
X19484650Y-11435183D01*
X19555992Y-11574160D01*
X19614958Y-11711938D01*
X19661955Y-11848937D01*
X19697387Y-11985576D01*
X19721661Y-12122275D01*
X19735180Y-12259453D01*
X19738351Y-12397531D01*
X19731579Y-12536927D01*
X19724404Y-12585890D01*
X19710925Y-12653644D01*
X19692501Y-12733999D01*
X19670487Y-12820766D01*
X19646241Y-12907756D01*
X19621119Y-12988781D01*
X19608654Y-13025122D01*
X19596478Y-13057651D01*
X19584762Y-13085593D01*
X19573675Y-13108176D01*
X19562258Y-13132606D01*
X19554682Y-13155906D01*
X19550779Y-13178099D01*
X19550380Y-13199210D01*
X19553317Y-13219264D01*
X19559420Y-13238284D01*
X19568522Y-13256295D01*
X19580453Y-13273321D01*
X19595046Y-13289385D01*
X19612130Y-13304513D01*
X19631538Y-13318729D01*
X19653101Y-13332056D01*
X19702017Y-13356141D01*
X19757529Y-13376964D01*
X19818287Y-13394717D01*
X19882941Y-13409594D01*
X19950143Y-13421788D01*
X20018544Y-13431494D01*
X20086793Y-13438904D01*
X20153541Y-13444213D01*
X20277140Y-13449299D01*
X20353338Y-13449299D01*
X20413030Y-13447665D01*
X20476908Y-13444406D01*
X20543624Y-13439308D01*
X20611832Y-13432156D01*
X20680182Y-13422735D01*
X20747330Y-13410832D01*
X20811925Y-13396233D01*
X20872622Y-13378722D01*
X20901088Y-13368808D01*
X20928073Y-13358086D01*
X20953410Y-13346529D01*
X20976930Y-13334110D01*
X20998465Y-13320803D01*
X21017847Y-13306580D01*
X21034906Y-13291415D01*
X21049474Y-13275282D01*
X21061384Y-13258153D01*
X21070466Y-13240001D01*
X21076552Y-13220800D01*
X21079474Y-13200523D01*
X21079064Y-13179143D01*
X21075152Y-13156634D01*
X21067571Y-13132968D01*
X21056151Y-13108119D01*
X21045077Y-13084756D01*
X21033397Y-13056244D01*
X21021276Y-13023335D01*
X21008882Y-12986781D01*
X20983939Y-12905742D01*
X20959898Y-12819137D01*
X20938089Y-12732979D01*
X20919843Y-12653279D01*
X20906491Y-12586049D01*
X20902066Y-12558988D01*
X20899363Y-12537299D01*
X20892585Y-12397899D01*
X20895742Y-12259809D01*
X20909238Y-12122612D01*
X20933481Y-11985889D01*
X20968878Y-11849221D01*
X21015836Y-11712191D01*
X21074760Y-11574379D01*
X21146058Y-11435367D01*
X21230137Y-11294737D01*
X21327404Y-11152070D01*
X21438264Y-11006947D01*
X21563125Y-10858950D01*
X21702394Y-10707660D01*
X21856477Y-10552660D01*
X22025781Y-10393529D01*
X22210713Y-10229851D01*
X22424380Y-10064314D01*
X22677931Y-9900996D01*
X22968833Y-9741557D01*
X23294554Y-9587657D01*
X23652561Y-9440957D01*
X24040322Y-9303116D01*
X24455305Y-9175796D01*
X24894977Y-9060657D01*
X25356806Y-8959358D01*
X25838259Y-8873561D01*
X26336804Y-8804925D01*
X26849909Y-8755112D01*
X27375041Y-8725781D01*
X27909667Y-8718594D01*
X28451256Y-8735209D01*
X28997275Y-8777288D01*
X29265999Y-8807268D01*
X29524876Y-8841832D01*
X29774048Y-8880956D01*
X30013660Y-8924619D01*
X30243853Y-8972799D01*
X30464772Y-9025474D01*
X30676558Y-9082624D01*
X30879356Y-9144224D01*
X31073307Y-9210255D01*
X31258556Y-9280694D01*
X31435245Y-9355519D01*
X31603516Y-9434709D01*
X31763514Y-9518242D01*
X31915381Y-9606095D01*
X32059260Y-9698248D01*
X32195295Y-9794678D01*
X32323627Y-9895363D01*
X32444400Y-10000283D01*
X32557758Y-10109414D01*
X32663843Y-10222735D01*
X32762798Y-10340225D01*
X32854766Y-10461862D01*
X32939891Y-10587623D01*
X33018314Y-10717487D01*
X33090180Y-10851432D01*
X33155632Y-10989436D01*
X33214811Y-11131478D01*
X33267862Y-11277536D01*
X33314927Y-11427588D01*
X33356150Y-11581612D01*
X33391672Y-11739586D01*
X33421638Y-11901489D01*
X33421633Y-11901489D01*
X33445894Y-12061531D01*
X33464364Y-12214071D01*
X33477279Y-12359308D01*
X33484875Y-12497443D01*
X33487390Y-12628675D01*
X33485058Y-12753203D01*
X33478117Y-12871228D01*
X33466802Y-12982948D01*
X33451351Y-13088565D01*
X33431998Y-13188277D01*
X33408982Y-13282283D01*
X33382538Y-13370785D01*
X33352901Y-13453981D01*
X33320310Y-13532072D01*
X33285000Y-13605256D01*
X33247206Y-13673734D01*
X33207167Y-13737705D01*
X33165117Y-13797370D01*
X33121294Y-13852927D01*
X33075933Y-13904576D01*
X33029272Y-13952517D01*
X32981545Y-13996951D01*
X32932990Y-14038075D01*
X32883843Y-14076091D01*
X32784717Y-14143595D01*
X32686059Y-14201060D01*
X32589759Y-14250084D01*
X32497707Y-14292264D01*
X31986038Y-14500251D01*
X31648831Y-14648977D01*
X31468382Y-14735671D01*
X31283272Y-14831022D01*
X31095930Y-14935359D01*
X30908783Y-15049009D01*
X30724259Y-15172300D01*
X30544786Y-15305561D01*
X30372792Y-15449118D01*
X30210704Y-15603301D01*
X30134134Y-15684479D01*
X30060951Y-15768436D01*
X29991458Y-15855213D01*
X29925959Y-15944852D01*
X29448742Y-16637274D01*
X29329595Y-16797805D01*
X29206087Y-16952706D01*
X29076008Y-17101677D01*
X28937146Y-17244418D01*
X28787289Y-17380630D01*
X28624226Y-17510011D01*
X28445745Y-17632263D01*
X28249635Y-17747085D01*
X28144278Y-17801616D01*
X28033684Y-17854177D01*
X27917577Y-17904731D01*
X27795681Y-17953240D01*
X27667719Y-17999666D01*
X27533415Y-18043973D01*
X27244673Y-18126076D01*
X26945791Y-18207033D01*
X26654737Y-18294429D01*
X26371747Y-18388118D01*
X26097059Y-18487952D01*
X25830911Y-18593787D01*
X25573538Y-18705474D01*
X25325179Y-18822868D01*
X25086070Y-18945822D01*
X24856449Y-19074190D01*
X24636553Y-19207825D01*
X24426620Y-19346580D01*
X24226886Y-19490310D01*
X24037588Y-19638867D01*
X23858964Y-19792105D01*
X23691251Y-19949878D01*
X23534686Y-20112039D01*
X23390750Y-20271158D01*
X23260089Y-20419909D01*
X23141693Y-20558308D01*
X23034549Y-20686368D01*
X22698272Y-21095497D01*
X22632219Y-21172071D01*
X22571350Y-21238390D01*
X22542543Y-21267708D01*
X22514652Y-21294468D01*
X22487552Y-21318671D01*
X22461115Y-21340319D01*
X22435215Y-21359413D01*
X22409726Y-21375956D01*
X22384521Y-21389949D01*
X22359475Y-21401394D01*
X22334459Y-21410292D01*
X22309349Y-21416646D01*
X22284017Y-21420457D01*
X22258337Y-21421727D01*
X22231589Y-21419965D01*
X22203243Y-21414828D01*
X22173460Y-21406541D01*
X22142400Y-21395329D01*
X22110224Y-21381417D01*
X22077092Y-21365031D01*
X22043165Y-21346394D01*
X22008603Y-21325733D01*
X21938217Y-21279236D01*
X21867217Y-21227339D01*
X21796886Y-21171842D01*
X21728509Y-21114546D01*
X21663368Y-21057249D01*
X21602749Y-21001752D01*
X21500206Y-20903358D01*
X21405849Y-20807364D01*
X21319901Y-20713378D01*
X21219247Y-20616742D01*
X21156477Y-20562092D01*
X21086167Y-20505539D01*
X21008879Y-20448818D01*
X20925181Y-20393666D01*
X20835637Y-20341821D01*
X20740811Y-20295021D01*
X20691595Y-20274055D01*
X20641270Y-20255001D01*
X20589907Y-20238077D01*
X20537577Y-20223500D01*
X20484351Y-20211486D01*
X20430299Y-20202254D01*
X20375492Y-20196019D01*
X20320000Y-20193000D01*
X20264927Y-20195600D01*
X20210486Y-20201469D01*
X20156749Y-20210387D01*
X20103790Y-20222133D01*
X20051682Y-20236489D01*
X20000499Y-20253234D01*
X19950313Y-20272148D01*
X19901198Y-20293013D01*
X19853227Y-20315607D01*
X19806474Y-20339712D01*
X19761011Y-20365108D01*
X19716912Y-20391574D01*
X19674250Y-20418892D01*
X19633098Y-20446841D01*
X19555620Y-20503754D01*
X19485061Y-20560555D01*
X19422009Y-20615487D01*
X19367050Y-20666791D01*
X19320769Y-20712709D01*
X19256587Y-20781356D01*
X19234151Y-20807364D01*
X19139794Y-20903358D01*
X19037251Y-21001752D01*
X18911492Y-21114546D01*
X18843114Y-21171842D01*
X18772784Y-21227339D01*
X18701783Y-21279236D01*
X18631397Y-21325733D01*
X18562908Y-21365031D01*
X18529776Y-21381417D01*
X18497600Y-21395329D01*
X18466540Y-21406541D01*
X18436757Y-21414828D01*
X18408411Y-21419965D01*
X18381663Y-21421727D01*
X18330651Y-21416646D01*
X18280525Y-21401394D01*
X18230274Y-21375956D01*
X18178885Y-21340319D01*
X18125348Y-21294468D01*
X18068650Y-21238390D01*
X18007781Y-21172071D01*
X17941728Y-21095497D01*
X17605451Y-20686368D01*
X17379911Y-20419909D01*
X17249251Y-20271158D01*
X17105314Y-20112039D01*
X16948749Y-19949878D01*
X16781036Y-19792105D01*
X16602412Y-19638867D01*
X16413114Y-19490310D01*
X16213380Y-19346580D01*
X16003446Y-19207825D01*
X15783551Y-19074190D01*
X15553930Y-18945822D01*
X15314821Y-18822868D01*
X15066462Y-18705474D01*
X14809089Y-18593787D01*
X14542940Y-18487952D01*
X14268252Y-18388118D01*
X13985263Y-18294429D01*
X13694208Y-18207033D01*
X13395326Y-18126076D01*
X13247508Y-18086122D01*
X13106585Y-18043973D01*
X12972280Y-17999667D01*
X12844318Y-17953240D01*
X12722422Y-17904732D01*
X12606315Y-17854178D01*
X12495722Y-17801617D01*
X12390364Y-17747086D01*
X12289968Y-17690622D01*
X12194254Y-17632264D01*
X12102948Y-17572048D01*
X12015773Y-17510012D01*
X11932453Y-17446194D01*
X11852710Y-17380630D01*
X11702853Y-17244419D01*
X11563990Y-17101678D01*
X11433911Y-16952707D01*
X11310404Y-16797806D01*
X11191256Y-16637275D01*
X10714039Y-15944852D01*
X10648121Y-15855632D01*
X10578262Y-15769221D01*
X10504764Y-15685578D01*
X10427926Y-15604668D01*
X10348050Y-15526450D01*
X10265437Y-15450886D01*
X10093202Y-15307569D01*
X9913629Y-15174410D01*
X9729122Y-15051101D01*
X9542091Y-14937336D01*
X9354941Y-14832807D01*
X9170079Y-14737208D01*
X8989912Y-14650232D01*
X8653291Y-14500920D01*
X8142289Y-14292264D01*
X8048561Y-14250084D01*
X7950794Y-14201060D01*
X7850864Y-14143595D01*
X7750648Y-14076091D01*
X7652022Y-13996950D01*
X7556864Y-13904575D01*
X7467050Y-13797369D01*
X7384456Y-13673734D01*
X7346453Y-13605256D01*
X7310960Y-13532071D01*
X7278209Y-13453981D01*
X7248437Y-13370785D01*
X7221877Y-13282283D01*
X7198764Y-13188276D01*
X7179333Y-13088565D01*
X7163819Y-12982948D01*
X7152455Y-12871228D01*
X7145477Y-12753203D01*
X7143119Y-12628675D01*
X7145615Y-12497443D01*
X7153201Y-12359308D01*
X7166110Y-12214071D01*
X7184578Y-12061531D01*
X7208839Y-11901489D01*
X7274328Y-11581664D01*
X7362616Y-11277732D01*
X7474846Y-10989845D01*
X7612163Y-10718157D01*
X7775711Y-10462821D01*
X7966635Y-10223992D01*
X8186077Y-10001822D01*
X8435183Y-9796465D01*
X8715096Y-9608074D01*
X9026961Y-9436803D01*
X9371921Y-9282806D01*
X9751121Y-9146235D01*
X10165705Y-9027245D01*
X10616817Y-8925988D01*
X11105601Y-8842619D01*
X11633202Y-8777290D01*
X12179221Y-8734426D01*
X12720810Y-8717228D01*
X13255436Y-8724015D01*
D11*
X14757400Y-16344900D02*
G75*
G03*
X14757400Y-16344900I-167042J0D01*
G01*
X25552400Y-16332200D02*
G75*
G03*
X25552400Y-16332200I-167042J0D01*
G01*
X12433300Y-11074400D02*
G75*
G03*
X12433300Y-11074400I-167042J0D01*
G01*
X28397200Y-10744200D02*
G75*
G03*
X28397200Y-10744200I-167042J0D01*
G01*
D12*
D13*
X8895400Y-12616500D02*
X8935400Y-12656500D01*
X8935400Y-12616500D02*
X8895400Y-12656500D01*
X9441500Y-11003600D02*
X9481500Y-11043600D01*
X9481500Y-11003600D02*
X9441500Y-11043600D01*
X10432100Y-13708700D02*
X10472100Y-13748700D01*
X10472100Y-13708700D02*
X10432100Y-13748700D01*
X11016300Y-12083100D02*
X11056300Y-12123100D01*
X11056300Y-12083100D02*
X11016300Y-12123100D01*
X11575100Y-10482900D02*
X11615100Y-10522900D01*
X11615100Y-10482900D02*
X11575100Y-10522900D01*
X12591100Y-13327700D02*
X12631100Y-13367700D01*
X12631100Y-13327700D02*
X12591100Y-13367700D01*
X13302300Y-11765600D02*
X13342300Y-11805600D01*
X13342300Y-11765600D02*
X13302300Y-11805600D01*
X13556300Y-16769400D02*
X13596300Y-16809400D01*
X13596300Y-16769400D02*
X13556300Y-16809400D01*
X14013500Y-10216200D02*
X14053500Y-10256200D01*
X14053500Y-10216200D02*
X14013500Y-10256200D01*
X14572300Y-13315000D02*
X14612300Y-13355000D01*
X14612300Y-13315000D02*
X14572300Y-13355000D01*
X15296200Y-11829100D02*
X15336200Y-11869100D01*
X15336200Y-11829100D02*
X15296200Y-11869100D01*
X15601000Y-17556800D02*
X15641000Y-17596800D01*
X15641000Y-17556800D02*
X15601000Y-17596800D01*
X15678477Y-16641123D02*
X15718477Y-16681123D01*
X15718477Y-16641123D02*
X15678477Y-16681123D01*
X15778800Y-15131100D02*
X15818800Y-15171100D01*
X15818800Y-15131100D02*
X15778800Y-15171100D01*
X15798421Y-16698979D02*
X15838421Y-16738979D01*
X15838421Y-16698979D02*
X15798421Y-16738979D01*
X15994700Y-10228900D02*
X16034700Y-10268900D01*
X16034700Y-10228900D02*
X15994700Y-10268900D01*
X16211263Y-17104191D02*
X16251263Y-17144191D01*
X16251263Y-17104191D02*
X16211263Y-17144191D01*
X16261400Y-17264700D02*
X16301400Y-17304700D01*
X16301400Y-17264700D02*
X16261400Y-17304700D01*
X16302063Y-17467900D02*
X16342063Y-17507900D01*
X16342063Y-17467900D02*
X16302063Y-17507900D01*
X16464600Y-13505500D02*
X16504600Y-13545500D01*
X16504600Y-13505500D02*
X16464600Y-13545500D01*
X16502700Y-17613739D02*
X16542700Y-17653739D01*
X16542700Y-17613739D02*
X16502700Y-17653739D01*
X16731300Y-17568339D02*
X16771300Y-17608339D01*
X16771300Y-17568339D02*
X16731300Y-17608339D01*
X17188500Y-11981500D02*
X17228500Y-12021500D01*
X17228500Y-11981500D02*
X17188500Y-12021500D01*
X17239300Y-16058200D02*
X17279300Y-16098200D01*
X17279300Y-16058200D02*
X17239300Y-16098200D01*
X17315500Y-18534700D02*
X17355500Y-18574700D01*
X17355500Y-18534700D02*
X17315500Y-18574700D01*
X17937800Y-14496100D02*
X17977800Y-14536100D01*
X17977800Y-14496100D02*
X17937800Y-14536100D01*
X18661700Y-12972100D02*
X18701700Y-13012100D01*
X18701700Y-12972100D02*
X18661700Y-13012100D01*
X18864900Y-19957100D02*
X18904900Y-19997100D01*
X18904900Y-19957100D02*
X18864900Y-19997100D01*
X19169700Y-19224050D02*
X19209700Y-19264050D01*
X19209700Y-19224050D02*
X19169700Y-19264050D01*
X19296700Y-14165900D02*
X19336700Y-14205900D01*
X19336700Y-14165900D02*
X19296700Y-14205900D01*
X19296700Y-14445300D02*
X19336700Y-14485300D01*
X19336700Y-14445300D02*
X19296700Y-14485300D01*
X19296700Y-14940600D02*
X19336700Y-14980600D01*
X19336700Y-14940600D02*
X19296700Y-14980600D01*
X19296700Y-15169200D02*
X19336700Y-15209200D01*
X19336700Y-15169200D02*
X19296700Y-15209200D01*
X19296919Y-14622881D02*
X19336919Y-14662881D01*
X19336919Y-14622881D02*
X19296919Y-14662881D01*
X19309400Y-13632500D02*
X19349400Y-13672500D01*
X19349400Y-13632500D02*
X19309400Y-13672500D01*
X19309400Y-13911900D02*
X19349400Y-13951900D01*
X19349400Y-13911900D02*
X19309400Y-13951900D01*
X19601500Y-19178650D02*
X19641500Y-19218650D01*
X19641500Y-19178650D02*
X19601500Y-19218650D01*
X20160300Y-19652300D02*
X20200300Y-19692300D01*
X20200300Y-19652300D02*
X20160300Y-19692300D01*
X20503200Y-19665000D02*
X20543200Y-19705000D01*
X20543200Y-19665000D02*
X20503200Y-19705000D01*
X21294150Y-13911900D02*
X21334150Y-13951900D01*
X21334150Y-13911900D02*
X21294150Y-13951900D01*
X22230400Y-19588800D02*
X22270400Y-19628800D01*
X22270400Y-19588800D02*
X22230400Y-19628800D01*
X22281200Y-12768900D02*
X22321200Y-12808900D01*
X22321200Y-12768900D02*
X22281200Y-12808900D01*
X23005100Y-14356400D02*
X23045100Y-14396400D01*
X23045100Y-14356400D02*
X23005100Y-14396400D01*
X23436900Y-17785400D02*
X23476900Y-17825400D01*
X23476900Y-17785400D02*
X23436900Y-17825400D01*
X23484767Y-17487700D02*
X23524767Y-17527700D01*
X23524767Y-17487700D02*
X23484767Y-17527700D01*
X23489963Y-17636550D02*
X23529963Y-17676550D01*
X23529963Y-17636550D02*
X23489963Y-17676550D01*
X23580150Y-17560350D02*
X23620150Y-17600350D01*
X23620150Y-17560350D02*
X23580150Y-17600350D01*
X23580150Y-17709200D02*
X23620150Y-17749200D01*
X23620150Y-17709200D02*
X23580150Y-17749200D01*
X23665500Y-18204500D02*
X23705500Y-18244500D01*
X23705500Y-18204500D02*
X23665500Y-18244500D01*
X23754400Y-11740200D02*
X23794400Y-11780200D01*
X23794400Y-11740200D02*
X23754400Y-11780200D01*
X23792500Y-15867700D02*
X23832500Y-15907700D01*
X23832500Y-15867700D02*
X23792500Y-15907700D01*
X23792500Y-17487700D02*
X23832500Y-17527700D01*
X23832500Y-17487700D02*
X23792500Y-17527700D01*
X23843300Y-17709200D02*
X23883300Y-17749200D01*
X23883300Y-17709200D02*
X23843300Y-17749200D01*
X23915950Y-17506000D02*
X23955950Y-17546000D01*
X23955950Y-17506000D02*
X23915950Y-17546000D01*
X24414800Y-18026700D02*
X24454800Y-18066700D01*
X24454800Y-18026700D02*
X24414800Y-18066700D01*
X24541800Y-13238800D02*
X24581800Y-13278800D01*
X24581800Y-13238800D02*
X24541800Y-13278800D01*
X24973600Y-10063800D02*
X25013600Y-10103800D01*
X25013600Y-10063800D02*
X24973600Y-10103800D01*
X25227600Y-14800900D02*
X25267600Y-14840900D01*
X25267600Y-14800900D02*
X25227600Y-14840900D01*
X25481600Y-17315500D02*
X25521600Y-17355500D01*
X25521600Y-17315500D02*
X25481600Y-17355500D01*
X25722900Y-11575100D02*
X25762900Y-11615100D01*
X25762900Y-11575100D02*
X25722900Y-11615100D01*
X25888000Y-15791500D02*
X25928000Y-15831500D01*
X25928000Y-15791500D02*
X25888000Y-15831500D01*
X25888000Y-15918500D02*
X25928000Y-15958500D01*
X25928000Y-15918500D02*
X25888000Y-15958500D01*
X26094950Y-15645450D02*
X26134950Y-15685450D01*
X26134950Y-15645450D02*
X26094950Y-15685450D01*
X26108861Y-15805748D02*
X26148861Y-15845748D01*
X26148861Y-15805748D02*
X26108861Y-15845748D01*
X26446800Y-13137200D02*
X26486800Y-13177200D01*
X26486800Y-13137200D02*
X26446800Y-13177200D01*
X26980200Y-10025700D02*
X27020200Y-10065700D01*
X27020200Y-10025700D02*
X26980200Y-10065700D01*
X27158000Y-14191300D02*
X27198000Y-14231300D01*
X27198000Y-14191300D02*
X27158000Y-14231300D01*
X27348500Y-16274100D02*
X27388500Y-16314100D01*
X27388500Y-16274100D02*
X27348500Y-16314100D01*
X27691400Y-11575100D02*
X27731400Y-11615100D01*
X27731400Y-11575100D02*
X27691400Y-11615100D01*
X28428000Y-13137200D02*
X28468000Y-13177200D01*
X28468000Y-13137200D02*
X28428000Y-13177200D01*
X29456700Y-10279700D02*
X29496700Y-10319700D01*
X29496700Y-10279700D02*
X29456700Y-10319700D01*
X30028200Y-11867200D02*
X30068200Y-11907200D01*
X30068200Y-11867200D02*
X30028200Y-11907200D01*
X30193300Y-14686600D02*
X30233300Y-14726600D01*
X30233300Y-14686600D02*
X30193300Y-14726600D01*
X30599700Y-13480100D02*
X30639700Y-13520100D01*
X30639700Y-13480100D02*
X30599700Y-13520100D01*
X31476000Y-10851200D02*
X31516000Y-10891200D01*
X31516000Y-10851200D02*
X31476000Y-10891200D01*
X32111000Y-12476800D02*
X32151000Y-12516800D01*
X32151000Y-12476800D02*
X32111000Y-12516800D01*
D14*
X21680600Y-14341500D02*
G75*
G03*
X21680600Y-14341500I-37500J0D01*
G01*
X21680600Y-14541500D02*
G75*
G03*
X21680600Y-14541500I-37500J0D01*
G01*
X21680600Y-14741500D02*
G75*
G03*
X21680600Y-14741500I-37500J0D01*
G01*
D15*
X19875500Y-14255800D02*
X19875500Y-14357400D01*
X19824700Y-14306600D02*
X19926300Y-14306600D01*
X19875500Y-14446300D02*
X19875500Y-14547900D01*
X19824700Y-14497100D02*
X19926300Y-14497100D01*
X20193000Y-13620800D02*
X20193000Y-13722400D01*
X20142200Y-13671600D02*
X20243800Y-13671600D01*
X20193000Y-13874800D02*
X20193000Y-13976400D01*
X20142200Y-13925600D02*
X20243800Y-13925600D01*
X20447000Y-13620800D02*
X20447000Y-13722400D01*
X20396200Y-13671600D02*
X20497800Y-13671600D01*
X20447000Y-13874800D02*
X20447000Y-13976400D01*
X20396200Y-13925600D02*
X20497800Y-13925600D01*
X20701000Y-15398800D02*
X20701000Y-15500400D01*
X20650200Y-15449600D02*
X20751800Y-15449600D01*
X20891500Y-15398800D02*
X20891500Y-15500400D01*
X20840700Y-15449600D02*
X20942300Y-15449600D01*
D16*
X8862348Y-12210562D02*
X8862348Y-12125708D01*
X8777494Y-12125708D01*
X8777494Y-12210562D01*
X8862348Y-12210562D01*
X9260370Y-12578907D02*
X9260370Y-12494053D01*
X9175516Y-12494053D01*
X9175516Y-12578907D01*
X9260370Y-12578907D01*
X9443782Y-10613084D02*
X9443782Y-10528231D01*
X9358929Y-10528231D01*
X9358929Y-10613084D01*
X9443782Y-10613084D01*
X9841804Y-10981430D02*
X9841804Y-10896576D01*
X9756951Y-10896576D01*
X9756951Y-10981430D01*
X9841804Y-10981430D01*
X10382785Y-13296044D02*
X10382785Y-13211191D01*
X10297931Y-13211191D01*
X10297931Y-13296044D01*
X10382785Y-13296044D01*
X10780807Y-13664390D02*
X10780807Y-13579536D01*
X10695953Y-13579536D01*
X10695953Y-13664390D01*
X10780807Y-13664390D01*
X10964219Y-11698567D02*
X10964219Y-11613713D01*
X10879365Y-11613713D01*
X10879365Y-11698567D01*
X10964219Y-11698567D01*
X11362241Y-12066912D02*
X11362241Y-11982059D01*
X11277387Y-11982059D01*
X11277387Y-12066912D01*
X11362241Y-12066912D01*
X11545653Y-10101089D02*
X11545653Y-10016236D01*
X11460799Y-10016236D01*
X11460799Y-10101089D01*
X11545653Y-10101089D01*
X11943675Y-10469435D02*
X11943675Y-10384581D01*
X11858821Y-10384581D01*
X11858821Y-10469435D01*
X11943675Y-10469435D01*
X12596924Y-12943864D02*
X12596924Y-12859011D01*
X12512070Y-12859011D01*
X12512070Y-12943864D01*
X12596924Y-12943864D01*
X12961328Y-13345498D02*
X12961328Y-13260644D01*
X12876474Y-13260644D01*
X12876474Y-13345498D01*
X12961328Y-13345498D01*
X13315375Y-11403141D02*
X13315375Y-11318287D01*
X13230521Y-11318287D01*
X13230521Y-11403141D01*
X13315375Y-11403141D01*
X13554148Y-16375681D02*
X13554148Y-16290827D01*
X13469294Y-16290827D01*
X13469294Y-16375681D01*
X13554148Y-16375681D01*
X13679779Y-11804775D02*
X13679779Y-11719921D01*
X13594925Y-11719921D01*
X13594925Y-11804775D01*
X13679779Y-11804775D01*
X13970902Y-16722691D02*
X13970902Y-16637837D01*
X13886049Y-16637837D01*
X13886049Y-16722691D01*
X13970902Y-16722691D01*
X14033826Y-9862418D02*
X14033826Y-9777564D01*
X13948972Y-9777564D01*
X13948972Y-9862418D01*
X14033826Y-9862418D01*
X14398230Y-10264052D02*
X14398230Y-10179198D01*
X14313376Y-10179198D01*
X14313376Y-10264052D01*
X14398230Y-10264052D01*
X14566373Y-12979531D02*
X14566373Y-12894677D01*
X14481519Y-12894677D01*
X14481519Y-12979531D01*
X14566373Y-12979531D01*
X14930777Y-13381165D02*
X14930777Y-13296311D01*
X14845923Y-13296311D01*
X14845923Y-13381165D01*
X14930777Y-13381165D01*
X15284824Y-11438808D02*
X15284824Y-11353954D01*
X15199970Y-11353954D01*
X15199970Y-11438808D01*
X15284824Y-11438808D01*
X15508605Y-17081095D02*
X15508605Y-16996242D01*
X15423751Y-16996242D01*
X15423751Y-17081095D01*
X15508605Y-17081095D01*
X15649228Y-11840442D02*
X15649228Y-11755588D01*
X15564374Y-11755588D01*
X15564374Y-11840442D01*
X15649228Y-11840442D01*
X15775108Y-14646552D02*
X15775108Y-14561698D01*
X15690255Y-14561698D01*
X15690255Y-14646552D01*
X15775108Y-14646552D01*
X15873009Y-17482729D02*
X15873009Y-17397875D01*
X15788155Y-17397875D01*
X15788155Y-17482729D01*
X15873009Y-17482729D01*
X16003275Y-9898085D02*
X16003275Y-9813231D01*
X15918421Y-9813231D01*
X15918421Y-9898085D01*
X16003275Y-9898085D01*
X16139512Y-15048185D02*
X16139512Y-14963332D01*
X16054659Y-14963332D01*
X16054659Y-15048185D01*
X16139512Y-15048185D01*
X16367679Y-10299718D02*
X16367679Y-10214865D01*
X16282825Y-10214865D01*
X16282825Y-10299718D01*
X16367679Y-10299718D01*
X16493559Y-13105828D02*
X16493559Y-13020975D01*
X16408706Y-13020975D01*
X16408706Y-13105828D01*
X16493559Y-13105828D01*
X16857964Y-13507462D02*
X16857964Y-13422609D01*
X16773110Y-13422609D01*
X16773110Y-13507462D01*
X16857964Y-13507462D01*
X17212011Y-11565105D02*
X17212011Y-11480252D01*
X17127157Y-11480252D01*
X17127157Y-11565105D01*
X17212011Y-11565105D01*
X17279677Y-15679157D02*
X17279677Y-15594303D01*
X17194823Y-15594303D01*
X17194823Y-15679157D01*
X17279677Y-15679157D01*
X17378830Y-18187767D02*
X17378830Y-18102914D01*
X17293977Y-18102914D01*
X17293977Y-18187767D01*
X17378830Y-18187767D01*
X17576415Y-11966739D02*
X17576415Y-11881885D01*
X17491561Y-11881885D01*
X17491561Y-11966739D01*
X17576415Y-11966739D01*
X17644081Y-16080791D02*
X17644081Y-15995937D01*
X17559227Y-15995937D01*
X17559227Y-16080791D01*
X17644081Y-16080791D01*
X17651767Y-18656388D02*
X17651767Y-18571535D01*
X17566913Y-18571535D01*
X17566913Y-18656388D01*
X17651767Y-18656388D01*
X17998128Y-14138434D02*
X17998128Y-14053580D01*
X17913274Y-14053580D01*
X17913274Y-14138434D01*
X17998128Y-14138434D01*
X18362532Y-14540067D02*
X18362532Y-14455214D01*
X18277678Y-14455214D01*
X18277678Y-14540067D01*
X18362532Y-14540067D01*
X18716579Y-12597710D02*
X18716579Y-12512857D01*
X18631725Y-12512857D01*
X18631725Y-12597710D01*
X18716579Y-12597710D01*
X18940054Y-19672217D02*
X18940054Y-19587363D01*
X18855200Y-19587363D01*
X18855200Y-19672217D01*
X18940054Y-19672217D01*
X19080983Y-12999344D02*
X19080983Y-12914491D01*
X18996129Y-12914491D01*
X18996129Y-12999344D01*
X19080983Y-12999344D01*
X19109594Y-20187344D02*
X19109594Y-20102490D01*
X19024741Y-20102490D01*
X19024741Y-20187344D01*
X19109594Y-20187344D01*
X21784800Y-19672217D02*
X21784800Y-19587363D01*
X21699946Y-19587363D01*
X21699946Y-19672217D01*
X21784800Y-19672217D01*
X22008275Y-12597710D02*
X22008275Y-12512857D01*
X21923421Y-12512857D01*
X21923421Y-12597710D01*
X22008275Y-12597710D01*
X22271319Y-19432634D02*
X22271319Y-19347781D01*
X22186465Y-19347781D01*
X22186465Y-19432634D01*
X22271319Y-19432634D01*
X22550178Y-12576726D02*
X22550178Y-12491872D01*
X22465325Y-12491872D01*
X22465325Y-12576726D01*
X22550178Y-12576726D01*
X22726726Y-14138434D02*
X22726726Y-14053580D01*
X22641872Y-14053580D01*
X22641872Y-14138434D01*
X22726726Y-14138434D01*
X23268629Y-14117449D02*
X23268629Y-14032595D01*
X23183776Y-14032595D01*
X23183776Y-14117449D01*
X23268629Y-14117449D01*
X23346024Y-18187767D02*
X23346024Y-18102914D01*
X23261170Y-18102914D01*
X23261170Y-18187767D01*
X23346024Y-18187767D01*
X23445177Y-15679157D02*
X23445177Y-15594303D01*
X23360323Y-15594303D01*
X23360323Y-15679157D01*
X23445177Y-15679157D01*
X23512843Y-11565105D02*
X23512843Y-11480252D01*
X23427990Y-11480252D01*
X23427990Y-11565105D01*
X23512843Y-11565105D01*
X23871722Y-18054573D02*
X23871722Y-17969720D01*
X23786869Y-17969720D01*
X23786869Y-18054573D01*
X23871722Y-18054573D01*
X23987080Y-15658172D02*
X23987080Y-15573319D01*
X23902227Y-15573319D01*
X23902227Y-15658172D01*
X23987080Y-15658172D01*
X24054747Y-11544121D02*
X24054747Y-11459267D01*
X23969893Y-11459267D01*
X23969893Y-11544121D01*
X24054747Y-11544121D01*
X24231294Y-13105828D02*
X24231294Y-13020975D01*
X24146441Y-13020975D01*
X24146441Y-13105828D01*
X24231294Y-13105828D01*
X24721579Y-9898085D02*
X24721579Y-9813231D01*
X24636725Y-9813231D01*
X24636725Y-9898085D01*
X24721579Y-9898085D01*
X24773198Y-13084844D02*
X24773198Y-12999990D01*
X24688344Y-12999990D01*
X24688344Y-13084844D01*
X24773198Y-13084844D01*
X24949745Y-14646552D02*
X24949745Y-14561698D01*
X24864892Y-14561698D01*
X24864892Y-14646552D01*
X24949745Y-14646552D01*
X25216249Y-17081095D02*
X25216249Y-16996242D01*
X25131395Y-16996242D01*
X25131395Y-17081095D01*
X25216249Y-17081095D01*
X25263483Y-9877100D02*
X25263483Y-9792246D01*
X25178629Y-9792246D01*
X25178629Y-9877100D01*
X25263483Y-9877100D01*
X25440030Y-11438808D02*
X25440030Y-11353954D01*
X25355176Y-11353954D01*
X25355176Y-11438808D01*
X25440030Y-11438808D01*
X25491649Y-14625567D02*
X25491649Y-14540714D01*
X25406795Y-14540714D01*
X25406795Y-14625567D01*
X25491649Y-14625567D01*
X25758152Y-17060111D02*
X25758152Y-16975257D01*
X25673299Y-16975257D01*
X25673299Y-17060111D01*
X25758152Y-17060111D01*
X25981934Y-11417823D02*
X25981934Y-11332970D01*
X25897080Y-11332970D01*
X25897080Y-11417823D01*
X25981934Y-11417823D01*
X26158481Y-12979531D02*
X26158481Y-12894677D01*
X26073627Y-12894677D01*
X26073627Y-12979531D01*
X26158481Y-12979531D01*
X26691028Y-9862418D02*
X26691028Y-9777564D01*
X26606174Y-9777564D01*
X26606174Y-9862418D01*
X26691028Y-9862418D01*
X26700385Y-12958546D02*
X26700385Y-12873693D01*
X26615531Y-12873693D01*
X26615531Y-12958546D01*
X26700385Y-12958546D01*
X27170706Y-16375681D02*
X27170706Y-16290827D01*
X27085852Y-16290827D01*
X27085852Y-16375681D01*
X27170706Y-16375681D01*
X27232931Y-9841433D02*
X27232931Y-9756580D01*
X27148078Y-9756580D01*
X27148078Y-9841433D01*
X27232931Y-9841433D01*
X27409479Y-11403141D02*
X27409479Y-11318287D01*
X27324625Y-11318287D01*
X27324625Y-11403141D01*
X27409479Y-11403141D01*
X27710256Y-16430319D02*
X27710256Y-16345465D01*
X27625403Y-16345465D01*
X27625403Y-16430319D01*
X27710256Y-16430319D01*
X27951382Y-11382157D02*
X27951382Y-11297303D01*
X27866529Y-11297303D01*
X27866529Y-11382157D01*
X27951382Y-11382157D01*
X28127930Y-12943864D02*
X28127930Y-12859011D01*
X28043076Y-12859011D01*
X28043076Y-12943864D01*
X28127930Y-12943864D01*
X28669833Y-12922880D02*
X28669833Y-12838026D01*
X28584980Y-12838026D01*
X28584980Y-12922880D01*
X28669833Y-12922880D01*
X29179201Y-10101089D02*
X29179201Y-10016236D01*
X29094347Y-10016236D01*
X29094347Y-10101089D01*
X29179201Y-10101089D01*
X29720871Y-10127415D02*
X29720871Y-10042561D01*
X29636018Y-10042561D01*
X29636018Y-10127415D01*
X29720871Y-10127415D01*
X29760635Y-11698567D02*
X29760635Y-11613713D01*
X29675781Y-11613713D01*
X29675781Y-11698567D01*
X29760635Y-11698567D01*
X30302305Y-11724892D02*
X30302305Y-11640038D01*
X30217452Y-11640038D01*
X30217452Y-11724892D01*
X30302305Y-11724892D01*
X30342069Y-13296044D02*
X30342069Y-13211191D01*
X30257216Y-13211191D01*
X30257216Y-13296044D01*
X30342069Y-13296044D01*
X30883740Y-13322369D02*
X30883740Y-13237516D01*
X30798886Y-13237516D01*
X30798886Y-13322369D01*
X30883740Y-13322369D01*
X31281072Y-10613084D02*
X31281072Y-10528231D01*
X31196218Y-10528231D01*
X31196218Y-10613084D01*
X31281072Y-10613084D01*
X31822742Y-10639410D02*
X31822742Y-10554556D01*
X31737889Y-10554556D01*
X31737889Y-10639410D01*
X31822742Y-10639410D01*
X31862506Y-12210562D02*
X31862506Y-12125708D01*
X31777652Y-12125708D01*
X31777652Y-12210562D01*
X31862506Y-12210562D01*
X32404176Y-12236887D02*
X32404176Y-12152033D01*
X32319323Y-12152033D01*
X32319323Y-12236887D01*
X32404176Y-12236887D01*
D12*
X7395738Y-21737204D02*
X7395738Y-21537204D01*
X7443357Y-21537204D01*
X7471928Y-21546727D01*
X7490976Y-21565775D01*
X7500499Y-21584823D01*
X7510023Y-21622918D01*
X7510023Y-21651489D01*
X7500499Y-21689585D01*
X7490976Y-21708632D01*
X7471928Y-21727680D01*
X7443357Y-21737204D01*
X7395738Y-21737204D01*
X7595738Y-21737204D02*
X7595738Y-21603870D01*
X7595738Y-21641965D02*
X7605261Y-21622918D01*
X7614785Y-21613394D01*
X7633833Y-21603870D01*
X7652880Y-21603870D01*
X7719547Y-21737204D02*
X7719547Y-21603870D01*
X7719547Y-21537204D02*
X7710023Y-21546727D01*
X7719547Y-21556251D01*
X7729071Y-21546727D01*
X7719547Y-21537204D01*
X7719547Y-21556251D01*
X7843357Y-21737204D02*
X7824309Y-21727680D01*
X7814785Y-21708632D01*
X7814785Y-21537204D01*
X7948119Y-21737204D02*
X7929071Y-21727680D01*
X7919547Y-21708632D01*
X7919547Y-21537204D01*
X8176690Y-21737204D02*
X8176690Y-21537204D01*
X8243357Y-21680061D01*
X8310023Y-21537204D01*
X8310023Y-21737204D01*
X8490976Y-21737204D02*
X8490976Y-21632442D01*
X8481452Y-21613394D01*
X8462404Y-21603870D01*
X8424309Y-21603870D01*
X8405261Y-21613394D01*
X8490976Y-21727680D02*
X8471928Y-21737204D01*
X8424309Y-21737204D01*
X8405261Y-21727680D01*
X8395738Y-21708632D01*
X8395738Y-21689585D01*
X8405261Y-21670537D01*
X8424309Y-21661013D01*
X8471928Y-21661013D01*
X8490976Y-21651489D01*
X8586214Y-21603870D02*
X8586214Y-21803870D01*
X8586214Y-21613394D02*
X8605261Y-21603870D01*
X8643357Y-21603870D01*
X8662404Y-21613394D01*
X8671928Y-21622918D01*
X8681452Y-21641965D01*
X8681452Y-21699108D01*
X8671928Y-21718156D01*
X8662404Y-21727680D01*
X8643357Y-21737204D01*
X8605261Y-21737204D01*
X8586214Y-21727680D01*
X8767166Y-21718156D02*
X8776690Y-21727680D01*
X8767166Y-21737204D01*
X8757642Y-21727680D01*
X8767166Y-21718156D01*
X8767166Y-21737204D01*
X8767166Y-21613394D02*
X8776690Y-21622918D01*
X8767166Y-21632442D01*
X8757642Y-21622918D01*
X8767166Y-21613394D01*
X8767166Y-21632442D01*
D13*
X7098119Y-22046727D02*
X7138119Y-22086727D01*
X7138119Y-22046727D02*
X7098119Y-22086727D01*
D12*
X7433833Y-21957204D02*
X7452880Y-21957204D01*
X7471928Y-21966727D01*
X7481452Y-21976251D01*
X7490976Y-21995299D01*
X7500499Y-22033394D01*
X7500499Y-22081013D01*
X7490976Y-22119108D01*
X7481452Y-22138156D01*
X7471928Y-22147680D01*
X7452880Y-22157204D01*
X7433833Y-22157204D01*
X7414785Y-22147680D01*
X7405261Y-22138156D01*
X7395738Y-22119108D01*
X7386214Y-22081013D01*
X7386214Y-22033394D01*
X7395738Y-21995299D01*
X7405261Y-21976251D01*
X7414785Y-21966727D01*
X7433833Y-21957204D01*
X7586214Y-22138156D02*
X7595738Y-22147680D01*
X7586214Y-22157204D01*
X7576690Y-22147680D01*
X7586214Y-22138156D01*
X7586214Y-22157204D01*
X7767166Y-22023870D02*
X7767166Y-22157204D01*
X7719547Y-21947680D02*
X7671928Y-22090537D01*
X7795738Y-22090537D01*
X7910023Y-21957204D02*
X7929071Y-21957204D01*
X7948119Y-21966727D01*
X7957642Y-21976251D01*
X7967166Y-21995299D01*
X7976690Y-22033394D01*
X7976690Y-22081013D01*
X7967166Y-22119108D01*
X7957642Y-22138156D01*
X7948119Y-22147680D01*
X7929071Y-22157204D01*
X7910023Y-22157204D01*
X7890976Y-22147680D01*
X7881452Y-22138156D01*
X7871928Y-22119108D01*
X7862404Y-22081013D01*
X7862404Y-22033394D01*
X7871928Y-21995299D01*
X7881452Y-21976251D01*
X7890976Y-21966727D01*
X7910023Y-21957204D01*
X8100499Y-21957204D02*
X8119547Y-21957204D01*
X8138595Y-21966727D01*
X8148119Y-21976251D01*
X8157642Y-21995299D01*
X8167166Y-22033394D01*
X8167166Y-22081013D01*
X8157642Y-22119108D01*
X8148119Y-22138156D01*
X8138595Y-22147680D01*
X8119547Y-22157204D01*
X8100499Y-22157204D01*
X8081452Y-22147680D01*
X8071928Y-22138156D01*
X8062404Y-22119108D01*
X8052880Y-22081013D01*
X8052880Y-22033394D01*
X8062404Y-21995299D01*
X8071928Y-21976251D01*
X8081452Y-21966727D01*
X8100499Y-21957204D01*
X8252880Y-22157204D02*
X8252880Y-22023870D01*
X8252880Y-22042918D02*
X8262404Y-22033394D01*
X8281452Y-22023870D01*
X8310023Y-22023870D01*
X8329071Y-22033394D01*
X8338595Y-22052442D01*
X8338595Y-22157204D01*
X8338595Y-22052442D02*
X8348119Y-22033394D01*
X8367166Y-22023870D01*
X8395738Y-22023870D01*
X8414785Y-22033394D01*
X8424309Y-22052442D01*
X8424309Y-22157204D01*
X8519547Y-22157204D02*
X8519547Y-22023870D01*
X8519547Y-22042918D02*
X8529071Y-22033394D01*
X8548119Y-22023870D01*
X8576690Y-22023870D01*
X8595738Y-22033394D01*
X8605261Y-22052442D01*
X8605261Y-22157204D01*
X8605261Y-22052442D02*
X8614785Y-22033394D01*
X8633833Y-22023870D01*
X8662404Y-22023870D01*
X8681452Y-22033394D01*
X8690976Y-22052442D01*
X8690976Y-22157204D01*
X9081452Y-21947680D02*
X8910023Y-22204823D01*
X9338595Y-21957204D02*
X9357642Y-21957204D01*
X9376690Y-21966727D01*
X9386214Y-21976251D01*
X9395738Y-21995299D01*
X9405261Y-22033394D01*
X9405261Y-22081013D01*
X9395738Y-22119108D01*
X9386214Y-22138156D01*
X9376690Y-22147680D01*
X9357642Y-22157204D01*
X9338595Y-22157204D01*
X9319547Y-22147680D01*
X9310023Y-22138156D01*
X9300500Y-22119108D01*
X9290976Y-22081013D01*
X9290976Y-22033394D01*
X9300500Y-21995299D01*
X9310023Y-21976251D01*
X9319547Y-21966727D01*
X9338595Y-21957204D01*
X9490976Y-22138156D02*
X9500500Y-22147680D01*
X9490976Y-22157204D01*
X9481452Y-22147680D01*
X9490976Y-22138156D01*
X9490976Y-22157204D01*
X9624309Y-21957204D02*
X9643357Y-21957204D01*
X9662404Y-21966727D01*
X9671928Y-21976251D01*
X9681452Y-21995299D01*
X9690976Y-22033394D01*
X9690976Y-22081013D01*
X9681452Y-22119108D01*
X9671928Y-22138156D01*
X9662404Y-22147680D01*
X9643357Y-22157204D01*
X9624309Y-22157204D01*
X9605261Y-22147680D01*
X9595738Y-22138156D01*
X9586214Y-22119108D01*
X9576690Y-22081013D01*
X9576690Y-22033394D01*
X9586214Y-21995299D01*
X9595738Y-21976251D01*
X9605261Y-21966727D01*
X9624309Y-21957204D01*
X9881452Y-22157204D02*
X9767166Y-22157204D01*
X9824309Y-22157204D02*
X9824309Y-21957204D01*
X9805261Y-21985775D01*
X9786214Y-22004823D01*
X9767166Y-22014346D01*
X10062404Y-21957204D02*
X9967166Y-21957204D01*
X9957642Y-22052442D01*
X9967166Y-22042918D01*
X9986214Y-22033394D01*
X10033833Y-22033394D01*
X10052881Y-22042918D01*
X10062404Y-22052442D01*
X10071928Y-22071489D01*
X10071928Y-22119108D01*
X10062404Y-22138156D01*
X10052881Y-22147680D01*
X10033833Y-22157204D01*
X9986214Y-22157204D01*
X9967166Y-22147680D01*
X9957642Y-22138156D01*
X10138595Y-21957204D02*
X10271928Y-21957204D01*
X10186214Y-22157204D01*
X10338595Y-21957204D02*
X10338595Y-21995299D01*
X10414785Y-21957204D02*
X10414785Y-21995299D01*
X10710023Y-22233394D02*
X10700500Y-22223870D01*
X10681452Y-22195299D01*
X10671928Y-22176251D01*
X10662404Y-22147680D01*
X10652881Y-22100061D01*
X10652881Y-22061965D01*
X10662404Y-22014346D01*
X10671928Y-21985775D01*
X10681452Y-21966727D01*
X10700500Y-21938156D01*
X10710023Y-21928632D01*
X10767166Y-21957204D02*
X10900500Y-21957204D01*
X10814785Y-22157204D01*
X11062404Y-21957204D02*
X11024309Y-21957204D01*
X11005261Y-21966727D01*
X10995738Y-21976251D01*
X10976690Y-22004823D01*
X10967166Y-22042918D01*
X10967166Y-22119108D01*
X10976690Y-22138156D01*
X10986214Y-22147680D01*
X11005261Y-22157204D01*
X11043357Y-22157204D01*
X11062404Y-22147680D01*
X11071928Y-22138156D01*
X11081452Y-22119108D01*
X11081452Y-22071489D01*
X11071928Y-22052442D01*
X11062404Y-22042918D01*
X11043357Y-22033394D01*
X11005261Y-22033394D01*
X10986214Y-22042918D01*
X10976690Y-22052442D01*
X10967166Y-22071489D01*
X11319547Y-22157204D02*
X11319547Y-21957204D01*
X11405261Y-22157204D02*
X11405261Y-22052442D01*
X11395738Y-22033394D01*
X11376690Y-22023870D01*
X11348118Y-22023870D01*
X11329071Y-22033394D01*
X11319547Y-22042918D01*
X11529071Y-22157204D02*
X11510023Y-22147680D01*
X11500499Y-22138156D01*
X11490976Y-22119108D01*
X11490976Y-22061965D01*
X11500499Y-22042918D01*
X11510023Y-22033394D01*
X11529071Y-22023870D01*
X11557642Y-22023870D01*
X11576690Y-22033394D01*
X11586214Y-22042918D01*
X11595738Y-22061965D01*
X11595738Y-22119108D01*
X11586214Y-22138156D01*
X11576690Y-22147680D01*
X11557642Y-22157204D01*
X11529071Y-22157204D01*
X11710023Y-22157204D02*
X11690976Y-22147680D01*
X11681452Y-22128632D01*
X11681452Y-21957204D01*
X11862404Y-22147680D02*
X11843357Y-22157204D01*
X11805261Y-22157204D01*
X11786214Y-22147680D01*
X11776690Y-22128632D01*
X11776690Y-22052442D01*
X11786214Y-22033394D01*
X11805261Y-22023870D01*
X11843357Y-22023870D01*
X11862404Y-22033394D01*
X11871928Y-22052442D01*
X11871928Y-22071489D01*
X11776690Y-22090537D01*
X11948118Y-22147680D02*
X11967166Y-22157204D01*
X12005261Y-22157204D01*
X12024309Y-22147680D01*
X12033833Y-22128632D01*
X12033833Y-22119108D01*
X12024309Y-22100061D01*
X12005261Y-22090537D01*
X11976690Y-22090537D01*
X11957642Y-22081013D01*
X11948118Y-22061965D01*
X11948118Y-22052442D01*
X11957642Y-22033394D01*
X11976690Y-22023870D01*
X12005261Y-22023870D01*
X12024309Y-22033394D01*
X12100499Y-22233394D02*
X12110023Y-22223870D01*
X12129071Y-22195299D01*
X12138595Y-22176251D01*
X12148118Y-22147680D01*
X12157642Y-22100061D01*
X12157642Y-22061965D01*
X12148118Y-22014346D01*
X12138595Y-21985775D01*
X12129071Y-21966727D01*
X12110023Y-21938156D01*
X12100499Y-21928632D01*
D14*
X7138119Y-22330727D02*
G75*
G03*
X7138119Y-22330727I-37500J0D01*
G01*
D12*
X7433833Y-22221204D02*
X7452880Y-22221204D01*
X7471928Y-22230727D01*
X7481452Y-22240251D01*
X7490976Y-22259299D01*
X7500499Y-22297394D01*
X7500499Y-22345013D01*
X7490976Y-22383108D01*
X7481452Y-22402156D01*
X7471928Y-22411680D01*
X7452880Y-22421203D01*
X7433833Y-22421203D01*
X7414785Y-22411680D01*
X7405261Y-22402156D01*
X7395738Y-22383108D01*
X7386214Y-22345013D01*
X7386214Y-22297394D01*
X7395738Y-22259299D01*
X7405261Y-22240251D01*
X7414785Y-22230727D01*
X7433833Y-22221204D01*
X7586214Y-22402156D02*
X7595738Y-22411680D01*
X7586214Y-22421203D01*
X7576690Y-22411680D01*
X7586214Y-22402156D01*
X7586214Y-22421203D01*
X7662404Y-22221204D02*
X7795738Y-22221204D01*
X7710023Y-22421203D01*
X7967166Y-22221204D02*
X7871928Y-22221204D01*
X7862404Y-22316442D01*
X7871928Y-22306918D01*
X7890976Y-22297394D01*
X7938595Y-22297394D01*
X7957642Y-22306918D01*
X7967166Y-22316442D01*
X7976690Y-22335489D01*
X7976690Y-22383108D01*
X7967166Y-22402156D01*
X7957642Y-22411680D01*
X7938595Y-22421203D01*
X7890976Y-22421203D01*
X7871928Y-22411680D01*
X7862404Y-22402156D01*
X8100499Y-22221204D02*
X8119547Y-22221204D01*
X8138595Y-22230727D01*
X8148119Y-22240251D01*
X8157642Y-22259299D01*
X8167166Y-22297394D01*
X8167166Y-22345013D01*
X8157642Y-22383108D01*
X8148119Y-22402156D01*
X8138595Y-22411680D01*
X8119547Y-22421203D01*
X8100499Y-22421203D01*
X8081452Y-22411680D01*
X8071928Y-22402156D01*
X8062404Y-22383108D01*
X8052880Y-22345013D01*
X8052880Y-22297394D01*
X8062404Y-22259299D01*
X8071928Y-22240251D01*
X8081452Y-22230727D01*
X8100499Y-22221204D01*
X8252880Y-22421203D02*
X8252880Y-22287870D01*
X8252880Y-22306918D02*
X8262404Y-22297394D01*
X8281452Y-22287870D01*
X8310023Y-22287870D01*
X8329071Y-22297394D01*
X8338595Y-22316442D01*
X8338595Y-22421203D01*
X8338595Y-22316442D02*
X8348119Y-22297394D01*
X8367166Y-22287870D01*
X8395738Y-22287870D01*
X8414785Y-22297394D01*
X8424309Y-22316442D01*
X8424309Y-22421203D01*
X8519547Y-22421203D02*
X8519547Y-22287870D01*
X8519547Y-22306918D02*
X8529071Y-22297394D01*
X8548119Y-22287870D01*
X8576690Y-22287870D01*
X8595738Y-22297394D01*
X8605261Y-22316442D01*
X8605261Y-22421203D01*
X8605261Y-22316442D02*
X8614785Y-22297394D01*
X8633833Y-22287870D01*
X8662404Y-22287870D01*
X8681452Y-22297394D01*
X8690976Y-22316442D01*
X8690976Y-22421203D01*
X9081452Y-22211680D02*
X8910023Y-22468823D01*
X9338595Y-22221204D02*
X9357642Y-22221204D01*
X9376690Y-22230727D01*
X9386214Y-22240251D01*
X9395738Y-22259299D01*
X9405261Y-22297394D01*
X9405261Y-22345013D01*
X9395738Y-22383108D01*
X9386214Y-22402156D01*
X9376690Y-22411680D01*
X9357642Y-22421203D01*
X9338595Y-22421203D01*
X9319547Y-22411680D01*
X9310023Y-22402156D01*
X9300500Y-22383108D01*
X9290976Y-22345013D01*
X9290976Y-22297394D01*
X9300500Y-22259299D01*
X9310023Y-22240251D01*
X9319547Y-22230727D01*
X9338595Y-22221204D01*
X9490976Y-22402156D02*
X9500500Y-22411680D01*
X9490976Y-22421203D01*
X9481452Y-22411680D01*
X9490976Y-22402156D01*
X9490976Y-22421203D01*
X9624309Y-22221204D02*
X9643357Y-22221204D01*
X9662404Y-22230727D01*
X9671928Y-22240251D01*
X9681452Y-22259299D01*
X9690976Y-22297394D01*
X9690976Y-22345013D01*
X9681452Y-22383108D01*
X9671928Y-22402156D01*
X9662404Y-22411680D01*
X9643357Y-22421203D01*
X9624309Y-22421203D01*
X9605261Y-22411680D01*
X9595738Y-22402156D01*
X9586214Y-22383108D01*
X9576690Y-22345013D01*
X9576690Y-22297394D01*
X9586214Y-22259299D01*
X9595738Y-22240251D01*
X9605261Y-22230727D01*
X9624309Y-22221204D01*
X9767166Y-22240251D02*
X9776690Y-22230727D01*
X9795738Y-22221204D01*
X9843357Y-22221204D01*
X9862404Y-22230727D01*
X9871928Y-22240251D01*
X9881452Y-22259299D01*
X9881452Y-22278346D01*
X9871928Y-22306918D01*
X9757642Y-22421203D01*
X9881452Y-22421203D01*
X9976690Y-22421203D02*
X10014785Y-22421203D01*
X10033833Y-22411680D01*
X10043357Y-22402156D01*
X10062404Y-22373584D01*
X10071928Y-22335489D01*
X10071928Y-22259299D01*
X10062404Y-22240251D01*
X10052881Y-22230727D01*
X10033833Y-22221204D01*
X9995738Y-22221204D01*
X9976690Y-22230727D01*
X9967166Y-22240251D01*
X9957642Y-22259299D01*
X9957642Y-22306918D01*
X9967166Y-22325965D01*
X9976690Y-22335489D01*
X9995738Y-22345013D01*
X10033833Y-22345013D01*
X10052881Y-22335489D01*
X10062404Y-22325965D01*
X10071928Y-22306918D01*
X10252881Y-22221204D02*
X10157642Y-22221204D01*
X10148119Y-22316442D01*
X10157642Y-22306918D01*
X10176690Y-22297394D01*
X10224309Y-22297394D01*
X10243357Y-22306918D01*
X10252881Y-22316442D01*
X10262404Y-22335489D01*
X10262404Y-22383108D01*
X10252881Y-22402156D01*
X10243357Y-22411680D01*
X10224309Y-22421203D01*
X10176690Y-22421203D01*
X10157642Y-22411680D01*
X10148119Y-22402156D01*
X10338595Y-22221204D02*
X10338595Y-22259299D01*
X10414785Y-22221204D02*
X10414785Y-22259299D01*
X10710023Y-22497394D02*
X10700500Y-22487870D01*
X10681452Y-22459299D01*
X10671928Y-22440251D01*
X10662404Y-22411680D01*
X10652881Y-22364061D01*
X10652881Y-22325965D01*
X10662404Y-22278346D01*
X10671928Y-22249775D01*
X10681452Y-22230727D01*
X10700500Y-22202156D01*
X10710023Y-22192632D01*
X10767166Y-22221204D02*
X10890976Y-22221204D01*
X10824309Y-22297394D01*
X10852881Y-22297394D01*
X10871928Y-22306918D01*
X10881452Y-22316442D01*
X10890976Y-22335489D01*
X10890976Y-22383108D01*
X10881452Y-22402156D01*
X10871928Y-22411680D01*
X10852881Y-22421203D01*
X10795738Y-22421203D01*
X10776690Y-22411680D01*
X10767166Y-22402156D01*
X11129071Y-22421203D02*
X11129071Y-22221204D01*
X11214785Y-22421203D02*
X11214785Y-22316442D01*
X11205261Y-22297394D01*
X11186214Y-22287870D01*
X11157642Y-22287870D01*
X11138595Y-22297394D01*
X11129071Y-22306918D01*
X11338595Y-22421203D02*
X11319547Y-22411680D01*
X11310023Y-22402156D01*
X11300499Y-22383108D01*
X11300499Y-22325965D01*
X11310023Y-22306918D01*
X11319547Y-22297394D01*
X11338595Y-22287870D01*
X11367166Y-22287870D01*
X11386214Y-22297394D01*
X11395738Y-22306918D01*
X11405261Y-22325965D01*
X11405261Y-22383108D01*
X11395738Y-22402156D01*
X11386214Y-22411680D01*
X11367166Y-22421203D01*
X11338595Y-22421203D01*
X11519547Y-22421203D02*
X11500499Y-22411680D01*
X11490976Y-22392632D01*
X11490976Y-22221204D01*
X11671928Y-22411680D02*
X11652880Y-22421203D01*
X11614785Y-22421203D01*
X11595738Y-22411680D01*
X11586214Y-22392632D01*
X11586214Y-22316442D01*
X11595738Y-22297394D01*
X11614785Y-22287870D01*
X11652880Y-22287870D01*
X11671928Y-22297394D01*
X11681452Y-22316442D01*
X11681452Y-22335489D01*
X11586214Y-22354537D01*
X11757642Y-22411680D02*
X11776690Y-22421203D01*
X11814785Y-22421203D01*
X11833833Y-22411680D01*
X11843357Y-22392632D01*
X11843357Y-22383108D01*
X11833833Y-22364061D01*
X11814785Y-22354537D01*
X11786214Y-22354537D01*
X11767166Y-22345013D01*
X11757642Y-22325965D01*
X11757642Y-22316442D01*
X11767166Y-22297394D01*
X11786214Y-22287870D01*
X11814785Y-22287870D01*
X11833833Y-22297394D01*
X11910023Y-22497394D02*
X11919547Y-22487870D01*
X11938595Y-22459299D01*
X11948118Y-22440251D01*
X11957642Y-22411680D01*
X11967166Y-22364061D01*
X11967166Y-22325965D01*
X11957642Y-22278346D01*
X11948118Y-22249775D01*
X11938595Y-22230727D01*
X11919547Y-22202156D01*
X11910023Y-22192632D01*
D15*
X7087319Y-22543927D02*
X7087319Y-22645527D01*
X7036519Y-22594727D02*
X7138119Y-22594727D01*
D12*
X7500499Y-22685203D02*
X7386214Y-22685203D01*
X7443357Y-22685203D02*
X7443357Y-22485203D01*
X7424309Y-22513775D01*
X7405261Y-22532823D01*
X7386214Y-22542346D01*
X7586214Y-22666156D02*
X7595738Y-22675680D01*
X7586214Y-22685203D01*
X7576690Y-22675680D01*
X7586214Y-22666156D01*
X7586214Y-22685203D01*
X7719547Y-22485203D02*
X7738595Y-22485203D01*
X7757642Y-22494727D01*
X7767166Y-22504251D01*
X7776690Y-22523299D01*
X7786214Y-22561394D01*
X7786214Y-22609013D01*
X7776690Y-22647108D01*
X7767166Y-22666156D01*
X7757642Y-22675680D01*
X7738595Y-22685203D01*
X7719547Y-22685203D01*
X7700499Y-22675680D01*
X7690976Y-22666156D01*
X7681452Y-22647108D01*
X7671928Y-22609013D01*
X7671928Y-22561394D01*
X7681452Y-22523299D01*
X7690976Y-22504251D01*
X7700499Y-22494727D01*
X7719547Y-22485203D01*
X7976690Y-22685203D02*
X7862404Y-22685203D01*
X7919547Y-22685203D02*
X7919547Y-22485203D01*
X7900499Y-22513775D01*
X7881452Y-22532823D01*
X7862404Y-22542346D01*
X8148119Y-22485203D02*
X8110023Y-22485203D01*
X8090976Y-22494727D01*
X8081452Y-22504251D01*
X8062404Y-22532823D01*
X8052880Y-22570918D01*
X8052880Y-22647108D01*
X8062404Y-22666156D01*
X8071928Y-22675680D01*
X8090976Y-22685203D01*
X8129071Y-22685203D01*
X8148119Y-22675680D01*
X8157642Y-22666156D01*
X8167166Y-22647108D01*
X8167166Y-22599489D01*
X8157642Y-22580442D01*
X8148119Y-22570918D01*
X8129071Y-22561394D01*
X8090976Y-22561394D01*
X8071928Y-22570918D01*
X8062404Y-22580442D01*
X8052880Y-22599489D01*
X8252880Y-22685203D02*
X8252880Y-22551870D01*
X8252880Y-22570918D02*
X8262404Y-22561394D01*
X8281452Y-22551870D01*
X8310023Y-22551870D01*
X8329071Y-22561394D01*
X8338595Y-22580442D01*
X8338595Y-22685203D01*
X8338595Y-22580442D02*
X8348119Y-22561394D01*
X8367166Y-22551870D01*
X8395738Y-22551870D01*
X8414785Y-22561394D01*
X8424309Y-22580442D01*
X8424309Y-22685203D01*
X8519547Y-22685203D02*
X8519547Y-22551870D01*
X8519547Y-22570918D02*
X8529071Y-22561394D01*
X8548119Y-22551870D01*
X8576690Y-22551870D01*
X8595738Y-22561394D01*
X8605261Y-22580442D01*
X8605261Y-22685203D01*
X8605261Y-22580442D02*
X8614785Y-22561394D01*
X8633833Y-22551870D01*
X8662404Y-22551870D01*
X8681452Y-22561394D01*
X8690976Y-22580442D01*
X8690976Y-22685203D01*
X9081452Y-22475680D02*
X8910023Y-22732823D01*
X9338595Y-22485203D02*
X9357642Y-22485203D01*
X9376690Y-22494727D01*
X9386214Y-22504251D01*
X9395738Y-22523299D01*
X9405261Y-22561394D01*
X9405261Y-22609013D01*
X9395738Y-22647108D01*
X9386214Y-22666156D01*
X9376690Y-22675680D01*
X9357642Y-22685203D01*
X9338595Y-22685203D01*
X9319547Y-22675680D01*
X9310023Y-22666156D01*
X9300500Y-22647108D01*
X9290976Y-22609013D01*
X9290976Y-22561394D01*
X9300500Y-22523299D01*
X9310023Y-22504251D01*
X9319547Y-22494727D01*
X9338595Y-22485203D01*
X9490976Y-22666156D02*
X9500500Y-22675680D01*
X9490976Y-22685203D01*
X9481452Y-22675680D01*
X9490976Y-22666156D01*
X9490976Y-22685203D01*
X9624309Y-22485203D02*
X9643357Y-22485203D01*
X9662404Y-22494727D01*
X9671928Y-22504251D01*
X9681452Y-22523299D01*
X9690976Y-22561394D01*
X9690976Y-22609013D01*
X9681452Y-22647108D01*
X9671928Y-22666156D01*
X9662404Y-22675680D01*
X9643357Y-22685203D01*
X9624309Y-22685203D01*
X9605261Y-22675680D01*
X9595738Y-22666156D01*
X9586214Y-22647108D01*
X9576690Y-22609013D01*
X9576690Y-22561394D01*
X9586214Y-22523299D01*
X9595738Y-22504251D01*
X9605261Y-22494727D01*
X9624309Y-22485203D01*
X9862404Y-22551870D02*
X9862404Y-22685203D01*
X9814785Y-22475680D02*
X9767166Y-22618537D01*
X9890976Y-22618537D01*
X10005261Y-22485203D02*
X10024309Y-22485203D01*
X10043357Y-22494727D01*
X10052881Y-22504251D01*
X10062404Y-22523299D01*
X10071928Y-22561394D01*
X10071928Y-22609013D01*
X10062404Y-22647108D01*
X10052881Y-22666156D01*
X10043357Y-22675680D01*
X10024309Y-22685203D01*
X10005261Y-22685203D01*
X9986214Y-22675680D01*
X9976690Y-22666156D01*
X9967166Y-22647108D01*
X9957642Y-22609013D01*
X9957642Y-22561394D01*
X9967166Y-22523299D01*
X9976690Y-22504251D01*
X9986214Y-22494727D01*
X10005261Y-22485203D01*
X10195738Y-22485203D02*
X10214785Y-22485203D01*
X10233833Y-22494727D01*
X10243357Y-22504251D01*
X10252881Y-22523299D01*
X10262404Y-22561394D01*
X10262404Y-22609013D01*
X10252881Y-22647108D01*
X10243357Y-22666156D01*
X10233833Y-22675680D01*
X10214785Y-22685203D01*
X10195738Y-22685203D01*
X10176690Y-22675680D01*
X10167166Y-22666156D01*
X10157642Y-22647108D01*
X10148119Y-22609013D01*
X10148119Y-22561394D01*
X10157642Y-22523299D01*
X10167166Y-22504251D01*
X10176690Y-22494727D01*
X10195738Y-22485203D01*
X10338595Y-22485203D02*
X10338595Y-22523299D01*
X10414785Y-22485203D02*
X10414785Y-22523299D01*
X10710023Y-22761394D02*
X10700500Y-22751870D01*
X10681452Y-22723299D01*
X10671928Y-22704251D01*
X10662404Y-22675680D01*
X10652881Y-22628061D01*
X10652881Y-22589965D01*
X10662404Y-22542346D01*
X10671928Y-22513775D01*
X10681452Y-22494727D01*
X10700500Y-22466156D01*
X10710023Y-22456632D01*
X10814785Y-22570918D02*
X10795738Y-22561394D01*
X10786214Y-22551870D01*
X10776690Y-22532823D01*
X10776690Y-22523299D01*
X10786214Y-22504251D01*
X10795738Y-22494727D01*
X10814785Y-22485203D01*
X10852881Y-22485203D01*
X10871928Y-22494727D01*
X10881452Y-22504251D01*
X10890976Y-22523299D01*
X10890976Y-22532823D01*
X10881452Y-22551870D01*
X10871928Y-22561394D01*
X10852881Y-22570918D01*
X10814785Y-22570918D01*
X10795738Y-22580442D01*
X10786214Y-22589965D01*
X10776690Y-22609013D01*
X10776690Y-22647108D01*
X10786214Y-22666156D01*
X10795738Y-22675680D01*
X10814785Y-22685203D01*
X10852881Y-22685203D01*
X10871928Y-22675680D01*
X10881452Y-22666156D01*
X10890976Y-22647108D01*
X10890976Y-22609013D01*
X10881452Y-22589965D01*
X10871928Y-22580442D01*
X10852881Y-22570918D01*
X11129071Y-22685203D02*
X11129071Y-22485203D01*
X11214785Y-22685203D02*
X11214785Y-22580442D01*
X11205261Y-22561394D01*
X11186214Y-22551870D01*
X11157642Y-22551870D01*
X11138595Y-22561394D01*
X11129071Y-22570918D01*
X11338595Y-22685203D02*
X11319547Y-22675680D01*
X11310023Y-22666156D01*
X11300499Y-22647108D01*
X11300499Y-22589965D01*
X11310023Y-22570918D01*
X11319547Y-22561394D01*
X11338595Y-22551870D01*
X11367166Y-22551870D01*
X11386214Y-22561394D01*
X11395738Y-22570918D01*
X11405261Y-22589965D01*
X11405261Y-22647108D01*
X11395738Y-22666156D01*
X11386214Y-22675680D01*
X11367166Y-22685203D01*
X11338595Y-22685203D01*
X11519547Y-22685203D02*
X11500499Y-22675680D01*
X11490976Y-22656632D01*
X11490976Y-22485203D01*
X11671928Y-22675680D02*
X11652880Y-22685203D01*
X11614785Y-22685203D01*
X11595738Y-22675680D01*
X11586214Y-22656632D01*
X11586214Y-22580442D01*
X11595738Y-22561394D01*
X11614785Y-22551870D01*
X11652880Y-22551870D01*
X11671928Y-22561394D01*
X11681452Y-22580442D01*
X11681452Y-22599489D01*
X11586214Y-22618537D01*
X11757642Y-22675680D02*
X11776690Y-22685203D01*
X11814785Y-22685203D01*
X11833833Y-22675680D01*
X11843357Y-22656632D01*
X11843357Y-22647108D01*
X11833833Y-22628061D01*
X11814785Y-22618537D01*
X11786214Y-22618537D01*
X11767166Y-22609013D01*
X11757642Y-22589965D01*
X11757642Y-22580442D01*
X11767166Y-22561394D01*
X11786214Y-22551870D01*
X11814785Y-22551870D01*
X11833833Y-22561394D01*
X11910023Y-22761394D02*
X11919547Y-22751870D01*
X11938595Y-22723299D01*
X11948118Y-22704251D01*
X11957642Y-22675680D01*
X11967166Y-22628061D01*
X11967166Y-22589965D01*
X11957642Y-22542346D01*
X11948118Y-22513775D01*
X11938595Y-22494727D01*
X11919547Y-22466156D01*
X11910023Y-22456632D01*
D16*
X7120545Y-22901154D02*
X7120545Y-22816301D01*
X7035692Y-22816301D01*
X7035692Y-22901154D01*
X7120545Y-22901154D01*
D12*
X7500499Y-22949203D02*
X7386214Y-22949203D01*
X7443357Y-22949203D02*
X7443357Y-22749203D01*
X7424309Y-22777775D01*
X7405261Y-22796823D01*
X7386214Y-22806346D01*
X7586214Y-22930156D02*
X7595738Y-22939680D01*
X7586214Y-22949203D01*
X7576690Y-22939680D01*
X7586214Y-22930156D01*
X7586214Y-22949203D01*
X7671928Y-22768251D02*
X7681452Y-22758727D01*
X7700499Y-22749203D01*
X7748119Y-22749203D01*
X7767166Y-22758727D01*
X7776690Y-22768251D01*
X7786214Y-22787299D01*
X7786214Y-22806346D01*
X7776690Y-22834918D01*
X7662404Y-22949203D01*
X7786214Y-22949203D01*
X7910023Y-22749203D02*
X7929071Y-22749203D01*
X7948119Y-22758727D01*
X7957642Y-22768251D01*
X7967166Y-22787299D01*
X7976690Y-22825394D01*
X7976690Y-22873013D01*
X7967166Y-22911108D01*
X7957642Y-22930156D01*
X7948119Y-22939680D01*
X7929071Y-22949203D01*
X7910023Y-22949203D01*
X7890976Y-22939680D01*
X7881452Y-22930156D01*
X7871928Y-22911108D01*
X7862404Y-22873013D01*
X7862404Y-22825394D01*
X7871928Y-22787299D01*
X7881452Y-22768251D01*
X7890976Y-22758727D01*
X7910023Y-22749203D01*
X8100499Y-22749203D02*
X8119547Y-22749203D01*
X8138595Y-22758727D01*
X8148119Y-22768251D01*
X8157642Y-22787299D01*
X8167166Y-22825394D01*
X8167166Y-22873013D01*
X8157642Y-22911108D01*
X8148119Y-22930156D01*
X8138595Y-22939680D01*
X8119547Y-22949203D01*
X8100499Y-22949203D01*
X8081452Y-22939680D01*
X8071928Y-22930156D01*
X8062404Y-22911108D01*
X8052880Y-22873013D01*
X8052880Y-22825394D01*
X8062404Y-22787299D01*
X8071928Y-22768251D01*
X8081452Y-22758727D01*
X8100499Y-22749203D01*
X8252880Y-22949203D02*
X8252880Y-22815870D01*
X8252880Y-22834918D02*
X8262404Y-22825394D01*
X8281452Y-22815870D01*
X8310023Y-22815870D01*
X8329071Y-22825394D01*
X8338595Y-22844442D01*
X8338595Y-22949203D01*
X8338595Y-22844442D02*
X8348119Y-22825394D01*
X8367166Y-22815870D01*
X8395738Y-22815870D01*
X8414785Y-22825394D01*
X8424309Y-22844442D01*
X8424309Y-22949203D01*
X8519547Y-22949203D02*
X8519547Y-22815870D01*
X8519547Y-22834918D02*
X8529071Y-22825394D01*
X8548119Y-22815870D01*
X8576690Y-22815870D01*
X8595738Y-22825394D01*
X8605261Y-22844442D01*
X8605261Y-22949203D01*
X8605261Y-22844442D02*
X8614785Y-22825394D01*
X8633833Y-22815870D01*
X8662404Y-22815870D01*
X8681452Y-22825394D01*
X8690976Y-22844442D01*
X8690976Y-22949203D01*
X9081452Y-22739680D02*
X8910023Y-22996823D01*
X9338595Y-22749203D02*
X9357642Y-22749203D01*
X9376690Y-22758727D01*
X9386214Y-22768251D01*
X9395738Y-22787299D01*
X9405261Y-22825394D01*
X9405261Y-22873013D01*
X9395738Y-22911108D01*
X9386214Y-22930156D01*
X9376690Y-22939680D01*
X9357642Y-22949203D01*
X9338595Y-22949203D01*
X9319547Y-22939680D01*
X9310023Y-22930156D01*
X9300500Y-22911108D01*
X9290976Y-22873013D01*
X9290976Y-22825394D01*
X9300500Y-22787299D01*
X9310023Y-22768251D01*
X9319547Y-22758727D01*
X9338595Y-22749203D01*
X9490976Y-22930156D02*
X9500500Y-22939680D01*
X9490976Y-22949203D01*
X9481452Y-22939680D01*
X9490976Y-22930156D01*
X9490976Y-22949203D01*
X9624309Y-22749203D02*
X9643357Y-22749203D01*
X9662404Y-22758727D01*
X9671928Y-22768251D01*
X9681452Y-22787299D01*
X9690976Y-22825394D01*
X9690976Y-22873013D01*
X9681452Y-22911108D01*
X9671928Y-22930156D01*
X9662404Y-22939680D01*
X9643357Y-22949203D01*
X9624309Y-22949203D01*
X9605261Y-22939680D01*
X9595738Y-22930156D01*
X9586214Y-22911108D01*
X9576690Y-22873013D01*
X9576690Y-22825394D01*
X9586214Y-22787299D01*
X9595738Y-22768251D01*
X9605261Y-22758727D01*
X9624309Y-22749203D01*
X9862404Y-22815870D02*
X9862404Y-22949203D01*
X9814785Y-22739680D02*
X9767166Y-22882537D01*
X9890976Y-22882537D01*
X9948119Y-22749203D02*
X10081452Y-22749203D01*
X9995738Y-22949203D01*
X10148119Y-22768251D02*
X10157642Y-22758727D01*
X10176690Y-22749203D01*
X10224309Y-22749203D01*
X10243357Y-22758727D01*
X10252881Y-22768251D01*
X10262404Y-22787299D01*
X10262404Y-22806346D01*
X10252881Y-22834918D01*
X10138595Y-22949203D01*
X10262404Y-22949203D01*
X10338595Y-22749203D02*
X10338595Y-22787299D01*
X10414785Y-22749203D02*
X10414785Y-22787299D01*
X10710023Y-23025394D02*
X10700500Y-23015870D01*
X10681452Y-22987299D01*
X10671928Y-22968251D01*
X10662404Y-22939680D01*
X10652881Y-22892061D01*
X10652881Y-22853965D01*
X10662404Y-22806346D01*
X10671928Y-22777775D01*
X10681452Y-22758727D01*
X10700500Y-22730156D01*
X10710023Y-22720632D01*
X10814785Y-22834918D02*
X10795738Y-22825394D01*
X10786214Y-22815870D01*
X10776690Y-22796823D01*
X10776690Y-22787299D01*
X10786214Y-22768251D01*
X10795738Y-22758727D01*
X10814785Y-22749203D01*
X10852881Y-22749203D01*
X10871928Y-22758727D01*
X10881452Y-22768251D01*
X10890976Y-22787299D01*
X10890976Y-22796823D01*
X10881452Y-22815870D01*
X10871928Y-22825394D01*
X10852881Y-22834918D01*
X10814785Y-22834918D01*
X10795738Y-22844442D01*
X10786214Y-22853965D01*
X10776690Y-22873013D01*
X10776690Y-22911108D01*
X10786214Y-22930156D01*
X10795738Y-22939680D01*
X10814785Y-22949203D01*
X10852881Y-22949203D01*
X10871928Y-22939680D01*
X10881452Y-22930156D01*
X10890976Y-22911108D01*
X10890976Y-22873013D01*
X10881452Y-22853965D01*
X10871928Y-22844442D01*
X10852881Y-22834918D01*
X11062404Y-22815870D02*
X11062404Y-22949203D01*
X11014785Y-22739680D02*
X10967166Y-22882537D01*
X11090976Y-22882537D01*
X11319547Y-22949203D02*
X11319547Y-22749203D01*
X11405261Y-22949203D02*
X11405261Y-22844442D01*
X11395738Y-22825394D01*
X11376690Y-22815870D01*
X11348118Y-22815870D01*
X11329071Y-22825394D01*
X11319547Y-22834918D01*
X11529071Y-22949203D02*
X11510023Y-22939680D01*
X11500499Y-22930156D01*
X11490976Y-22911108D01*
X11490976Y-22853965D01*
X11500499Y-22834918D01*
X11510023Y-22825394D01*
X11529071Y-22815870D01*
X11557642Y-22815870D01*
X11576690Y-22825394D01*
X11586214Y-22834918D01*
X11595738Y-22853965D01*
X11595738Y-22911108D01*
X11586214Y-22930156D01*
X11576690Y-22939680D01*
X11557642Y-22949203D01*
X11529071Y-22949203D01*
X11710023Y-22949203D02*
X11690976Y-22939680D01*
X11681452Y-22920632D01*
X11681452Y-22749203D01*
X11862404Y-22939680D02*
X11843357Y-22949203D01*
X11805261Y-22949203D01*
X11786214Y-22939680D01*
X11776690Y-22920632D01*
X11776690Y-22844442D01*
X11786214Y-22825394D01*
X11805261Y-22815870D01*
X11843357Y-22815870D01*
X11862404Y-22825394D01*
X11871928Y-22844442D01*
X11871928Y-22863489D01*
X11776690Y-22882537D01*
X11948118Y-22939680D02*
X11967166Y-22949203D01*
X12005261Y-22949203D01*
X12024309Y-22939680D01*
X12033833Y-22920632D01*
X12033833Y-22911108D01*
X12024309Y-22892061D01*
X12005261Y-22882537D01*
X11976690Y-22882537D01*
X11957642Y-22873013D01*
X11948118Y-22853965D01*
X11948118Y-22844442D01*
X11957642Y-22825394D01*
X11976690Y-22815870D01*
X12005261Y-22815870D01*
X12024309Y-22825394D01*
X12100499Y-23025394D02*
X12110023Y-23015870D01*
X12129071Y-22987299D01*
X12138595Y-22968251D01*
X12148118Y-22939680D01*
X12157642Y-22892061D01*
X12157642Y-22853965D01*
X12148118Y-22806346D01*
X12138595Y-22777775D01*
X12129071Y-22758727D01*
X12110023Y-22730156D01*
X12100499Y-22720632D01*
M02*
