<?xml version="1.0" encoding="utf-8"?>
<!-- Generator: Adobe Illustrator 25.3.0, SVG Export Plug-In . SVG Version: 6.00 Build 0)  -->
<svg version="1.1" id="Layer_1" xmlns="http://www.w3.org/2000/svg" xmlns:xlink="http://www.w3.org/1999/xlink" x="0px" y="0px"
	 viewBox="0 0 612 792" style="enable-background:new 0 0 612 792;" xml:space="preserve">
<style type="text/css">
	.st0{display:none;fill:none;stroke:#000000;stroke-width:10;stroke-miterlimit:10;}
	.st1{fill:#FFFFFF;}
	.st2{display:none;}
	.st3{display:inline;fill:none;stroke:#000000;stroke-width:10;stroke-miterlimit:10;}
	.st4{display:inline;}
	.st5{fill:#BCBEC0;}
	.st6{fill:#808285;}
	.st7{fill:#939598;}
	.st8{fill:#A7A9AC;}
	.st9{fill:#6D6E71;}
	.st10{fill:#58595B;}
	.st11{fill:#414042;}
</style>
<image style="display:none;overflow:visible;" width="256" height="256" xlink:href="7F4B6EC5.jpg"  transform="matrix(1.8929 0 0 1.8929 43.1404 139.8596)">
</image>
<path class="st0" d="M191,211.9c-2.9,8.5,10.1,25.5,24.1,35.1c14,9.6,20.7,12.1,20.7,12.1s-6,23.7-8.8,28.6s-16.3,23.6-19.7,30.8
	c-3.4,7.2-85.3,55.2-94.9,63.9s-17.3,21.7-15.9,37.1c1,5.3,6.3,12.5,4.1,19.5c-2.2,7-7.2,35.2,0.7,51.8s25.5,32.7,46.5,41.2
	c9.4,3.1,17.1,19.5,34.9,24.1s42.9,2.9,56.2-8.6c4.1-3.4,19.3-15.1,22-14.9s21.5,27.6,29,33.2s29.4,12.5,43.6,8.9
	c14.2-3.6,24.3-10.4,38.8-13.2s41.7-14.2,55.9-27.9c14.2-13.7,15.7-32.3,21.4-38s26.5-22.9,29.9-29.4c3.4-6.5,6.5-35.6-14-58.8
	c-20.5-23.1-62.6-84.5-66.9-94.1c-4.3-9.6-2.3-17.6-14.3-33.2c-6-8.4-21.2-23.8-21.5-25.8c-0.2-1.9,24.1-15.2,26.3-22
	c2.2-6.7,12.2-19.9,0.9-26.7c-11.3-6.7-51.8-5.3-70.1,8.4c-18.3,13.7-23.1,23.8-25.8,23.6c-2.6-0.2-25.6-34.6-80-37.9
	C203.8,199.6,194.6,205.2,191,211.9z"/>
<rect class="st1" width="612" height="792"/>
<g class="st2">
	<path class="st3" d="M186.2,203.3c-3.1,8.9,3.4,31.4,18.1,41.5c14.7,10.1,22.2,15.7,22.2,15.7s-2,15.2-5.1,20.2
		c-3,5.1-14.7,23.7-18.2,31.3c-3.5,7.6-89.4,61.1-99.5,70.2c-10.1,9.1-18.2,22.8-16.7,38.9c1,5.6,6.6,13.1,4.3,20.5
		c-2.3,7.3-7.6,36.9,0.8,54.3s26.8,34.4,48.8,43.2c9.9,3.3,17.9,20.5,36.6,25.3c18.7,4.8,47,5.6,60.9-6.6
		c4.3-3.5,17.7-14.4,20.5-14.1c2.8,0.3,23.2,25,31.1,30.8c7.8,5.8,30.8,13.1,45.7,9.3c14.9-3.8,25.5-10.9,40.7-13.9
		s43.7-14.9,58.6-29.3c14.9-14.4,16.4-33.9,22.5-39.9c6.1-6.1,27.8-24,31.3-30.8s6.8-37.4-14.7-61.6c-21.5-24.3-65.7-88.7-70.2-98.8
		s-2.8-21.5-15.4-37.9c-6.3-8.8-14.9-15.9-15.2-17.9c-0.3-2,25-20.2,27.3-27.3s6.1-22.7-5.8-29.8s-54.3-5.6-73.5,8.8
		c-19.2,14.4-24.3,25-27,24.8c-2.8-0.3-26.9-36.3-83.9-39.7C199.7,190.4,190,196.2,186.2,203.3z"/>
	<g class="st4">
		<path d="M232.8,293.1c4.1,8.5,8.7,16.7,14.8,23.9c6,7,13.4,12.8,22.2,15.5c12,3.8,26.5,5.1,38.6,1c10.2-3.5,19.5-10.6,26.7-18.5
			c4.9-5.4,10.2-10.5,14.1-16.7c1.8-2.9,3.7-6.2,4.2-9.6c0.6-4-0.3-8.2-1.3-12c-1.4-5.5-3.5-10.8-6.2-15.7
			c8.3,4.7,15.4,10.7,22.6,16c8.4,6.3,10.9,15,9.1,27c-1.4,9.4-6.7,17-12.6,24.3c-11.6,14.2-25.2,24.8-40.7,37.4
			c-10.4,8.5-22,16.2-33.9,22.6c-0.9,0.5-1.8,1-2.7,1.4c-2.7,1.4-5.4,2.7-8.1,3.9c-2.4,1.1-5,3.4-6.9,0.7
			c-3.9-5.8-7.9-11.9-12.2-17.6c-6.5-8.4-14.8-15.4-20.8-24.4c-6.3-9.5-11.3-19.8-14.5-30.7c-0.8-2.9-1.5-5.8-1.3-8.8
			c0.2-3.5,1.7-8.1,2.9-11.3c1.6-4,2.9-5.6,6-9.1"/>
	</g>
</g>
<g>
	<path class="st5" d="M127.7,422.6l99.2-95.4l-2.4-7.9l-102.1,65.8C122.4,385.1,116.5,411.4,127.7,422.6z"/>
	<path class="st6" d="M226.9,327.2l4.5,10.9c0,0-22.3,7.2-12.9,30.8c1.1,4.7,8.4,14.8,8.4,14.8s-27.8-1.3-15.8,19.6
		c2.7,5.1,10.5,12.6,10.5,12.6s-23.7,7.6-4.4,24.3c5.8,4.7,23,6.2,23,6.2s2.7,19.5,22.4,26.4c0,0-21.9,44.5-25.5,46.1
		c-3.7,1.6-47.4,15.4-68.8-32.1c0,0-54.8-2.7-54.8-48.5l14.4-15.7L226.9,327.2z"/>
	<polygon class="st7" points="262.5,472.7 255.8,486.1 279.4,488.4 281.7,472.7 	"/>
	<path class="st6" d="M281.7,472.7l-2.3,15.7c0,0-1.8,38.3,7.6,43.1c9.3,4.8,54.4,1.3,61-15.3c0,0,64.7-1.6,82.2-37.3
		c2-4.8-4.9-26-4.9-26L374.8,317l-1.2-1.2c0,0-13.1,19-23.7,28.3c0,0,36.3-7.1,16.5,25.5c-3.3,6.1-18.4,20-18.4,20
		s21.7,15.4-5.3,29.6c-7.6,3.5-13.1,3.5-13.1,3.5s20,12.9-0.8,23.5c-6.8,4-15.9,5.3-15.9,5.3S305.8,469.3,281.7,472.7z"/>
	<path class="st8" d="M373.6,315.8l3.5-9.1l83.6,115.7c0,0,3.8,16.2-12.1,28.5c-15.9,12.4-20.2,12.7-20.2,12.7L373.6,315.8z"/>
	<path class="st9" d="M261.7,378.4c0,0,2.2,13.9-10.4,19.7c0,0,20,16.7,1.8,26.5c0,0,15.4,15.7-12.9,21.7c0,0,6.3,25,22.4,26.4
		c16,1.4,19.2,0,19.2,0s20.8,0.1,31.2-21.3c0,0-44-4.6-21-26.8c6.1-5,12.9-4.5,12.9-4.5s-15.4-12.6,3.5-23c0,0-8.7-3.8-6.2-15.6
		c0,0-19.8,11.6-25.6,13.8c-2.1,0.8-4.1,0.1-7.9-7C264.8,381.2,261.7,378.4,261.7,378.4z"/>
	<path class="st10" d="M279.7,246.3l27.5-0.7l-1.2,6l17.4-2.7l13.1,7.3c0,0-43.2,0.6-33.7,43.5c0,0,21.9-9.5,43.2,3
		c-6.1,21.7-72.1,64.1-108.2,0c0,0,14.1-7.4,31-5.9c0,0,14.2-30.4-17.5-35.9l13.5-11.2L279.7,246.3z"/>
	<path class="st11" d="M279.3,252.3c0,0,4.7-16.3-19.4-32.4c-24.1-16.1-59.1-14.6-61-13.3c-1.9,1.3,43,34.7,68.2,44
		C272.2,252.3,273.8,252.7,279.3,252.3z"/>
	<path d="M306,251.6c0,0-0.1-22.2,35-38.3c21.6-9.1,39.4-7.8,46-6.6c2.3,0.6-30.1,28.6-63.7,42.3C312.2,253.7,306,251.6,306,251.6z"
		/>
</g>
</svg>
